SplineFontDB: 3.0
FontName: Raleway-Thin
FullName: Raleway Thin
FamilyName: Raleway
Weight: Thin
Copyright: Copyright (c) 2010, Matt McInerney (matt@pixelspread.com), with Reserved Font Name "Raleway"
Version: 001.001
ItalicAngle: 0
UnderlinePosition: -50
UnderlineWidth: 50
Ascent: 800
Descent: 200
sfntRevision: 0x00010042
LayerCount: 2
Layer: 0 1 "Back"  1
Layer: 1 1 "Fore"  0
NeedsXUIDChange: 1
XUID: [1021 288 713564382 7251953]
FSType: 0
OS2Version: 2
OS2_WeightWidthSlopeOnly: 0
OS2_UseTypoMetrics: 1
CreationTime: 1315010382
ModificationTime: 1315003282
PfmFamily: 33
TTFWeight: 100
TTFWidth: 5
LineGap: 0
VLineGap: 0
Panose: 2 0 0 0 0 0 0 0 0 0
OS2TypoAscent: 918
OS2TypoAOffset: 0
OS2TypoDescent: -213
OS2TypoDOffset: 0
OS2TypoLinegap: 0
OS2WinAscent: 918
OS2WinAOffset: 0
OS2WinDescent: 213
OS2WinDOffset: 0
HheadAscent: 918
HheadAOffset: 0
HheadDescent: -213
HheadDOffset: 0
OS2SubXSize: 700
OS2SubYSize: 650
OS2SubXOff: 0
OS2SubYOff: 140
OS2SupXSize: 700
OS2SupYSize: 650
OS2SupXOff: 0
OS2SupYOff: 477
OS2StrikeYSize: 50
OS2StrikeYPos: 250
OS2Vendor: 'pyrs'
OS2CodePages: 20000011.00000000
OS2UnicodeRanges: 80000027.4000004a.00000000.00000000
Lookup: 1 0 0 "'aalt' Access All Alternates in Latin lookup 0"  {"'aalt' Access All Alternates in Latin lookup 0 subtable"  } ['aalt' ('latn' <'dflt' > ) ]
Lookup: 3 0 0 "'aalt' Access All Alternates in Latin lookup 1"  {"'aalt' Access All Alternates in Latin lookup 1 subtable"  } ['aalt' ('latn' <'dflt' > ) ]
Lookup: 1 0 0 "'smcp' Lowercase to Small Capitals in Latin lookup 2"  {"'smcp' Lowercase to Small Capitals in Latin lookup 2 subtable"  } ['smcp' ('latn' <'dflt' > ) ]
Lookup: 1 0 0 "'lnum' Lining Figures in Latin lookup 3"  {"'lnum' Lining Figures in Latin lookup 3 subtable"  } ['lnum' ('latn' <'dflt' > ) ]
Lookup: 1 0 0 "'onum' Oldstyle Figures in Latin lookup 4"  {"'onum' Oldstyle Figures in Latin lookup 4 subtable" ("oldstyle" ) } ['onum' ('latn' <'dflt' > ) ]

StartChar: AE
Encoding: 198 198 4
Width: 1217
Flags: HMW
HStem: 0 21G<1 23 1 1 616 616 616 638 704 704 704 1170> 690 20G<724 1161 724 724>
LayerCount: 2
Fore
SplineSet
23 0 m 1,0,-1
 1 0 l 1,1,-1
 311 710 l 1,2,-1
 329 710 l 1,3,-1
 638 0 l 1,4,-1
 616 0 l 1,5,-1
 505 254 l 1,6,-1
 134 254 l 1,7,-1
 23 0 l 1,0,-1
496 274 m 1,8,-1
 320 681 l 1,9,-1
 142 274 l 1,10,-1
 496 274 l 1,8,-1
724 20 m 1,11,-1
 1170 20 l 1,12,-1
 1170 0 l 1,13,-1
 704 0 l 1,14,-1
 704 710 l 1,15,-1
 1161 710 l 1,16,-1
 1161 690 l 1,17,-1
 724 690 l 1,18,-1
 724 373 l 1,19,-1
 1107 373 l 1,20,-1
 1107 353 l 1,21,-1
 724 353 l 1,22,-1
 724 20 l 1,11,-1
EndSplineSet
EndChar

StartChar: Aacute
Encoding: 193 193 5
Width: 639
Flags: HMW
HStem: 0 21G<1 23 1 1 616 616 616 638> 690 20G<311 329 329 329> 875 20G<333 367 367 367>
LayerCount: 2
Fore
SplineSet
23 0 m 1,0,-1
 1 0 l 1,1,-1
 311 710 l 1,2,-1
 329 710 l 1,3,-1
 638 0 l 1,4,-1
 616 0 l 1,5,-1
 505 254 l 1,6,-1
 134 254 l 1,7,-1
 23 0 l 1,0,-1
496 274 m 1,8,-1
 320 681 l 1,9,-1
 142 274 l 1,10,-1
 496 274 l 1,8,-1
367 895 m 1,11,-1
 285 790 l 1,12,-1
 269 802 l 1,13,-1
 333 895 l 1,14,-1
 367 895 l 1,11,-1
EndSplineSet
EndChar

StartChar: Adieresis
Encoding: 196 196 7
Width: 639
Flags: HMW
HStem: 0 21G<1 23 1 1 616 616 616 638> 690 20G<311 329 329 329> 865 20G<255 275 275 275 411 431 431 431>
LayerCount: 2
Fore
SplineSet
23 0 m 1,0,-1
 1 0 l 1,1,-1
 311 710 l 1,2,-1
 329 710 l 1,3,-1
 638 0 l 1,4,-1
 616 0 l 1,5,-1
 505 254 l 1,6,-1
 134 254 l 1,7,-1
 23 0 l 1,0,-1
496 274 m 1,8,-1
 320 681 l 1,9,-1
 142 274 l 1,10,-1
 496 274 l 1,8,-1
275 802 m 1,11,-1
 255 802 l 1,12,-1
 255 885 l 1,13,-1
 275 885 l 1,14,-1
 275 802 l 1,11,-1
431 802 m 1,15,-1
 411 802 l 1,16,-1
 411 885 l 1,17,-1
 431 885 l 1,18,-1
 431 802 l 1,15,-1
EndSplineSet
EndChar

StartChar: Aring
Encoding: 197 197 9
Width: 639
Flags: HMW
HStem: 0 21G<1 23 1 1 616 616 616 638> 690 20G<311 329 329 329> 777 138<313 351>
VStem: 263 138<827 865>
LayerCount: 2
Fore
SplineSet
23 0 m 1,0,-1
 1 0 l 1,1,-1
 311 710 l 1,2,-1
 329 710 l 1,3,-1
 638 0 l 1,4,-1
 616 0 l 1,5,-1
 505 254 l 1,6,-1
 134 254 l 1,7,-1
 23 0 l 1,0,-1
496 274 m 1,8,-1
 320 681 l 1,9,-1
 142 274 l 1,10,-1
 496 274 l 1,8,-1
263 846 m 128,-1,12
 263 874 263 874 283.5 894.5 c 128,-1,13
 304 915 304 915 332 915 c 128,-1,14
 360 915 360 915 380.5 894.5 c 128,-1,15
 401 874 401 874 401 846 c 128,-1,16
 401 818 401 818 380.5 797.5 c 128,-1,17
 360 777 360 777 332 777 c 128,-1,18
 304 777 304 777 283.5 797.5 c 128,-1,11
 263 818 263 818 263 846 c 128,-1,12
297 881 m 128,-1,20
 283 867 283 867 283 845.5 c 0,21,22
 283 824 283 824 297 812 c 1,23,24
 312 797 312 797 332 797 c 128,-1,25
 352 797 352 797 366.5 811.5 c 0,26,27
 381 826 381 826 381 845.5 c 0,28,29
 381 865 381 865 367 881 c 1,30,31
 353 895 353 895 332 895 c 128,-1,19
 311 895 311 895 297 881 c 128,-1,20
EndSplineSet
EndChar

StartChar: B
Encoding: 66 66 11
Width: 658
Flags: HMW
HStem: 0 21G<94 423 94 94> 690 20G<114 408 114 114>
LayerCount: 2
Fore
SplineSet
600 184 m 1,0,1
 597 109 597 109 546 54.5 c 128,-1,2
 495 0 495 0 423 0 c 2,3,-1
 94 0 l 1,4,-1
 94 710 l 1,5,-1
 408 710 l 2,6,7
 480 710 480 710 525 655 c 128,-1,8
 570 600 570 600 570 537.5 c 128,-1,9
 570 475 570 475 542 430 c 128,-1,10
 514 385 514 385 468 364 c 1,11,12
 528 346 528 346 564 296 c 128,-1,13
 600 246 600 246 600 184 c 1,0,1
533.5 70.5 m 128,-1,15
 580 121 580 121 580 185 c 128,-1,16
 580 249 580 249 536.5 298.5 c 128,-1,17
 493 348 493 348 430 348 c 2,18,-1
 114 348 l 1,19,-1
 114 20 l 1,20,-1
 423 20 l 2,21,14
 487 20 487 20 533.5 70.5 c 128,-1,15
408 690 m 1,22,-1
 114 690 l 1,23,-1
 114 368 l 1,24,-1
 402 368 l 2,25,26
 465 368 465 368 507.5 417.5 c 128,-1,27
 550 467 550 467 550 530.5 c 128,-1,28
 550 594 550 594 510 641.5 c 128,-1,29
 470 689 470 689 408 690 c 1,22,-1
EndSplineSet
EndChar

StartChar: B.sc
Encoding: 65539 -1 12
Width: 492
Flags: HMW
HStem: 0 21G<82 258 82 82> 499 20G<102 102 102 236>
LayerCount: 2
Fore
SplineSet
335 264 m 1,0,1
 435 236 435 236 435 136 c 0,2,3
 435 73 435 73 398.5 36.5 c 128,-1,4
 362 0 362 0 258 0 c 2,5,-1
 82 0 l 1,6,-1
 82 519 l 1,7,-1
 236 519 l 2,8,9
 421 519 421 519 421 383 c 2,10,-1
 421 382 l 2,11,12
 421 289 421 289 335 264 c 1,0,1
102 499 m 1,13,-1
 102 273 l 1,14,-1
 245 273 l 2,15,16
 329 273 329 273 365 300.5 c 128,-1,17
 401 328 401 328 401 383 c 2,18,-1
 401 384 l 2,19,20
 401 440 401 440 364 469.5 c 128,-1,21
 327 499 327 499 236 499 c 2,22,-1
 102 499 l 1,13,-1
267 20 m 2,23,24
 415 20 415 20 415 136 c 0,25,26
 415 210.607142857 415 210.607142857 358 233 c 0,27,28
 312.181818182 251 312.181818182 251 236 251 c 2,29,-1
 102 251 l 1,30,-1
 102 20 l 1,31,-1
 267 20 l 2,23,24
EndSplineSet
EndChar

StartChar: C
Encoding: 67 67 13
Width: 693
Flags: HMW
HStem: -6 21G<283.5 432> 694 20G<276.5 425>
LayerCount: 2
Fore
SplineSet
47 354 m 0,0,1
 47 497 47 497 139.5 605.5 c 128,-1,2
 232 714 232 714 370 714 c 0,3,4
 564 714 564 714 641 559 c 1,5,-1
 622 553 l 1,6,7
 546 694 546 694 370 694 c 0,8,9
 280 694 280 694 209.5 643.5 c 128,-1,10
 139 593 139 593 103 516 c 128,-1,11
 67 439 67 439 67 354 c 0,12,13
 67 219 67 219 159.5 116.5 c 128,-1,14
 252 14 252 14 382 14 c 0,15,16
 452 14 452 14 534 58.5 c 128,-1,17
 616 103 616 103 639 164 c 1,18,-1
 658 159 l 1,19,20
 640 110 640 110 592.5 71 c 128,-1,21
 545 32 545 32 489.5 13 c 128,-1,22
 434 -6 434 -6 382 -6 c 0,23,24
 287 -6 287 -6 209 47.5 c 128,-1,25
 131 101 131 101 89 183.5 c 128,-1,26
 47 266 47 266 47 354 c 0,0,1
EndSplineSet
EndChar

StartChar: C.sc
Encoding: 65540 -1 14
Width: 540
Flags: HMW
HStem: -10 21G<268 350> 503 20G<213.5 336>
LayerCount: 2
Fore
SplineSet
130 60 m 1,0,1
 48 137 48 137 48 257 c 0,2,3
 48 322 48 322 74 381 c 128,-1,4
 100 440 100 440 156 481.5 c 128,-1,5
 212 523 212 523 287 523 c 0,6,7
 374.333333333 523 374.333333333 523 433 479 c 0,8,9
 465.8 454.4 465.8 454.4 489 408 c 1,10,-1
 471 402 l 1,11,-1
 470 402 l 1,12,13
 420 503 420 503 287 503 c 0,14,15
 217 503 217 503 165.5 464.5 c 128,-1,16
 114 426 114 426 91 371 c 128,-1,17
 68 316 68 316 68 257 c 0,18,19
 68 147 68 147 139.5 78.5 c 128,-1,20
 211 10 211 10 296 10 c 0,21,22
 362 10 362 10 417 46.5 c 128,-1,23
 472 83 472 83 482 118 c 1,24,-1
 501 113 l 1,25,26
 491 72 491 72 431 31 c 128,-1,27
 371 -10 371 -10 296 -10 c 0,28,29
 203 -10 203 -10 130 60 c 1,0,1
EndSplineSet
EndChar

StartChar: A
Encoding: 65 65 15
Width: 639
Flags: HMW
HStem: 0 21G<1 23 1 1 616 616 616 638> 690 20G<311 329 329 329>
LayerCount: 2
Fore
SplineSet
23 0 m 1,0,-1
 1 0 l 1,1,-1
 311 710 l 1,2,-1
 329 710 l 1,3,-1
 638 0 l 1,4,-1
 616 0 l 1,5,-1
 505 254 l 1,6,-1
 134 254 l 1,7,-1
 23 0 l 1,0,-1
496 274 m 1,8,-1
 320 681 l 1,9,-1
 142 274 l 1,10,-1
 496 274 l 1,8,-1
EndSplineSet
EndChar

StartChar: Ccedilla
Encoding: 199 199 16
Width: 694
Flags: HMW
HStem: -160 21G<375 386> -6 21G<283.5 432> -3 21G<333 355 355 355> 694 20G<276.5 425>
LayerCount: 2
Fore
SplineSet
47 354 m 0,0,1
 47 497 47 497 139.5 605.5 c 128,-1,2
 232 714 232 714 370 714 c 0,3,4
 564 714 564 714 641 559 c 1,5,-1
 622 553 l 1,6,7
 546 694 546 694 370 694 c 0,8,9
 280 694 280 694 209.5 643.5 c 128,-1,10
 139 593 139 593 103 516 c 128,-1,11
 67 439 67 439 67 354 c 0,12,13
 67 219 67 219 159.5 116.5 c 128,-1,14
 252 14 252 14 382 14 c 0,15,16
 452 14 452 14 534 58.5 c 128,-1,17
 616 103 616 103 639 164 c 1,18,-1
 658 159 l 1,19,20
 640 110 640 110 592.5 71 c 128,-1,21
 545 32 545 32 489.5 13 c 128,-1,22
 434 -6 434 -6 382 -6 c 0,23,24
 287 -6 287 -6 209 47.5 c 128,-1,25
 131 101 131 101 89 183.5 c 128,-1,26
 47 266 47 266 47 354 c 0,0,1
375 -160 m 1,27,-1
 375 -140 l 1,28,29
 401 -137 401 -137 414 -115 c 1,30,31
 417.0625 -106.25 417.0625 -106.25 417.0625 -97.34375 c 0,32,33
 417.0625 -88.4375 417.0625 -88.4375 412 -80 c 0,34,35
 403 -63 403 -63 381 -63 c 0,36,37
 359 -63 359 -63 343.5 -68 c 0,38,39
 328 -73 328 -73 284 -90 c 1,40,-1
 333 -3 l 1,41,-1
 355 -3 l 1,42,-1
 329 -51 l 1,43,44
 357 -43 357 -43 383 -44 c 0,45,46
 409 -45 409 -45 424 -62 c 1,47,48
 436.6 -80.6 436.6 -80.6 436.6 -96.1 c 0,49,50
 436.6 -111.6 436.6 -111.6 430.3 -125.8 c 0,51,52
 424 -140 424 -140 408 -150 c 128,-1,53
 392 -160 392 -160 375 -160 c 1,27,-1
EndSplineSet
EndChar

StartChar: D
Encoding: 68 68 17
Width: 706
Flags: HMW
HStem: 0 21G<94 322 94 94> 690 20G<114 322 114 114>
LayerCount: 2
Fore
SplineSet
322 0 m 2,0,-1
 94 0 l 1,1,-1
 94 710 l 1,2,-1
 322 710 l 2,3,4
 483 710 483 710 569 610.5 c 128,-1,5
 655 511 655 511 655 352.5 c 0,6,7
 655 194 655 194 564.5 97 c 128,-1,8
 474 0 474 0 322 0 c 2,0,-1
635 356 m 1,9,10
 633 509 633 509 551.5 599.5 c 128,-1,11
 470 690 470 690 322 690 c 2,12,-1
 114 690 l 1,13,-1
 114 20 l 1,14,-1
 322 20 l 2,15,16
 471 20 471 20 551.5 112 c 128,-1,17
 632 204 632 204 635 356 c 1,9,10
EndSplineSet
EndChar

StartChar: D.sc
Encoding: 65541 -1 18
Width: 539
Flags: HMW
HStem: 0 21G<82 247 82 82> 499 20G<102 247 102 102>
LayerCount: 2
Fore
SplineSet
247 519 m 2,0,1
 364 519 364 519 425.5 450 c 128,-1,2
 487 381 487 381 487 258 c 128,-1,3
 487 135 487 135 423 67.5 c 128,-1,4
 359 0 359 0 247 0 c 2,5,-1
 82 0 l 1,6,-1
 82 519 l 1,7,-1
 247 519 l 2,0,1
247 20 m 2,8,9
 350 20 350 20 408.5 81 c 128,-1,10
 467 142 467 142 467 259.5 c 128,-1,11
 467 377 467 377 409 438 c 128,-1,12
 351 499 351 499 247 499 c 2,13,-1
 102 499 l 1,14,-1
 102 20 l 1,15,-1
 247 20 l 2,8,9
EndSplineSet
EndChar

StartChar: E
Encoding: 69 69 19
Width: 607
Flags: HMW
HStem: 0 21G<94 560 94 94> 690 20G<114 551 114 114>
LayerCount: 2
Fore
SplineSet
114 20 m 1,0,-1
 560 20 l 1,1,-1
 560 0 l 1,2,-1
 94 0 l 1,3,-1
 94 710 l 1,4,-1
 551 710 l 1,5,-1
 551 690 l 1,6,-1
 114 690 l 1,7,-1
 114 373 l 1,8,-1
 497 373 l 1,9,-1
 497 353 l 1,10,-1
 114 353 l 1,11,-1
 114 20 l 1,0,-1
EndSplineSet
EndChar

StartChar: E.sc
Encoding: 65542 -1 20
Width: 491
Flags: HMW
HStem: 0 21G<82 448 82 82> 499 20G<102 439 102 102>
LayerCount: 2
Fore
SplineSet
102 20 m 1,0,-1
 448 20 l 1,1,-1
 448 0 l 1,2,-1
 82 0 l 1,3,-1
 82 519 l 1,4,-1
 439 519 l 1,5,-1
 439 499 l 1,6,-1
 102 499 l 1,7,-1
 102 275 l 1,8,-1
 385 275 l 1,9,-1
 385 255 l 1,10,-1
 102 255 l 1,11,-1
 102 20 l 1,0,-1
EndSplineSet
EndChar

StartChar: Ecircumflex
Encoding: 202 202 22
Width: 607
Flags: HMW
HStem: 0 21G<94 560 94 94> 690 20G<114 551 114 114> 898 20G<287 303 303 303>
LayerCount: 2
Fore
SplineSet
114 20 m 1,0,-1
 560 20 l 1,1,-1
 560 0 l 1,2,-1
 94 0 l 1,3,-1
 94 710 l 1,4,-1
 551 710 l 1,5,-1
 551 690 l 1,6,-1
 114 690 l 1,7,-1
 114 373 l 1,8,-1
 497 373 l 1,9,-1
 497 353 l 1,10,-1
 114 353 l 1,11,-1
 114 20 l 1,0,-1
210 778 m 1,12,-1
 194 790 l 1,13,-1
 287 918 l 1,14,-1
 303 918 l 1,15,-1
 396 790 l 1,16,-1
 380 778 l 1,17,-1
 295 895 l 1,18,-1
 210 778 l 1,12,-1
EndSplineSet
EndChar

StartChar: Egrave
Encoding: 200 200 24
Width: 607
Flags: HMW
HStem: 0 21G<94 560 94 94> 690 20G<114 551 114 114> 875 20G<229 262 262 262>
LayerCount: 2
Fore
SplineSet
114 20 m 1,0,-1
 560 20 l 1,1,-1
 560 0 l 1,2,-1
 94 0 l 1,3,-1
 94 710 l 1,4,-1
 551 710 l 1,5,-1
 551 690 l 1,6,-1
 114 690 l 1,7,-1
 114 373 l 1,8,-1
 497 373 l 1,9,-1
 497 353 l 1,10,-1
 114 353 l 1,11,-1
 114 20 l 1,0,-1
311 790 m 1,12,-1
 229 895 l 1,13,-1
 262 895 l 1,14,-1
 327 802 l 1,15,-1
 311 790 l 1,12,-1
EndSplineSet
EndChar

StartChar: Eth
Encoding: 208 208 25
Width: 711
Flags: HMW
HStem: 0 21G<99 327 99 99> 690 20G<119 327 119 119>
LayerCount: 2
Fore
SplineSet
327 0 m 2,0,-1
 99 0 l 1,1,-1
 99 710 l 1,2,-1
 327 710 l 2,3,4
 488 710 488 710 574 610.5 c 128,-1,5
 660 511 660 511 660 352.5 c 0,6,7
 660 194 660 194 569.5 97 c 128,-1,8
 479 0 479 0 327 0 c 2,0,-1
640 356 m 1,9,10
 638 509 638 509 556.5 599.5 c 128,-1,11
 475 690 475 690 327 690 c 2,12,-1
 119 690 l 1,13,-1
 119 20 l 1,14,-1
 327 20 l 2,15,16
 476 20 476 20 556.5 112 c 128,-1,17
 637 204 637 204 640 356 c 1,9,10
266 347 m 1,18,-1
 -17 347 l 1,19,-1
 -17 367 l 1,20,-1
 266 367 l 1,21,-1
 266 347 l 1,18,-1
EndSplineSet
EndChar

StartChar: Euro
Encoding: 8364 8364 26
Width: 817
Flags: HMW
HStem: -6 21G<391 528> 291 110<91 146 91 149 41 146 169 524 169 169> 694 20G<381 521>
LayerCount: 2
Fore
SplineSet
144 381 m 1,0,-1
 81 381 l 1,1,-1
 91 401 l 1,2,-1
 146 401 l 1,3,4
 162 530 162 530 251 622 c 128,-1,5
 340 714 340 714 466 714 c 0,6,7
 660 714 660 714 737 559 c 1,8,-1
 718 553 l 1,9,10
 642 694 642 694 466 694 c 0,11,12
 344 694 344 694 262.5 607.5 c 128,-1,13
 181 521 181 521 166 401 c 1,14,-1
 574 401 l 1,15,-1
 564 381 l 1,16,-1
 164 381 l 1,17,18
 163 372 163 372 163 352 c 0,19,20
 163 332 163 332 166 311 c 1,21,-1
 534 311 l 1,22,-1
 524 291 l 1,23,-1
 169 291 l 1,24,25
 190 175 190 175 277.5 94.5 c 128,-1,26
 365 14 365 14 478 14 c 0,27,28
 548 14 548 14 630 58.5 c 128,-1,29
 712 103 712 103 735 164 c 1,30,-1
 754 159 l 1,31,32
 736 110 736 110 688.5 71 c 128,-1,33
 641 32 641 32 585.5 13 c 128,-1,34
 530 -6 530 -6 478 -6 c 0,35,36
 353 -6 353 -6 262 81.5 c 128,-1,37
 171 169 171 169 149 291 c 1,38,-1
 41 291 l 1,39,-1
 51 311 l 1,40,-1
 146 311 l 1,41,42
 143 332 143 332 143 352 c 0,43,44
 143 372 143 372 144 381 c 1,0,-1
EndSplineSet
EndChar

StartChar: F
Encoding: 70 70 27
Width: 585
Flags: HMW
HStem: 0 21G<94 114 94 94> 690 20G<114 551 114 114>
LayerCount: 2
Fore
SplineSet
114 0 m 1,0,-1
 94 0 l 1,1,-1
 94 710 l 1,2,-1
 551 710 l 1,3,-1
 551 690 l 1,4,-1
 114 690 l 1,5,-1
 114 374 l 1,6,-1
 497 374 l 1,7,-1
 497 354 l 1,8,-1
 114 354 l 1,9,-1
 114 0 l 1,0,-1
EndSplineSet
EndChar

StartChar: F.sc
Encoding: 65543 -1 28
Width: 450
Flags: HMW
HStem: 0 21G<82 102 82 82> 498 20G<102 419 102 102>
LayerCount: 2
Fore
SplineSet
102 0 m 1,0,-1
 82 0 l 1,1,-1
 82 518 l 1,2,-1
 419 518 l 1,3,-1
 419 498 l 1,4,-1
 102 498 l 1,5,-1
 102 277 l 1,6,-1
 365 277 l 1,7,-1
 365 257 l 1,8,-1
 102 257 l 1,9,-1
 102 0 l 1,0,-1
EndSplineSet
EndChar

StartChar: G
Encoding: 71 71 29
Width: 718
Flags: HMW
HStem: -5 21G<283.5 430.5> 0 21G<638 658 638 638> 695 20G<276.5 425>
LayerCount: 2
Fore
SplineSet
471 338 m 1,0,-1
 658 338 l 1,1,-1
 658 0 l 1,2,-1
 638 0 l 1,3,-1
 638 121 l 1,4,5
 531 -5 531 -5 382 -5 c 0,6,7
 287 -5 287 -5 209 48.5 c 128,-1,8
 131 102 131 102 89 184.5 c 128,-1,9
 47 267 47 267 47 355 c 0,10,11
 47 498 47 498 139.5 606.5 c 128,-1,12
 232 715 232 715 370 715 c 0,13,14
 564 715 564 715 641 560 c 1,15,-1
 622 554 l 1,16,17
 546 695 546 695 370 695 c 0,18,19
 280 695 280 695 209.5 644.5 c 128,-1,20
 139 594 139 594 103 517 c 128,-1,21
 67 440 67 440 67 355 c 0,22,23
 67 220 67 220 159.5 117.5 c 128,-1,24
 252 15 252 15 382 15 c 0,25,26
 458 15 458 15 539 57.5 c 128,-1,27
 620 100 620 100 638 164 c 1,28,-1
 638 318 l 1,29,-1
 471 318 l 1,30,-1
 471 338 l 1,0,-1
EndSplineSet
Substitution2: "'salt' Stylistic Alternatives in Latin lookup 5 subtable" G.alt
Substitution2: "'aalt' Access All Alternates in Latin lookup 0 subtable" G.alt
EndChar

StartChar: G.alt
Encoding: 65544 -1 30
Width: 734
Flags: HMW
HStem: -5 21G 695 20G<285.5 432>
LayerCount: 2
Fore
SplineSet
439 309 m 1,0,-1
 439 329 l 1,1,-1
 707 329 l 1,2,3
 707 324 707 324 705 312 c 1,4,-1
 705 309 l 1,5,6
 689 179 689 179 596.5 88 c 128,-1,7
 504 -3 504 -3 378 -5 c 1,8,9
 283 -2 283 -2 206 50 c 128,-1,10
 129 102 129 102 88 183 c 128,-1,11
 47 264 47 264 47 355 c 0,12,13
 47 499 47 499 143.5 607 c 128,-1,14
 240 715 240 715 378 715 c 0,15,16
 463 715 463 715 533 672 c 128,-1,17
 603 629 603 629 648 558 c 1,18,-1
 634 544 l 1,19,20
 591 613 591 613 524 654 c 128,-1,21
 457 695 457 695 373 695 c 0,22,23
 289 695 289 695 216.5 645 c 128,-1,24
 144 595 144 595 105.5 517.5 c 128,-1,25
 67 440 67 440 67 355 c 1,26,27
 71 218 71 218 159 116.5 c 128,-1,28
 247 15 247 15 373 15 c 0,29,30
 499 15 499 15 584 102.5 c 128,-1,31
 669 190 669 190 685 309 c 1,32,-1
 439 309 l 1,0,-1
EndSplineSet
EndChar

StartChar: G.sc
Encoding: 65545 -1 31
Width: 559
Flags: HMW
HStem: -10 21G<239.5 339> 0 21G<482 502 482 482> 505 20G<214.5 357>
LayerCount: 2
Fore
SplineSet
502 248 m 1,0,-1
 502 0 l 1,1,-1
 482 0 l 1,2,-1
 482 78 l 2,3,4
 482 77 482 77 480 75 c 0,5,6
 407 -10 407 -10 297 -10 c 0,7,8
 203 -10 203 -10 125.5 64 c 128,-1,9
 48 138 48 138 48 257 c 0,10,11
 48 352.053571429 48 352.053571429 105 434.5 c 0,12,13
 133 475 133 475 180.5 500 c 128,-1,14
 228 525 228 525 274.5 525 c 128,-1,15
 321 525 321 525 349.5 518.5 c 128,-1,16
 378 512 378 512 398 502 c 128,-1,17
 418 492 418 492 434 480 c 128,-1,18
 450 468 450 468 460 455.5 c 0,19,20
 478 433 478 433 490 409 c 1,21,-1
 471 403 l 1,22,-1
 470.216 402.936 l 1,23,24
 470 404.5 470 404.5 469 407 c 0,25,26
 415 505 415 505 288 505 c 0,27,28
 185 505 185 505 126.5 429 c 128,-1,29
 68 353 68 353 68 250 c 128,-1,30
 68 147 68 147 140 78.5 c 128,-1,31
 212 10 212 10 297 10 c 0,32,33
 365 10 365 10 419 47 c 128,-1,34
 473 84 473 84 482 117 c 1,35,-1
 482 228 l 1,36,-1
 362 228 l 1,37,-1
 362 248 l 1,38,-1
 502 248 l 1,0,-1
EndSplineSet
EndChar

StartChar: H
Encoding: 72 72 32
Width: 721
Flags: HMW
HStem: 0 21G<94 114 94 94 607 627 607 607> 690 20G<94 114 114 114 607 627 627 627>
LayerCount: 2
Fore
SplineSet
607 710 m 1,0,-1
 627 710 l 1,1,-1
 627 0 l 1,2,-1
 607 0 l 1,3,-1
 607 353 l 1,4,-1
 114 353 l 1,5,-1
 114 0 l 1,6,-1
 94 0 l 1,7,-1
 94 710 l 1,8,-1
 114 710 l 1,9,-1
 114 373 l 1,10,-1
 607 373 l 1,11,-1
 607 710 l 1,0,-1
EndSplineSet
EndChar

StartChar: H.sc
Encoding: 65546 -1 33
Width: 557
Flags: HMW
HStem: 0 21G<82 102 82 82 455 475 455 455> 499 20G<82 102 102 102 455 475 475 475>
LayerCount: 2
Fore
SplineSet
455 519 m 1,0,-1
 475 519 l 1,1,-1
 475 0 l 1,2,-1
 455 0 l 1,3,-1
 455 257 l 1,4,-1
 102 257 l 1,5,-1
 102 0 l 1,6,-1
 82 0 l 1,7,-1
 82 519 l 1,8,-1
 102 519 l 1,9,-1
 102 277 l 1,10,-1
 455 277 l 1,11,-1
 455 519 l 1,0,-1
EndSplineSet
EndChar

StartChar: I
Encoding: 73 73 34
Width: 208
Flags: HMW
HStem: 0 21G<94 114 94 94> 689 20G<94 114 114 114>
LayerCount: 2
Fore
SplineSet
114 0 m 1,0,-1
 94 0 l 1,1,-1
 94 709 l 1,2,-1
 114 709 l 1,3,-1
 114 0 l 1,0,-1
EndSplineSet
EndChar

StartChar: I.sc
Encoding: 65547 -1 35
Width: 184
Flags: HMW
HStem: 0 21G<82 102 82 82> 499 20G<82 102 102 102>
LayerCount: 2
Fore
SplineSet
102 0 m 1,0,-1
 82 0 l 1,1,-1
 82 519 l 1,2,-1
 102 519 l 1,3,-1
 102 0 l 1,0,-1
EndSplineSet
EndChar

StartChar: Icircumflex
Encoding: 206 206 37
Width: 208
Flags: HMW
HStem: 0 21G<94 114 94 94> 898 20G<79 95 95 95>
LayerCount: 2
Fore
SplineSet
114 0 m 1,0,-1
 94 0 l 1,1,-1
 94 709 l 1,2,-1
 114 709 l 1,3,-1
 114 0 l 1,0,-1
2 778 m 1,4,-1
 -14 790 l 1,5,-1
 79 918 l 1,6,-1
 95 918 l 1,7,-1
 188 790 l 1,8,-1
 172 778 l 1,9,-1
 87 895 l 1,10,-1
 2 778 l 1,4,-1
EndSplineSet
EndChar

StartChar: Igrave
Encoding: 204 204 39
Width: 208
Flags: HMW
HStem: 0 21G<94 114 94 94> 875 20G<21 54 54 54>
LayerCount: 2
Fore
SplineSet
114 0 m 1,0,-1
 94 0 l 1,1,-1
 94 709 l 1,2,-1
 114 709 l 1,3,-1
 114 0 l 1,0,-1
103 790 m 1,4,-1
 21 895 l 1,5,-1
 54 895 l 1,6,-1
 119 802 l 1,7,-1
 103 790 l 1,4,-1
EndSplineSet
EndChar

StartChar: J
Encoding: 74 74 40
Width: 463
Flags: HMW
HStem: -11 21G<135.5 259.5> 689 20G<356 376 376 376>
LayerCount: 2
Fore
SplineSet
12 33 m 1,0,-1
 23 49 l 1,1,2
 81 9 81 9 166 9 c 0,3,4
 260.769230769 9 260.769230769 9 306.5 67 c 0,5,6
 343.811174785 114.321489971 343.811174785 114.321489971 352.5 231 c 0,7,8
 356 278 356 278 356 349 c 2,9,-1
 356 709 l 1,10,-1
 376 709 l 1,11,-1
 376 349 l 2,12,13
 376 210.36 376 210.36 359.5 145.68 c 128,-1,14
 343 81 343 81 320.5 52.5 c 0,15,16
 270.368421053 -11 270.368421053 -11 173.184210526 -11 c 128,-1,17
 76 -11 76 -11 12 33 c 1,0,-1
EndSplineSet
EndChar

StartChar: J.sc
Encoding: 65548 -1 41
Width: 423
Flags: HMW
HStem: -11 21G<135.5 249.5> 499 20G<326 346 346 346>
LayerCount: 2
Fore
SplineSet
22 33 m 1,0,-1
 33 49 l 1,1,2
 91 9 91 9 166 9 c 0,3,4
 264.210526316 9 264.210526316 9 292 57 c 0,5,6
 315.177316294 97.0335463259 315.177316294 97.0335463259 319.588658147 140.516773163 c 0,7,8
 326 203.714285714 326 203.714285714 326 299 c 2,9,-1
 326 519 l 1,10,-1
 346 519 l 1,11,-1
 346 299 l 2,12,13
 346 135.5 346 135.5 328 86 c 0,14,15
 307.791304348 30.4260869565 307.791304348 30.4260869565 274.5 12.5 c 0,16,17
 230.857142857 -11 230.857142857 -11 158.428571429 -11 c 128,-1,18
 86 -11 86 -11 22 33 c 1,0,-1
EndSplineSet
EndChar

StartChar: K
Encoding: 75 75 42
Width: 631
Flags: HMW
HStem: 0 21G<94 114 94 94 583 583 583 609> 689 20G<94 114 114 114> 690 20G<610 639 639 639>
LayerCount: 2
Fore
SplineSet
114 0 m 1,0,-1
 94 0 l 1,1,-1
 94 709 l 1,2,-1
 114 709 l 1,3,-1
 114 249 l 1,4,-1
 610 710 l 1,5,-1
 639 710 l 1,6,-1
 298 392 l 1,7,-1
 609 0 l 1,8,-1
 583 0 l 1,9,-1
 283 378 l 1,10,-1
 114 221 l 1,11,-1
 114 0 l 1,0,-1
EndSplineSet
EndChar

StartChar: K.sc
Encoding: 65549 -1 43
Width: 505
Flags: HMW
HStem: 0 21G<82 102 82 82 464 488 464 464> 499 20G<82 102 102 102 457 484 484 484>
LayerCount: 2
Fore
SplineSet
488 0 m 1,0,-1
 464 0 l 1,1,-1
 243 297 l 1,2,-1
 102 169 l 1,3,-1
 102 0 l 1,4,-1
 82 0 l 1,5,-1
 82 519 l 1,6,-1
 102 519 l 1,7,-1
 102 196 l 1,8,-1
 457 519 l 1,9,-1
 484 519 l 1,10,-1
 258 311 l 1,11,-1
 488 0 l 1,0,-1
EndSplineSet
EndChar

StartChar: L
Encoding: 76 76 44
Width: 583
Flags: HMW
HStem: 0 21G<94 560 94 94> 690 20G<94 114 114 114>
LayerCount: 2
Fore
SplineSet
560 0 m 1,0,-1
 94 0 l 1,1,-1
 94 710 l 1,2,-1
 114 710 l 1,3,-1
 114 20 l 1,4,-1
 560 20 l 1,5,-1
 560 0 l 1,0,-1
EndSplineSet
EndChar

StartChar: L.sc
Encoding: 65550 -1 45
Width: 443
Flags: HMW
HStem: 0 21G<82 418 82 82> 499 20G<82 102 102 102>
LayerCount: 2
Fore
SplineSet
418 0 m 1,0,-1
 82 0 l 1,1,-1
 82 519 l 1,2,-1
 102 519 l 1,3,-1
 102 20 l 1,4,-1
 418 20 l 1,5,-1
 418 0 l 1,0,-1
EndSplineSet
EndChar

StartChar: M
Encoding: 77 77 46
Width: 874
Flags: HMW
HStem: 0 21G<94 114 94 94 760 780 760 760> 690 20G<94 110 110 110 764 780 780 780>
LayerCount: 2
Fore
SplineSet
780 0 m 1,0,-1
 760 0 l 1,1,-1
 760 666 l 1,2,-1
 445 140 l 1,3,-1
 429 140 l 1,4,-1
 114 666 l 1,5,-1
 114 0 l 1,6,-1
 94 0 l 1,7,-1
 94 710 l 1,8,-1
 110 710 l 1,9,-1
 437 164 l 1,10,-1
 764 710 l 1,11,-1
 780 710 l 1,12,-1
 780 0 l 1,0,-1
EndSplineSet
EndChar

StartChar: M.sc
Encoding: 65551 -1 47
Width: 637
Flags: HMW
HStem: 0 21G<82 102 82 82 535 555 535 535> 497 20G<82 103 103 103 533 555 555 555>
LayerCount: 2
Fore
SplineSet
318 138 m 1,0,-1
 533 517 l 1,1,-1
 555 517 l 1,2,-1
 555 0 l 1,3,-1
 535 0 l 1,4,-1
 535 479 l 1,5,-1
 327 112 l 1,6,-1
 310 112 l 1,7,-1
 102 479 l 1,8,-1
 102 0 l 1,9,-1
 82 0 l 1,10,-1
 82 517 l 1,11,-1
 103 517 l 1,12,-1
 318 138 l 1,0,-1
EndSplineSet
EndChar

StartChar: N
Encoding: 78 78 48
Width: 766
Flags: HMW
HStem: 0 21G<94 114 94 94 649 672 649 649> 689 20G<652 672 672 672> 690 20G<94 109 109 109>
LayerCount: 2
Fore
SplineSet
649 0 m 1,0,-1
 114 671 l 1,1,-1
 114 0 l 1,2,-1
 94 0 l 1,3,-1
 94 710 l 1,4,-1
 109 710 l 1,5,-1
 652 29 l 1,6,-1
 652 709 l 1,7,-1
 672 709 l 1,8,-1
 672 0 l 1,9,-1
 649 0 l 1,0,-1
EndSplineSet
EndChar

StartChar: N.sc
Encoding: 65552 -1 49
Width: 596
Flags: HMW
HStem: 0 21G<82 102 82 82 491 491 491 514> 497 20G<82 105 105 105 494 514 514 514>
LayerCount: 2
Fore
SplineSet
102 488 m 1,0,-1
 102 0 l 1,1,-1
 82 0 l 1,2,-1
 82 517 l 1,3,-1
 105 517 l 1,4,-1
 494 29 l 1,5,-1
 494 517 l 1,6,-1
 514 517 l 1,7,-1
 514 0 l 1,8,-1
 491 0 l 1,9,-1
 102 488 l 1,0,-1
EndSplineSet
EndChar

StartChar: O
Encoding: 79 79 51
Width: 755
Flags: HMW
HStem: -5 21G 695 20G<285.5 466>
LayerCount: 2
Fore
SplineSet
378 -5 m 1,0,1
 283 -2 283 -2 206 50 c 128,-1,2
 129 102 129 102 88 183 c 128,-1,3
 47 264 47 264 47 355 c 0,4,5
 47 499 47 499 143.5 607 c 128,-1,6
 240 715 240 715 379.5 715 c 0,7,8
 519 715 519 715 613.5 604.5 c 128,-1,9
 708 494 708 494 708 352.5 c 0,10,11
 708 211 708 211 612 104 c 128,-1,12
 516 -3 516 -3 378 -5 c 1,0,1
67 355 m 1,13,14
 71 218 71 218 159 116.5 c 128,-1,15
 247 15 247 15 379 15 c 0,16,17
 511 15 511 15 599.5 119 c 128,-1,18
 688 223 688 223 688 355 c 0,19,20
 688 443 688 443 648 521 c 128,-1,21
 608 599 608 599 536 647 c 128,-1,22
 464 695 464 695 376.5 695 c 0,23,24
 289 695 289 695 216.5 645 c 128,-1,25
 144 595 144 595 105.5 517.5 c 128,-1,26
 67 440 67 440 67 355 c 1,13,14
EndSplineSet
EndChar

StartChar: O.sc
Encoding: 65553 -1 52
Width: 589
Flags: HMW
HStem: -10 21G 507 20G<227 359>
LayerCount: 2
Fore
SplineSet
295 -10 m 1,0,1
 189 -8 189 -8 118.5 72.5 c 128,-1,2
 48 153 48 153 48 260 c 0,3,4
 48 367 48 367 120.5 447 c 128,-1,5
 193 527 193 527 297.5 527 c 0,6,7
 402 527 402 527 472 444 c 128,-1,8
 542 361 542 361 542 255.5 c 0,9,10
 542 150 542 150 470 71 c 128,-1,11
 398 -8 398 -8 295 -10 c 1,0,1
68 258 m 1,12,13
 72 157 72 157 135.5 83.5 c 128,-1,14
 199 10 199 10 296 10 c 0,15,16
 393 10 393 10 457.5 87 c 128,-1,17
 522 164 522 164 522 260.5 c 0,18,19
 522 357 522 357 455.5 432 c 128,-1,20
 389 507 389 507 293 507 c 0,21,22
 197 507 197 507 132.5 429.5 c 128,-1,23
 68 352 68 352 68 258 c 1,12,13
EndSplineSet
EndChar

StartChar: OE
Encoding: 338 338 53
Width: 1201
Flags: HMW
HStem: -5 21G 0 21G<688 1154 688 688> 690 20G<708 1145 708 708> 695 20G<285.5 453.5 284.5 466>
LayerCount: 2
Fore
SplineSet
708 20 m 1,0,-1
 1154 20 l 1,1,-1
 1154 0 l 1,2,-1
 688 0 l 1,3,-1
 688 234 l 1,4,5
 653 130 653 130 568.5 63 c 128,-1,6
 484 -4 484 -4 378 -5 c 1,7,8
 283 -2 283 -2 206 50 c 128,-1,9
 129 102 129 102 88 183 c 128,-1,10
 47 264 47 264 47 355 c 0,11,12
 47 499 47 499 143.5 607 c 128,-1,13
 240 715 240 715 378 715 c 0,14,15
 487 715 487 715 570 646.5 c 128,-1,16
 653 578 653 578 688 475 c 1,17,-1
 688 710 l 1,18,-1
 1145 710 l 1,19,-1
 1145 690 l 1,20,-1
 708 690 l 1,21,-1
 708 373 l 1,22,-1
 1091 373 l 1,23,-1
 1091 353 l 1,24,-1
 708 353 l 1,25,-1
 708 20 l 1,0,-1
159 116.5 m 128,-1,27
 247 15 247 15 379 15 c 128,-1,28
 511 15 511 15 599.5 118.5 c 128,-1,29
 688 222 688 222 688 354 c 2,30,-1
 688 356 l 2,31,32
 688 491 688 491 597.5 593 c 128,-1,33
 507 695 507 695 378 695 c 0,34,35
 289 695 289 695 216.5 645 c 128,-1,36
 144 595 144 595 105.5 517.5 c 128,-1,37
 67 440 67 440 67 355 c 1,38,26
 71 218 71 218 159 116.5 c 128,-1,27
EndSplineSet
EndChar

StartChar: Ocircumflex
Encoding: 212 212 55
Width: 755
Flags: HMW
HStem: -5 21G 695 20G<285.5 466> 898 20G<362 378 378 378>
LayerCount: 2
Fore
SplineSet
378 -5 m 1,0,1
 283 -2 283 -2 206 50 c 128,-1,2
 129 102 129 102 88 183 c 128,-1,3
 47 264 47 264 47 355 c 0,4,5
 47 499 47 499 143.5 607 c 128,-1,6
 240 715 240 715 379.5 715 c 0,7,8
 519 715 519 715 613.5 604.5 c 128,-1,9
 708 494 708 494 708 352.5 c 0,10,11
 708 211 708 211 612 104 c 128,-1,12
 516 -3 516 -3 378 -5 c 1,0,1
67 355 m 1,13,14
 71 218 71 218 159 116.5 c 128,-1,15
 247 15 247 15 379 15 c 0,16,17
 511 15 511 15 599.5 119 c 128,-1,18
 688 223 688 223 688 355 c 0,19,20
 688 443 688 443 648 521 c 128,-1,21
 608 599 608 599 536 647 c 128,-1,22
 464 695 464 695 376.5 695 c 0,23,24
 289 695 289 695 216.5 645 c 128,-1,25
 144 595 144 595 105.5 517.5 c 128,-1,26
 67 440 67 440 67 355 c 1,13,14
285 778 m 1,27,-1
 269 790 l 1,28,-1
 362 918 l 1,29,-1
 378 918 l 1,30,-1
 471 790 l 1,31,-1
 455 778 l 1,32,-1
 370 895 l 1,33,-1
 285 778 l 1,27,-1
EndSplineSet
EndChar

StartChar: Ograve
Encoding: 210 210 57
Width: 755
Flags: HMW
HStem: -5 21G 695 20G<285.5 466> 875 20G<304 337 337 337>
LayerCount: 2
Fore
SplineSet
378 -5 m 1,0,1
 283 -2 283 -2 206 50 c 128,-1,2
 129 102 129 102 88 183 c 128,-1,3
 47 264 47 264 47 355 c 0,4,5
 47 499 47 499 143.5 607 c 128,-1,6
 240 715 240 715 379.5 715 c 0,7,8
 519 715 519 715 613.5 604.5 c 128,-1,9
 708 494 708 494 708 352.5 c 0,10,11
 708 211 708 211 612 104 c 128,-1,12
 516 -3 516 -3 378 -5 c 1,0,1
67 355 m 1,13,14
 71 218 71 218 159 116.5 c 128,-1,15
 247 15 247 15 379 15 c 0,16,17
 511 15 511 15 599.5 119 c 128,-1,18
 688 223 688 223 688 355 c 0,19,20
 688 443 688 443 648 521 c 128,-1,21
 608 599 608 599 536 647 c 128,-1,22
 464 695 464 695 376.5 695 c 0,23,24
 289 695 289 695 216.5 645 c 128,-1,25
 144 595 144 595 105.5 517.5 c 128,-1,26
 67 440 67 440 67 355 c 1,13,14
386 790 m 1,27,-1
 304 895 l 1,28,-1
 337 895 l 1,29,-1
 402 802 l 1,30,-1
 386 790 l 1,27,-1
EndSplineSet
EndChar

StartChar: Otilde
Encoding: 213 213 59
Width: 755
Flags: HMW
HStem: -5 21G 695 20G<285.5 466> 695 117<421.5 466> 792 81<254 345.5 288.5 481.5>
LayerCount: 2
Fore
SplineSet
378 -5 m 1,0,1
 283 -2 283 -2 206 50 c 128,-1,2
 129 102 129 102 88 183 c 128,-1,3
 47 264 47 264 47 355 c 0,4,5
 47 499 47 499 143.5 607 c 128,-1,6
 240 715 240 715 379.5 715 c 128,-1,7
 519 715 519 715 613.5 604.5 c 128,-1,8
 708 494 708 494 708 352.5 c 128,-1,9
 708 211 708 211 612 104 c 128,-1,10
 516 -3 516 -3 378 -5 c 1,0,1
67 355 m 1,11,12
 71 218 71 218 159 116.5 c 128,-1,13
 247 15 247 15 379 15 c 128,-1,14
 511 15 511 15 599.5 119 c 128,-1,15
 688 223 688 223 688 355 c 0,16,17
 688 443 688 443 648 521 c 128,-1,18
 608 599 608 599 536 647 c 128,-1,19
 464 695 464 695 376.5 695 c 128,-1,20
 289 695 289 695 216.5 645 c 128,-1,21
 144 595 144 595 105.5 517.5 c 128,-1,22
 67 440 67 440 67 355 c 1,11,12
481 800 m 0,23,24
 467 792 467 792 444 792 c 128,-1,25
 421 792 421 792 397 807 c 128,-1,26
 373 822 373 822 354.5 837.5 c 128,-1,27
 336 853 336 853 322 853 c 128,-1,28
 308 853 308 853 298.5 846.5 c 128,-1,29
 289 840 289 840 284.5 832.5 c 128,-1,30
 280 825 280 825 277.5 815 c 0,31,32
 274 801 274 801 274 793 c 1,33,-1
 254 792 l 1,34,-1
 254 793 l 2,35,36
 254 842.148148148 254 842.148148148 289.5 864.5 c 0,37,38
 303 873 303 873 324 873 c 128,-1,39
 345 873 345 873 383 842.5 c 128,-1,40
 421 812 421 812 445 812 c 128,-1,41
 469 812 469 812 481 825.5 c 0,42,43
 497 843.5 497 843.5 497 866 c 1,44,-1
 517 865 l 1,45,46
 517 820.571428571 517 820.571428571 481 800 c 0,23,24
EndSplineSet
EndChar

StartChar: P
Encoding: 80 80 60
Width: 608
Flags: HMW
HStem: 0 21G<94 114 94 94> 690 20G<114 114 114 383>
LayerCount: 2
Fore
SplineSet
114 0 m 1,0,-1
 94 0 l 1,1,-1
 94 710 l 1,2,-1
 383 710 l 2,3,4
 467 710 467 710 525 644 c 128,-1,5
 583 578 583 578 583 493.5 c 0,6,7
 583 409 583 409 528.5 344 c 128,-1,8
 474 279 474 279 390 279 c 2,9,-1
 114 279 l 1,10,-1
 114 0 l 1,0,-1
114 690 m 1,11,-1
 114 299 l 1,12,-1
 390 299 l 2,13,14
 467 299 467 299 515 358.5 c 128,-1,15
 563 418 563 418 563 495 c 128,-1,16
 563 572 563 572 510 631 c 128,-1,17
 457 690 457 690 383 690 c 2,18,-1
 114 690 l 1,11,-1
EndSplineSet
EndChar

StartChar: P.sc
Encoding: 65554 -1 61
Width: 487
Flags: HMW
HStem: 0 21G<82 102 82 82> 499 20G<102 263 102 102>
LayerCount: 2
Fore
SplineSet
263 519 m 2,0,1
 360 519 360 519 406 477.5 c 128,-1,2
 452 436 452 436 452 352 c 128,-1,3
 452 268 452 268 405.5 227 c 128,-1,4
 359 186 359 186 263 186 c 2,5,-1
 102 186 l 1,6,-1
 102 0 l 1,7,-1
 82 0 l 1,8,-1
 82 519 l 1,9,-1
 263 519 l 2,0,1
392 241.5 m 128,-1,11
 432 277 432 277 432 352 c 128,-1,12
 432 427 432 427 393 463 c 128,-1,13
 354 499 354 499 263 499 c 2,14,-1
 102 499 l 1,15,-1
 102 206 l 1,16,-1
 263 206 l 2,17,10
 352 206 352 206 392 241.5 c 128,-1,11
EndSplineSet
EndChar

StartChar: Q
Encoding: 81 81 62
Width: 755
Flags: HMW
HStem: -5 21G<378 417> 0 21G<646 671 646 646> 695 20G<285.5 466>
LayerCount: 2
Fore
SplineSet
378 -5 m 1,0,1
 283 -2 283 -2 206 50 c 128,-1,2
 129 102 129 102 88 183 c 128,-1,3
 47 264 47 264 47 355 c 0,4,5
 47 499 47 499 143.5 607 c 128,-1,6
 240 715 240 715 379.5 715 c 0,7,8
 519 715 519 715 613.5 604.5 c 128,-1,9
 708 494 708 494 708 350 c 0,10,11
 708 206 708 206 600 89 c 1,12,-1
 671 0 l 1,13,-1
 646 0 l 1,14,-1
 586 75 l 1,15,16
 495 -5 495 -5 378 -5 c 1,0,1
574 91 m 1,17,-1
 498 186 l 1,18,-1
 523 186 l 1,19,-1
 588 104 l 1,20,21
 688 215 688 215 688 355 c 0,22,23
 688 443 688 443 648 521 c 128,-1,24
 608 599 608 599 536 647 c 128,-1,25
 464 695 464 695 376.5 695 c 0,26,27
 289 695 289 695 216.5 645 c 128,-1,28
 144 595 144 595 105.5 517.5 c 128,-1,29
 67 440 67 440 67 355 c 0,30,31
 67 220 67 220 157.5 117.5 c 128,-1,32
 248 15 248 15 378 15 c 0,33,34
 488 15 488 15 574 91 c 1,17,-1
EndSplineSet
EndChar

StartChar: Q.sc
Encoding: 65555 -1 63
Width: 589
Flags: HMW
HStem: -10 21G 0 21G<497 522 497 497> 507 20G<227 359>
LayerCount: 2
Fore
SplineSet
472 444 m 128,-1,1
 542 361 542 361 542 254.5 c 128,-1,2
 542 148 542 148 468 69 c 1,3,-1
 522 0 l 1,4,-1
 497 0 l 1,5,-1
 454 55 l 1,6,7
 384 -9 384 -9 295 -10 c 1,8,9
 189 -8 189 -8 118.5 72.5 c 128,-1,10
 48 153 48 153 48 260 c 128,-1,11
 48 367 48 367 120.5 447 c 128,-1,12
 193 527 193 527 297.5 527 c 128,-1,0
 402 527 402 527 472 444 c 128,-1,1
135.5 83.5 m 128,-1,14
 199 10 199 10 289 10 c 128,-1,15
 379 10 379 10 442 70 c 1,16,-1
 392 132 l 1,17,-1
 417 132 l 1,18,-1
 455 84 l 1,19,20
 522 159 522 159 522 258 c 128,-1,21
 522 357 522 357 455.5 432 c 128,-1,22
 389 507 389 507 293 507 c 128,-1,23
 197 507 197 507 132.5 429.5 c 128,-1,24
 68 352 68 352 68 258 c 1,25,13
 72 157 72 157 135.5 83.5 c 128,-1,14
EndSplineSet
EndChar

StartChar: R
Encoding: 82 82 64
Width: 636
Flags: HMW
HStem: 0 21G<94 114 94 94 558 558 558 582> 690 20G<114 114 114 383>
LayerCount: 2
Fore
SplineSet
114 0 m 1,0,-1
 94 0 l 1,1,-1
 94 710 l 1,2,-1
 383 710 l 2,3,4
 467 710 467 710 525 644 c 128,-1,5
 583 578 583 578 583 494.5 c 0,6,7
 583 411 583 411 532 348 c 128,-1,8
 481 285 481 285 402 279 c 1,9,-1
 582 0 l 1,10,-1
 558 0 l 1,11,-1
 378 279 l 1,12,-1
 114 279 l 1,13,-1
 114 0 l 1,0,-1
114 690 m 1,14,-1
 114 299 l 1,15,-1
 390 299 l 2,16,17
 467 299 467 299 515 358 c 128,-1,18
 563 417 563 417 563 494.5 c 0,19,20
 563 572 563 572 510 631 c 128,-1,21
 457 690 457 690 383 690 c 2,22,-1
 114 690 l 1,14,-1
EndSplineSet
EndChar

StartChar: R.sc
Encoding: 65556 -1 65
Width: 504
Flags: HMW
HStem: 0 21G<82 102 82 82 422 445 422 422> 499 20G<102 263 102 102>
LayerCount: 2
Fore
SplineSet
452 353 m 0,0,1
 452 211 452 211 318 190 c 1,2,-1
 445 0 l 1,3,-1
 422 0 l 1,4,-1
 296 186 l 1,5,-1
 102 186 l 1,6,-1
 102 0 l 1,7,-1
 82 0 l 1,8,-1
 82 519 l 1,9,-1
 263 519 l 2,10,11
 360 519 360 519 406 477.5 c 128,-1,12
 452 436 452 436 452 353 c 0,0,1
102 206 m 1,13,-1
 263 206 l 2,14,15
 352 206 352 206 392 241.5 c 128,-1,16
 432 277 432 277 432 352 c 128,-1,17
 432 427 432 427 393 463 c 128,-1,18
 354 499 354 499 263 499 c 2,19,-1
 102 499 l 1,20,-1
 102 206 l 1,13,-1
EndSplineSet
EndChar

StartChar: S
Encoding: 83 83 66
Width: 607
Flags: HMW
HStem: -5 21G<250.5 365> 695 20G<245.5 338>
LayerCount: 2
Fore
SplineSet
45 105 m 1,0,-1
 60 118 l 1,1,2
 108 68 108 68 174 41.5 c 128,-1,3
 240 15 240 15 304 15 c 128,-1,4
 368 15 368 15 420.5 30.5 c 128,-1,5
 473 46 473 46 512 85.5 c 128,-1,6
 551 125 551 125 551 178 c 128,-1,7
 551 231 551 231 528 265 c 128,-1,8
 505 299 505 299 466 315.5 c 0,9,10
 396.272727273 345 396.272727273 345 304 345 c 0,11,12
 201.365853659 345 201.365853659 345 132 384.5 c 0,13,14
 55 428.347222222 55 428.347222222 55 532 c 0,15,16
 55 581 55 581 77 618 c 128,-1,17
 99 655 99 655 136 675.5 c 0,18,19
 207.292682927 715 207.292682927 715 296.146341463 715 c 128,-1,20
 385 715 385 715 435.5 691 c 128,-1,21
 486 667 486 667 522 616 c 1,22,-1
 503 608 l 1,23,24
 445 695 445 695 301 695 c 0,25,26
 207 695 207 695 142 655.5 c 128,-1,27
 77 616 77 616 75 532 c 1,28,29
 75 365 75 365 304 365 c 0,30,31
 410.128205128 365 410.128205128 365 485 328.5 c 0,32,33
 525 309 525 309 548 272 c 128,-1,34
 571 235 571 235 571 184 c 128,-1,35
 571 133 571 133 546.5 95 c 128,-1,36
 522 57 522 57 481.5 36 c 0,37,38
 402.428571429 -5 402.428571429 -5 309 -5 c 0,39,40
 155 -5 155 -5 45 105 c 1,0,-1
EndSplineSet
EndChar

StartChar: S.sc
Encoding: 65557 -1 67
Width: 467
Flags: HMW
HStem: -10 21G<190 275.5> 507 20G<188 252.5>
LayerCount: 2
Fore
SplineSet
46 72 m 1,0,-1
 61 85 l 1,1,2
 142 10 142 10 233 10 c 0,3,4
 302 10 302 10 355.5 40.5 c 128,-1,5
 409 71 409 71 409 132 c 0,6,7
 409 166 409 166 392 190.5 c 128,-1,8
 375 215 375 215 346.5 226.5 c 0,9,10
 293.217391304 248 293.217391304 248 229 248 c 0,11,12
 53 248 53 248 53 389 c 0,13,14
 53 459 53 459 104 493 c 128,-1,15
 155 527 155 527 222.5 527 c 128,-1,16
 290 527 290 527 328 508.5 c 128,-1,17
 366 490 366 490 392 452 c 1,18,-1
 374 444 l 1,19,20
 342 507 342 507 227 507 c 0,21,22
 162 507 162 507 117.5 478 c 128,-1,23
 73 449 73 449 73 389 c 0,24,25
 73 268 73 268 229 268 c 0,26,27
 305.034482759 268 305.034482759 268 364 239.5 c 0,28,29
 429 208.083333333 429 208.083333333 429 132 c 0,30,31
 429 95 429 95 410.5 66 c 128,-1,32
 392 37 392 37 362.5 21 c 0,33,34
 305.34375 -10 305.34375 -10 233 -10 c 0,35,36
 128 -10 128 -10 46 72 c 1,0,-1
EndSplineSet
EndChar

StartChar: T
Encoding: 84 84 69
Width: 594
Flags: HMW
HStem: 0 21G<287 307 287 287> 690 20G<15 287 15 579 307 579 307 307>
LayerCount: 2
Fore
SplineSet
579 710 m 1,0,-1
 579 690 l 1,1,-1
 307 690 l 1,2,-1
 307 0 l 1,3,-1
 287 0 l 1,4,-1
 287 690 l 1,5,-1
 15 690 l 1,6,-1
 15 710 l 1,7,-1
 579 710 l 1,0,-1
EndSplineSet
EndChar

StartChar: T.sc
Encoding: 65558 -1 70
Width: 450
Flags: HMW
HStem: 0 21G<215 235 215 215> 499 20G<20 215 20 430 235 430 235 235>
LayerCount: 2
Fore
SplineSet
430 519 m 1,0,-1
 430 499 l 1,1,-1
 235 499 l 1,2,-1
 235 0 l 1,3,-1
 215 0 l 1,4,-1
 215 499 l 1,5,-1
 20 499 l 1,6,-1
 20 519 l 1,7,-1
 430 519 l 1,0,-1
EndSplineSet
EndChar

StartChar: Thorn
Encoding: 222 222 71
Width: 588
Flags: HMW
HStem: 0 21G<94 114 94 94> 690 20G<94 114 114 114>
LayerCount: 2
Fore
SplineSet
363 560 m 2,0,1
 447 560 447 560 505 494 c 128,-1,2
 563 428 563 428 563 343.5 c 0,3,4
 563 259 563 259 508.5 194 c 128,-1,5
 454 129 454 129 370 129 c 2,6,-1
 114 129 l 1,7,-1
 114 0 l 1,8,-1
 94 0 l 1,9,-1
 94 710 l 1,10,-1
 114 710 l 1,11,-1
 114 560 l 1,12,-1
 363 560 l 2,0,1
370 149 m 2,13,14
 447 149 447 149 495 208.5 c 128,-1,15
 543 268 543 268 543 345 c 128,-1,16
 543 422 543 422 490 481 c 128,-1,17
 437 540 437 540 363 540 c 2,18,-1
 114 540 l 1,19,-1
 114 149 l 1,20,-1
 370 149 l 2,13,14
EndSplineSet
EndChar

StartChar: U
Encoding: 85 85 72
Width: 751
Flags: HMW
HStem: -15 21G<263.5 485> 690 20G<85 105 105 105 646 666 666 666>
LayerCount: 2
Fore
SplineSet
267 24 m 0,0,1
 315 5 315 5 376.5 5 c 128,-1,2
 438 5 438 5 486 25 c 128,-1,3
 534 45 534 45 563.5 77 c 128,-1,4
 593 109 593 109 612 154.5 c 0,5,6
 646 235.921052632 646 235.921052632 646 345 c 2,7,-1
 646 710 l 1,8,-1
 666 710 l 1,9,-1
 666 345 l 2,10,11
 666 153.876923077 666 153.876923077 572.5 57.5 c 0,12,13
 502.164179104 -15 502.164179104 -15 376 -15 c 0,14,15
 311 -15 311 -15 259.5 5.5 c 128,-1,16
 208 26 208 26 176 60 c 128,-1,17
 144 94 144 94 123 141.5 c 0,18,19
 85 227.452380952 85 227.452380952 85 345 c 2,20,-1
 85 710 l 1,21,-1
 105 710 l 1,22,-1
 105 345 l 2,23,24
 105 88.125 105 88.125 267 24 c 0,0,1
EndSplineSet
EndChar

StartChar: U.sc
Encoding: 65559 -1 73
Width: 572
Flags: HMW
HStem: -10 21G<216 355.5> 499 20G<75 95 95 95 477 497 497 497>
LayerCount: 2
Fore
SplineSet
123 111 m 1,0,1
 173 10 173 10 286 10 c 0,2,3
 378 10 378 10 427.5 74.5 c 128,-1,4
 477 139 477 139 477 260 c 2,5,-1
 477 519 l 1,6,-1
 497 519 l 1,7,-1
 497 260 l 2,8,9
 497 135 497 135 442.5 62.5 c 128,-1,10
 388 -10 388 -10 285.5 -10 c 0,11,12
 183 -10 183 -10 129 62.5 c 128,-1,13
 75 135 75 135 75 260 c 2,14,-1
 75 519 l 1,15,-1
 95 519 l 1,16,-1
 95 260 l 2,17,18
 95 173 95 173 123 111 c 1,0,1
EndSplineSet
EndChar

StartChar: Ucircumflex
Encoding: 219 219 75
Width: 751
Flags: HMW
HStem: -15 21G<263.5 485> 690 20G<85 105 105 105 646 666 666 666> 898 20G<354 370 370 370>
LayerCount: 2
Fore
SplineSet
267 24 m 0,0,1
 315 5 315 5 376.5 5 c 128,-1,2
 438 5 438 5 486 25 c 128,-1,3
 534 45 534 45 563.5 77 c 128,-1,4
 593 109 593 109 612 154.5 c 0,5,6
 646 235.921052632 646 235.921052632 646 345 c 2,7,-1
 646 710 l 1,8,-1
 666 710 l 1,9,-1
 666 345 l 2,10,11
 666 153.876923077 666 153.876923077 572.5 57.5 c 0,12,13
 502.164179104 -15 502.164179104 -15 376 -15 c 0,14,15
 311 -15 311 -15 259.5 5.5 c 128,-1,16
 208 26 208 26 176 60 c 128,-1,17
 144 94 144 94 123 141.5 c 0,18,19
 85 227.452380952 85 227.452380952 85 345 c 2,20,-1
 85 710 l 1,21,-1
 105 710 l 1,22,-1
 105 345 l 2,23,24
 105 88.125 105 88.125 267 24 c 0,0,1
277 778 m 1,25,-1
 261 790 l 1,26,-1
 354 918 l 1,27,-1
 370 918 l 1,28,-1
 463 790 l 1,29,-1
 447 778 l 1,30,-1
 362 895 l 1,31,-1
 277 778 l 1,25,-1
EndSplineSet
EndChar

StartChar: Ugrave
Encoding: 217 217 77
Width: 751
Flags: HMW
HStem: -15 21G<263.5 485> 690 20G<85 105 105 105 646 666 666 666> 875 20G<296 329 329 329>
LayerCount: 2
Fore
SplineSet
267 24 m 0,0,1
 315 5 315 5 376.5 5 c 128,-1,2
 438 5 438 5 486 25 c 128,-1,3
 534 45 534 45 563.5 77 c 128,-1,4
 593 109 593 109 612 154.5 c 0,5,6
 646 235.921052632 646 235.921052632 646 345 c 2,7,-1
 646 710 l 1,8,-1
 666 710 l 1,9,-1
 666 345 l 2,10,11
 666 153.876923077 666 153.876923077 572.5 57.5 c 0,12,13
 502.164179104 -15 502.164179104 -15 376 -15 c 0,14,15
 311 -15 311 -15 259.5 5.5 c 128,-1,16
 208 26 208 26 176 60 c 128,-1,17
 144 94 144 94 123 141.5 c 0,18,19
 85 227.452380952 85 227.452380952 85 345 c 2,20,-1
 85 710 l 1,21,-1
 105 710 l 1,22,-1
 105 345 l 2,23,24
 105 88.125 105 88.125 267 24 c 0,0,1
378 790 m 1,25,-1
 296 895 l 1,26,-1
 329 895 l 1,27,-1
 394 802 l 1,28,-1
 378 790 l 1,25,-1
EndSplineSet
EndChar

StartChar: V
Encoding: 86 86 78
Width: 640
Flags: HMW
HStem: 0 21G<309 331 309 309> 690 20G<0 21 21 21 618 640 640 640>
LayerCount: 2
Fore
SplineSet
0 710 m 1,0,-1
 21 710 l 1,1,-1
 320 25 l 1,2,-1
 618 710 l 1,3,-1
 640 710 l 1,4,-1
 331 0 l 1,5,-1
 309 0 l 1,6,-1
 0 710 l 1,0,-1
EndSplineSet
EndChar

StartChar: V.sc
Encoding: 65560 -1 79
Width: 488
Flags: HMW
HStem: 0 21G<235 253 235 235> 499 20G<9 31 31 31 457 479 479 479>
LayerCount: 2
Fore
SplineSet
253 0 m 1,0,-1
 235 0 l 1,1,-1
 9 519 l 1,2,-1
 31 519 l 1,3,-1
 244 29 l 1,4,-1
 457 519 l 1,5,-1
 479 519 l 1,6,-1
 253 0 l 1,0,-1
EndSplineSet
EndChar

StartChar: W
Encoding: 87 87 80
Width: 1000
Flags: HMW
HStem: 0 21G<309 331 309 309 669 691 669 669> 690 20G<0 22 22 22 978 1000 1000 1000>
LayerCount: 2
Fore
SplineSet
489 414 m 1,0,-1
 362 704 l 1,1,-1
 384 704 l 1,2,-1
 499 438 l 1,3,-1
 615 704 l 1,4,-1
 637 704 l 1,5,-1
 510 414 l 1,6,-1
 680 25 l 1,7,-1
 978 710 l 1,8,-1
 1000 710 l 1,9,-1
 691 0 l 1,10,-1
 669 0 l 1,11,-1
 500 389 l 1,12,-1
 331 0 l 1,13,-1
 309 0 l 1,14,-1
 0 710 l 1,15,-1
 22 710 l 1,16,-1
 320 25 l 1,17,-1
 489 414 l 1,0,-1
EndSplineSet
Substitution2: "'salt' Stylistic Alternatives in Latin lookup 5 subtable" W.alt
Substitution2: "'aalt' Access All Alternates in Latin lookup 0 subtable" W.alt
EndChar

StartChar: W.alt
Encoding: 65561 -1 81
Width: 983
Flags: HMW
HStem: 0 21G<236 258 236 236 725 747 725 725> 690 20G<7 28 28 28 475 497 497 497 954 976 976 976>
LayerCount: 2
Fore
SplineSet
954 710 m 1,0,-1
 976 710 l 1,1,-1
 747 0 l 1,2,-1
 725 0 l 1,3,-1
 487 678 l 1,4,-1
 258 0 l 1,5,-1
 236 0 l 1,6,-1
 7 710 l 1,7,-1
 28 710 l 1,8,-1
 247 25 l 1,9,-1
 475 710 l 1,10,-1
 497 710 l 1,11,-1
 736 25 l 1,12,-1
 954 710 l 1,0,-1
EndSplineSet
EndChar

StartChar: W.sc
Encoding: 65562 -1 82
Width: 744
Flags: HMW
HStem: 0 21G<227 245 227 227 499 517 499 499> 499 20G<10 32 32 32 712 734 734 734>
LayerCount: 2
Fore
SplineSet
508 29 m 1,0,-1
 712 519 l 1,1,-1
 734 519 l 1,2,-1
 517 0 l 1,3,-1
 499 0 l 1,4,-1
 372 291 l 1,5,-1
 245 0 l 1,6,-1
 227 0 l 1,7,-1
 10 519 l 1,8,-1
 32 519 l 1,9,-1
 236 29 l 1,10,-1
 361 316 l 1,11,-1
 274 517 l 1,12,-1
 295 517 l 1,13,-1
 372 342 l 1,14,-1
 449 517 l 1,15,-1
 470 517 l 1,16,-1
 383 316 l 1,17,-1
 508 29 l 1,0,-1
EndSplineSet
EndChar

StartChar: X
Encoding: 88 88 83
Width: 613
Flags: HMW
HStem: 0 21G<15 41 15 15 573 598 573 573> 690 20G<7 33 33 33 581 606 606 606>
LayerCount: 2
Fore
SplineSet
7 710 m 1,0,-1
 33 710 l 1,1,-1
 307 366 l 1,2,-1
 581 710 l 1,3,-1
 606 710 l 1,4,-1
 319 350 l 1,5,-1
 598 0 l 1,6,-1
 573 0 l 1,7,-1
 307 334 l 1,8,-1
 41 0 l 1,9,-1
 15 0 l 1,10,-1
 294 350 l 1,11,-1
 7 710 l 1,0,-1
EndSplineSet
EndChar

StartChar: X.sc
Encoding: 65563 -1 84
Width: 482
Flags: HMW
HStem: 0 21G<22 48 22 22 434 460 434 434> 499 20G<20 46 46 46 436 462 462 462>
LayerCount: 2
Fore
SplineSet
20 519 m 1,0,-1
 46 519 l 1,1,-1
 241 275 l 1,2,-1
 436 519 l 1,3,-1
 462 519 l 1,4,-1
 254 258 l 1,5,-1
 460 0 l 1,6,-1
 434 0 l 1,7,-1
 241 242 l 1,8,-1
 48 0 l 1,9,-1
 22 0 l 1,10,-1
 228 258 l 1,11,-1
 20 519 l 1,0,-1
EndSplineSet
EndChar

StartChar: Y
Encoding: 89 89 85
Width: 583
Flags: HMW
HStem: 0 21G<281 301 281 281> 690 20G<-6 17 17 17 566 589 589 589>
LayerCount: 2
Fore
SplineSet
-6 710 m 1,0,-1
 17 710 l 1,1,-1
 291 298 l 1,2,-1
 566 710 l 1,3,-1
 589 710 l 1,4,-1
 301 275 l 1,5,-1
 301 0 l 1,6,-1
 281 0 l 1,7,-1
 281 277 l 1,8,-1
 -6 710 l 1,0,-1
EndSplineSet
EndChar

StartChar: Y.sc
Encoding: 65564 -1 86
Width: 440
Flags: HMW
HStem: 0 21G<211 231 211 211> 499 20G<1 24 24 24 409 432 432 432>
LayerCount: 2
Fore
SplineSet
1 519 m 1,0,-1
 24 519 l 1,1,-1
 221 218 l 1,2,-1
 409 519 l 1,3,-1
 432 519 l 1,4,-1
 231 195 l 1,5,-1
 231 0 l 1,6,-1
 211 0 l 1,7,-1
 211 197 l 1,8,-1
 1 519 l 1,0,-1
EndSplineSet
EndChar

StartChar: Ydieresis
Encoding: 376 376 88
Width: 583
Flags: HMW
HStem: 0 21G<281 301 281 281> 690 20G<-6 17 17 17 566 589 589 589> 865 20G<228 248 248 248 384 404 404 404>
LayerCount: 2
Fore
SplineSet
-6 710 m 1,0,-1
 17 710 l 1,1,-1
 291 298 l 1,2,-1
 566 710 l 1,3,-1
 589 710 l 1,4,-1
 301 275 l 1,5,-1
 301 0 l 1,6,-1
 281 0 l 1,7,-1
 281 277 l 1,8,-1
 -6 710 l 1,0,-1
248 802 m 1,9,-1
 228 802 l 1,10,-1
 228 885 l 1,11,-1
 248 885 l 1,12,-1
 248 802 l 1,9,-1
404 802 m 1,13,-1
 384 802 l 1,14,-1
 384 885 l 1,15,-1
 404 885 l 1,16,-1
 404 802 l 1,13,-1
EndSplineSet
EndChar

StartChar: Z
Encoding: 90 90 89
Width: 613
Flags: HMW
HStem: 0 21G<23 586 23 23> 690 20G<28 565 28 590 28 590>
LayerCount: 2
Fore
SplineSet
23 20 m 1,0,-1
 565 690 l 1,1,-1
 28 690 l 1,2,-1
 28 710 l 1,3,-1
 590 710 l 1,4,-1
 590 690 l 1,5,-1
 48 20 l 1,6,-1
 586 20 l 1,7,-1
 586 0 l 1,8,-1
 23 0 l 1,9,-1
 23 20 l 1,0,-1
EndSplineSet
EndChar

StartChar: Z.sc
Encoding: 65565 -1 90
Width: 453
Flags: HMW
HStem: 0 21G<31 418 31 31> 499 20G<36 397 36 422 36 422>
LayerCount: 2
Fore
SplineSet
418 0 m 1,0,-1
 31 0 l 1,1,-1
 31 20 l 1,2,-1
 397 499 l 1,3,-1
 36 499 l 1,4,-1
 36 519 l 1,5,-1
 422 519 l 1,6,-1
 422 499 l 1,7,-1
 57 20 l 1,8,-1
 418 20 l 1,9,-1
 418 0 l 1,0,-1
EndSplineSet
EndChar

StartChar: a
Encoding: 97 97 92
Width: 510
Flags: HMW
HStem: -10 21G<152 239.5> 507 20G<224 300.5>
LayerCount: 2
Fore
SplineSet
455 20 m 1,0,-1
 455 0 l 1,1,2
 438 1 438 1 428.5 12.5 c 128,-1,3
 419 24 419 24 419 40 c 2,4,-1
 419 88 l 1,5,6
 381 39 381 39 322 14.5 c 128,-1,7
 263 -10 263 -10 195.5 -10 c 128,-1,8
 128 -10 128 -10 79.5 36 c 128,-1,9
 31 82 31 82 31 141.5 c 128,-1,10
 31 201 31 201 67 236.5 c 0,11,12
 128.352112676 297 128.352112676 297 234.676056338 297 c 128,-1,13
 341 297 341 297 419 268 c 1,14,-1
 419 327 l 2,15,16
 419 407 419 407 372.5 457 c 128,-1,17
 326 507 326 507 249 507 c 128,-1,18
 172 507 172 507 81 443 c 1,19,-1
 69 459 l 1,20,21
 168 527 168 527 254 527 c 128,-1,22
 340 527 340 527 389.5 471 c 128,-1,23
 439 415 439 415 439 327 c 2,24,-1
 439 40 l 1,25,26
 442 20 442 20 455 20 c 1,0,-1
404 102 m 0,27,28
 419 124 419 124 419 143 c 2,29,-1
 419 246 l 1,30,31
 339 277 339 277 254 277 c 128,-1,32
 169 277 169 277 110 246 c 128,-1,33
 51 215 51 215 51 151.5 c 128,-1,34
 51 88 51 88 95 49 c 128,-1,35
 139 10 139 10 200 10 c 128,-1,36
 261 10 261 10 318 33.5 c 128,-1,37
 375 57 375 57 404 102 c 0,27,28
EndSplineSet
Substitution2: "'salt' Stylistic Alternatives in Latin lookup 5 subtable" a.alt
Substitution2: "'smcp' Lowercase to Small Capitals in Latin lookup 2 subtable" A.sc
AlternateSubs2: "'aalt' Access All Alternates in Latin lookup 1 subtable" A.sc a.alt
EndChar

StartChar: a.alt
Encoding: 65566 -1 93
Width: 590
Flags: HMW
HStem: -10 21G 0 21G<496 516 496 496> 507 20G<218 333 218 334>
LayerCount: 2
Fore
SplineSet
516 517 m 1,0,-1
 516 0 l 1,1,-1
 496 0 l 1,2,-1
 496 119 l 1,3,4
 463 61 463 61 407.5 26 c 128,-1,5
 352 -9 352 -9 286 -10 c 1,6,7
 180 -8 180 -8 109.5 72.5 c 128,-1,8
 39 153 39 153 39 260 c 0,9,10
 39 367 39 367 111.5 447 c 128,-1,11
 184 527 184 527 286 527 c 0,12,13
 354 527 354 527 408.5 491 c 128,-1,14
 463 455 463 455 496 397 c 1,15,-1
 496 517 l 1,16,-1
 516 517 l 1,0,-1
496 167 m 1,17,-1
 496 351 l 1,18,19
 470 419 470 419 413 463 c 128,-1,20
 356 507 356 507 286 507 c 0,21,22
 188 507 188 507 123.5 429.5 c 128,-1,23
 59 352 59 352 59 258 c 1,24,25
 63 157 63 157 126.5 83.5 c 128,-1,26
 190 10 190 10 286 10 c 0,27,28
 359 10 359 10 414.5 54.5 c 128,-1,29
 470 99 470 99 496 167 c 1,17,-1
EndSplineSet
EndChar

StartChar: a.alt2
Encoding: 65567 -1 94
Width: 508
Flags: HMW
HStem: -10 21G<152 239.5> 0 21G<419 439 419 419> 507 20G<224 300.5>
LayerCount: 2
Fore
SplineSet
439 0 m 1,0,-1
 419 0 l 1,1,-1
 419 88 l 1,2,3
 381 39 381 39 322 14.5 c 128,-1,4
 263 -10 263 -10 195.5 -10 c 128,-1,5
 128 -10 128 -10 79.5 36 c 128,-1,6
 31 82 31 82 31 141.5 c 128,-1,7
 31 201 31 201 67 236.5 c 0,8,9
 128.352112676 297 128.352112676 297 234.676056338 297 c 128,-1,10
 341 297 341 297 419 268 c 1,11,-1
 419 327 l 2,12,13
 419 407 419 407 372.5 457 c 128,-1,14
 326 507 326 507 249 507 c 128,-1,15
 172 507 172 507 81 443 c 1,16,-1
 69 459 l 1,17,18
 168 527 168 527 254 527 c 128,-1,19
 340 527 340 527 389.5 471 c 128,-1,20
 439 415 439 415 439 327 c 2,21,-1
 439 0 l 1,0,-1
404 102 m 0,22,23
 419 124 419 124 419 143 c 2,24,-1
 419 246 l 1,25,26
 339 277 339 277 254 277 c 128,-1,27
 169 277 169 277 110 246 c 128,-1,28
 51 215 51 215 51 151.5 c 128,-1,29
 51 88 51 88 95 49 c 128,-1,30
 139 10 139 10 200 10 c 128,-1,31
 261 10 261 10 318 33.5 c 128,-1,32
 375 57 375 57 404 102 c 0,22,23
EndSplineSet
EndChar

StartChar: acircumflex
Encoding: 226 226 96
Width: 510
Flags: HMW
HStem: -10 21G<152 239.5> 507 20G<224 300.5> 707 20G<242 258 258 258>
LayerCount: 2
Fore
SplineSet
455 20 m 1,0,-1
 455 0 l 1,1,2
 438 1 438 1 428.5 12.5 c 128,-1,3
 419 24 419 24 419 40 c 2,4,-1
 419 88 l 1,5,6
 381 39 381 39 322 14.5 c 128,-1,7
 263 -10 263 -10 195.5 -10 c 128,-1,8
 128 -10 128 -10 79.5 36 c 128,-1,9
 31 82 31 82 31 141.5 c 128,-1,10
 31 201 31 201 67 236.5 c 0,11,12
 128.352112676 297 128.352112676 297 234.676056338 297 c 128,-1,13
 341 297 341 297 419 268 c 1,14,-1
 419 327 l 2,15,16
 419 407 419 407 372.5 457 c 128,-1,17
 326 507 326 507 249 507 c 128,-1,18
 172 507 172 507 81 443 c 1,19,-1
 69 459 l 1,20,21
 168 527 168 527 254 527 c 128,-1,22
 340 527 340 527 389.5 471 c 128,-1,23
 439 415 439 415 439 327 c 2,24,-1
 439 40 l 1,25,26
 442 20 442 20 455 20 c 1,0,-1
404 102 m 0,27,28
 419 124 419 124 419 143 c 2,29,-1
 419 246 l 1,30,31
 339 277 339 277 254 277 c 128,-1,32
 169 277 169 277 110 246 c 128,-1,33
 51 215 51 215 51 151.5 c 128,-1,34
 51 88 51 88 95 49 c 128,-1,35
 139 10 139 10 200 10 c 128,-1,36
 261 10 261 10 318 33.5 c 128,-1,37
 375 57 375 57 404 102 c 0,27,28
165 587 m 1,38,-1
 149 599 l 1,39,-1
 242 727 l 1,40,-1
 258 727 l 1,41,-1
 351 599 l 1,42,-1
 335 587 l 1,43,-1
 250 704 l 1,44,-1
 165 587 l 1,38,-1
EndSplineSet
EndChar

StartChar: acute
Encoding: 180 180 97
Width: 124
Flags: HMW
HStem: 599 21G<37 37> 684 20G<85 119 119 119>
LayerCount: 2
Fore
SplineSet
119 704 m 1,0,-1
 37 599 l 1,1,-1
 21 611 l 1,2,-1
 85 704 l 1,3,-1
 119 704 l 1,0,-1
EndSplineSet
EndChar

StartChar: ae
Encoding: 230 230 99
Width: 913
Flags: HMW
HStem: -10 21G<152 241.5 596 676.5> 507 20G<223 289 588 696.5>
LayerCount: 2
Fore
SplineSet
827 119 m 1,0,-1
 846 114 l 1,1,2
 830 60 830 60 765.5 25 c 128,-1,3
 701 -10 701 -10 639 -10 c 128,-1,4
 577 -10 577 -10 521.5 23.5 c 128,-1,5
 466 57 466 57 431 111 c 1,6,7
 413 70 413 70 373 41.5 c 0,8,9
 300.719298246 -10 300.719298246 -10 198 -10 c 0,10,11
 128 -10 128 -10 79 35.5 c 128,-1,12
 30 81 30 81 30 149 c 0,13,14
 30 201 30 201 66 236.5 c 0,15,16
 127.352112676 297 127.352112676 297 244 297 c 0,17,18
 319 297 319 297 390 277 c 1,19,20
 395 335 395 335 414 378 c 1,21,-1
 413 378 l 1,22,23
 400 440 400 440 355.5 473.5 c 128,-1,24
 311 507 311 507 248 507 c 0,25,26
 210 507 210 507 157.5 487.5 c 128,-1,27
 105 468 105 468 80 443 c 1,28,-1
 68 459 l 1,29,30
 167 527 167 527 248 527 c 0,31,32
 312 527 312 527 360.5 495 c 128,-1,33
 409 463 409 463 427 405 c 1,34,35
 501 527 501 527 631 527 c 0,36,37
 741 527 741 527 813 446.5 c 128,-1,38
 885 366 885 366 885 259 c 2,39,-1
 885 248 l 1,40,-1
 410 248 l 1,41,42
 417 151 417 151 482 80.5 c 128,-1,43
 547 10 547 10 640 10 c 0,44,45
 694 10 694 10 755 42 c 128,-1,46
 816 74 816 74 827 119 c 1,0,-1
410 268 m 1,47,-1
 864 268 l 1,48,49
 856 366 856 366 791 436.5 c 128,-1,50
 726 507 726 507 631 507 c 128,-1,51
 536 507 536 507 476 436 c 128,-1,52
 416 365 416 365 410 268 c 1,47,-1
417 135 m 1,53,54
 390 191 390 191 390 256 c 1,55,56
 325 277 325 277 246.5 277 c 128,-1,57
 168 277 168 277 109 246 c 128,-1,58
 50 215 50 215 50 151.5 c 128,-1,59
 50 88 50 88 94 49 c 128,-1,60
 138 10 138 10 189 10 c 128,-1,61
 240 10 240 10 287.5 24 c 128,-1,62
 335 38 335 38 374 68 c 128,-1,63
 413 98 413 98 417 135 c 1,53,54
EndSplineSet
EndChar

StartChar: agrave
Encoding: 224 224 100
Width: 510
Flags: HMW
HStem: -10 21G<152 239.5> 507 20G<224 300.5> 684 20G<184 217 217 217>
LayerCount: 2
Fore
SplineSet
455 20 m 1,0,-1
 455 0 l 1,1,2
 438 1 438 1 428.5 12.5 c 128,-1,3
 419 24 419 24 419 40 c 2,4,-1
 419 88 l 1,5,6
 381 39 381 39 322 14.5 c 128,-1,7
 263 -10 263 -10 195.5 -10 c 128,-1,8
 128 -10 128 -10 79.5 36 c 128,-1,9
 31 82 31 82 31 141.5 c 128,-1,10
 31 201 31 201 67 236.5 c 0,11,12
 128.352112676 297 128.352112676 297 234.676056338 297 c 128,-1,13
 341 297 341 297 419 268 c 1,14,-1
 419 327 l 2,15,16
 419 407 419 407 372.5 457 c 128,-1,17
 326 507 326 507 249 507 c 128,-1,18
 172 507 172 507 81 443 c 1,19,-1
 69 459 l 1,20,21
 168 527 168 527 254 527 c 128,-1,22
 340 527 340 527 389.5 471 c 128,-1,23
 439 415 439 415 439 327 c 2,24,-1
 439 40 l 1,25,26
 442 20 442 20 455 20 c 1,0,-1
404 102 m 0,27,28
 419 124 419 124 419 143 c 2,29,-1
 419 246 l 1,30,31
 339 277 339 277 254 277 c 128,-1,32
 169 277 169 277 110 246 c 128,-1,33
 51 215 51 215 51 151.5 c 128,-1,34
 51 88 51 88 95 49 c 128,-1,35
 139 10 139 10 200 10 c 128,-1,36
 261 10 261 10 318 33.5 c 128,-1,37
 375 57 375 57 404 102 c 0,27,28
266 599 m 1,38,-1
 184 704 l 1,39,-1
 217 704 l 1,40,-1
 282 611 l 1,41,-1
 266 599 l 1,38,-1
EndSplineSet
EndChar

StartChar: ampersand
Encoding: 38 38 101
Width: 642
Flags: HMW
HStem: -10 21G<204 305.5> 0 21G<607 637 607 607> 699 20G<232.5 308>
LayerCount: 2
Fore
SplineSet
157 354 m 0,0,1
 180 370 180 370 215 392 c 1,2,3
 174 438 174 438 154 462.5 c 0,4,5
 102 526.2 102 526.2 102 576 c 0,6,7
 102 644 102 644 152.5 681.5 c 128,-1,8
 203 719 203 719 271.5 719 c 128,-1,9
 340 719 340 719 386 679.5 c 128,-1,10
 432 640 432 640 432 576 c 0,11,12
 432 545.555555556 432 545.555555556 419 526.777777778 c 128,-1,13
 406 508 406 508 398 497 c 128,-1,14
 390 486 390 486 374.5 473.5 c 128,-1,15
 359 461 359 461 349.5 453.5 c 128,-1,16
 340 446 340 446 321.5 434 c 128,-1,17
 303 422 303 422 295.5 417.5 c 128,-1,18
 288 413 288 413 269 402 c 128,-1,19
 250 391 250 391 247 389 c 1,20,-1
 484 152 l 1,21,22
 564 255 564 255 564 335 c 1,23,-1
 584 335 l 1,24,25
 579 239 579 239 498 137 c 1,26,-1
 637 0 l 1,27,-1
 607 0 l 1,28,-1
 485 122 l 1,29,30
 367 -10 367 -10 263 -10 c 0,31,32
 172 -10 172 -10 108.5 45 c 128,-1,33
 45 100 45 100 45 188.043478261 c 128,-1,34
 45 276.086956522 45 276.086956522 157 354 c 0,0,1
65 186 m 1,35,36
 67 105 67 105 124.5 57.5 c 128,-1,37
 182 10 182 10 263 10 c 0,38,39
 361 10 361 10 471 136 c 1,40,-1
 230 378 l 1,41,42
 132.817005545 318.436229205 132.817005545 318.436229205 101.5 279 c 0,43,44
 65 233.037037037 65 233.037037037 65 186 c 1,35,36
122 576 m 1,45,46
 125 544 125 544 145.5 509 c 128,-1,47
 166 474 166 474 184 453.5 c 128,-1,48
 202 433 202 433 232 403 c 1,49,50
 237 406 237 406 271.5 426.5 c 128,-1,51
 306 447 306 447 322.5 458.5 c 128,-1,52
 339 470 339 470 364 491 c 0,53,54
 412 531.32 412 531.32 412 576 c 0,55,56
 412 634 412 634 371 666.5 c 128,-1,57
 330 699 330 699 269.5 699 c 128,-1,58
 209 699 209 699 165.5 666.5 c 128,-1,59
 122 634 122 634 122 576 c 1,45,46
EndSplineSet
EndChar

StartChar: asciicircum
Encoding: 94 94 103
Width: 470
Flags: HMW
HStem: 303 21G<28 49 28 28 418 418 418 441> 690 20G<226 244 244 244>
LayerCount: 2
Fore
SplineSet
49 303 m 1,0,-1
 28 303 l 1,1,-1
 226 710 l 1,2,-1
 244 710 l 1,3,-1
 441 303 l 1,4,-1
 418 303 l 1,5,-1
 235 681 l 1,6,-1
 49 303 l 1,0,-1
EndSplineSet
EndChar

StartChar: asciitilde
Encoding: 126 126 104
Width: 447
Flags: HMW
HStem: 251 81<62 173.5>
LayerCount: 2
Fore
SplineSet
297 251 m 0,0,1
 260 251 260 251 212 281.5 c 128,-1,2
 164 312 164 312 146 312 c 128,-1,3
 128 312 128 312 111.5 297 c 128,-1,4
 95 282 95 282 88.5 268.5 c 128,-1,5
 82 255 82 255 82 252 c 1,6,-1
 62 251 l 1,7,-1
 62 252 l 2,8,9
 62 257 62 257 69.5 274 c 128,-1,10
 77 291 77 291 98.5 311.5 c 128,-1,11
 120 332 120 332 146.5 332 c 128,-1,12
 173 332 173 332 221 301.5 c 128,-1,13
 269 271 269 271 293 271 c 128,-1,14
 317 271 317 271 334 284 c 128,-1,15
 351 297 351 297 358 309 c 128,-1,16
 365 321 365 321 365 325 c 1,17,-1
 385 324 l 1,18,19
 369.8 278.4 369.8 278.4 331 259 c 0,20,21
 315 251 315 251 297 251 c 0,0,1
EndSplineSet
EndChar

StartChar: asterisk
Encoding: 42 42 105
Width: 308
Flags: HMW
HStem: 552 21G<113 113 195 195> 690 20G<144 164 164 164>
LayerCount: 2
Fore
SplineSet
231 662 m 1,0,-1
 237 643 l 1,1,-1
 170 621 l 1,2,-1
 212 564 l 1,3,-1
 195 552 l 1,4,-1
 154 609 l 1,5,-1
 113 552 l 1,6,-1
 97 564 l 1,7,-1
 138 621 l 1,8,-1
 71 643 l 1,9,-1
 77 662 l 1,10,-1
 144 640 l 1,11,-1
 144 710 l 1,12,-1
 164 710 l 1,13,-1
 164 640 l 1,14,-1
 231 662 l 1,0,-1
EndSplineSet
EndChar

StartChar: at
Encoding: 64 64 106
Width: 827
Flags: HMW
HStem: -146 150 432 171<406.5 483.5>
VStem: 56 211<124.5 143 105.5 339> 564 211<151.5 250 242 250 222 297>
LayerCount: 2
Fore
SplineSet
584 255 m 1,0,-1
 580 98 l 1,1,2
 580 53 580 53 589.5 28.5 c 128,-1,3
 599 4 599 4 632.5 4 c 128,-1,4
 666 4 666 4 692 25.5 c 128,-1,5
 718 47 718 47 731 83 c 0,6,7
 755 149.461538462 755 149.461538462 755 230 c 0,8,9
 755 372 755 372 656 477.5 c 128,-1,10
 557 583 557 583 419.5 583 c 128,-1,11
 282 583 282 583 179 481.5 c 128,-1,12
 76 380 76 380 76 231 c 128,-1,13
 76 82 76 82 176.5 -22 c 128,-1,14
 277 -126 277 -126 418 -126 c 0,15,16
 500 -126 500 -126 570 -88 c 1,17,-1
 580 -106 l 1,18,19
 503 -146 503 -146 418 -146 c 0,20,21
 269 -146 269 -146 162.5 -36.5 c 128,-1,22
 56 73 56 73 56 229 c 0,23,24
 56 336 56 336 107.5 422.5 c 128,-1,25
 159 509 159 509 242 556 c 128,-1,26
 325 603 325 603 419 603 c 0,27,28
 534 603 534 603 627.5 530.5 c 128,-1,29
 721 458 721 458 757 347 c 0,30,31
 775 290 775 290 775 230 c 0,32,33
 775 -16 775 -16 630 -16 c 0,34,35
 590 -16 590 -16 576 11.5 c 128,-1,36
 562 39 562 39 560 84 c 1,37,38
 495 12 495 12 386 12 c 0,39,40
 331 12 331 12 289 46 c 128,-1,41
 247 80 247 80 247 142 c 128,-1,42
 247 204 247 204 300 234.5 c 128,-1,43
 353 265 353 265 425.5 265 c 128,-1,44
 498 265 498 265 564 242 c 1,45,46
 564 333 564 333 534.5 382.5 c 128,-1,47
 505 432 505 432 435 432 c 128,-1,48
 365 432 365 432 291 380 c 1,49,-1
 279 396 l 1,50,51
 361 452 361 452 431 452 c 0,52,53
 584 452 584 452 584 255 c 1,0,-1
564 174 m 2,54,-1
 563 221 l 1,55,-1
 515 233 l 2,56,57
 467 245 467 245 413 245 c 128,-1,58
 359 245 359 245 314.5 220.5 c 128,-1,59
 270 196 270 196 267 143 c 1,60,61
 267 91 267 91 303.5 61.5 c 128,-1,62
 340 32 340 32 392 32 c 128,-1,63
 444 32 444 32 489.5 55 c 128,-1,64
 535 78 535 78 549.5 106 c 128,-1,65
 564 134 564 134 564 174 c 2,54,-1
EndSplineSet
EndChar

StartChar: atilde
Encoding: 227 227 107
Width: 510
Flags: HMW
HStem: -10 21G<152 239.5> 507 20G<224 300.5> 507 114<224 350.5> 601 81<133 224.5 167.5 360.5>
LayerCount: 2
Fore
SplineSet
455 20 m 1,0,-1
 455 0 l 1,1,2
 438 1 438 1 428.5 12.5 c 128,-1,3
 419 24 419 24 419 40 c 2,4,-1
 419 88 l 1,5,6
 381 39 381 39 322 14.5 c 128,-1,7
 263 -10 263 -10 195.5 -10 c 128,-1,8
 128 -10 128 -10 79.5 36 c 128,-1,9
 31 82 31 82 31 141.5 c 128,-1,10
 31 201 31 201 67 236.5 c 0,11,12
 128.352112676 297 128.352112676 297 234.676056338 297 c 128,-1,13
 341 297 341 297 419 268 c 1,14,-1
 419 327 l 2,15,16
 419 407 419 407 372.5 457 c 128,-1,17
 326 507 326 507 249 507 c 128,-1,18
 172 507 172 507 81 443 c 1,19,-1
 69 459 l 1,20,21
 168 527 168 527 254 527 c 128,-1,22
 340 527 340 527 389.5 471 c 128,-1,23
 439 415 439 415 439 327 c 2,24,-1
 439 40 l 1,25,26
 442 20 442 20 455 20 c 1,0,-1
404 102 m 0,27,28
 419 124 419 124 419 143 c 2,29,-1
 419 246 l 1,30,31
 339 277 339 277 254 277 c 128,-1,32
 169 277 169 277 110 246 c 128,-1,33
 51 215 51 215 51 151.5 c 128,-1,34
 51 88 51 88 95 49 c 128,-1,35
 139 10 139 10 200 10 c 128,-1,36
 261 10 261 10 318 33.5 c 128,-1,37
 375 57 375 57 404 102 c 0,27,28
360 609 m 0,38,39
 346 601 346 601 323 601 c 128,-1,40
 300 601 300 601 276 616.5 c 128,-1,41
 252 632 252 632 233.5 647 c 128,-1,42
 215 662 215 662 201 662 c 128,-1,43
 187 662 187 662 177.5 655.5 c 128,-1,44
 168 649 168 649 163.5 641.5 c 128,-1,45
 159 634 159 634 156.5 624 c 0,46,47
 153 610 153 610 153 602 c 1,48,-1
 133 601 l 1,49,-1
 133 602 l 2,50,51
 133 651.148148148 133 651.148148148 168.5 673.5 c 0,52,53
 182 682 182 682 203 682 c 128,-1,54
 224 682 224 682 262 651.5 c 128,-1,55
 300 621 300 621 324 621 c 128,-1,56
 348 621 348 621 360 634.5 c 0,57,58
 376 652.5 376 652.5 376 675 c 1,59,-1
 396 674 l 1,60,61
 396 629.571428571 396 629.571428571 360 609 c 0,38,39
EndSplineSet
EndChar

StartChar: b
Encoding: 98 98 108
Width: 586
Flags: HMW
HStem: -10 21G<256 367.5> 0 21G<74 94 74 74> 507 20G<260.5 371.5> 710 20G<74 94 94 94>
LayerCount: 2
Fore
SplineSet
547 258 m 1,0,1
 544 150 544 150 472 70 c 128,-1,2
 400 -10 400 -10 297 -10 c 0,3,4
 237 -10 237 -10 181.5 23.5 c 128,-1,5
 126 57 126 57 94 108 c 1,6,-1
 94 0 l 1,7,-1
 74 0 l 1,8,-1
 74 730 l 1,9,-1
 94 730 l 1,10,-1
 94 398 l 1,11,12
 185 527 185 527 306 527 c 0,13,14
 414 527 414 527 480.5 444.5 c 128,-1,15
 547 362 547 362 547 258 c 1,0,1
460.5 86 m 128,-1,17
 527 162 527 162 527 259.5 c 128,-1,18
 527 357 527 357 464 432 c 128,-1,19
 401 507 401 507 306 507 c 0,20,21
 236 507 236 507 181 464 c 128,-1,22
 126 421 126 421 94 356 c 1,23,-1
 94 169 l 2,24,25
 94 109 94 109 163 59.5 c 128,-1,26
 232 10 232 10 297 10 c 0,27,16
 394 10 394 10 460.5 86 c 128,-1,17
EndSplineSet
Substitution2: "'smcp' Lowercase to Small Capitals in Latin lookup 2 subtable" B.sc
Substitution2: "'aalt' Access All Alternates in Latin lookup 0 subtable" B.sc
EndChar

StartChar: backslash
Encoding: 92 92 109
Width: 526
Flags: HMW
HStem: 0 21G<467 492 467 467> 690 20G<31 57 57 57>
LayerCount: 2
Fore
SplineSet
31 710 m 1,0,-1
 57 710 l 1,1,-1
 492 0 l 1,2,-1
 467 0 l 1,3,-1
 31 710 l 1,0,-1
EndSplineSet
EndChar

StartChar: bar
Encoding: 124 124 110
Width: 172
Flags: HMW
HStem: -130 21G<76 96 76 76> 755 20G<76 96 96 96>
LayerCount: 2
Fore
SplineSet
96 -130 m 1,0,-1
 76 -130 l 1,1,-1
 76 775 l 1,2,-1
 96 775 l 1,3,-1
 96 -130 l 1,0,-1
EndSplineSet
EndChar

StartChar: braceleft
Encoding: 123 123 111
Width: 192
Flags: HMW
HStem: -31 21G<101 101 101 103 101 155> 720 20G<103 155 103 155 102 155>
LayerCount: 2
Fore
SplineSet
102 720 m 1,0,1
 100 716 100 716 100 710 c 2,2,-1
 100 416 l 2,3,4
 100 379 100 379 79 360 c 1,5,6
 100 341 100 341 100 304 c 2,7,-1
 100 -1 l 2,8,9
 100 -4 100 -4 101 -10 c 1,10,-1
 155 -11 l 1,11,-1
 155 -31 l 1,12,-1
 103 -31 l 2,13,14
 80 -31 80 -31 80 -1 c 2,15,-1
 80 304 l 2,16,17
 80 347 80 347 50 351 c 1,18,-1
 50 371 l 1,19,20
 80 371 80 371 80 416 c 2,21,-1
 80 710 l 2,22,23
 80 726 80 726 87.5 733 c 128,-1,24
 95 740 95 740 103 740 c 2,25,-1
 155 740 l 1,26,-1
 155 720 l 1,27,-1
 102 720 l 1,0,1
EndSplineSet
EndChar

StartChar: braceright
Encoding: 125 125 112
Width: 191
Flags: HMW
HStem: -31 21G<37 91> 720 20G<37 89 89 90 37 89>
LayerCount: 2
Fore
SplineSet
92 710 m 2,0,1
 92 716 92 716 90 720 c 1,2,-1
 37 720 l 1,3,-1
 37 740 l 1,4,-1
 89 740 l 2,5,6
 99.1428571429 740 99.1428571429 740 105.571428571 731 c 128,-1,7
 112 722 112 722 112 710 c 2,8,-1
 112 416 l 2,9,10
 112 371 112 371 142 371 c 1,11,-1
 142 351 l 1,12,13
 112 347 112 347 112 304 c 2,14,-1
 112 -1 l 2,15,16
 112 -31 112 -31 89 -31 c 2,17,-1
 37 -31 l 1,18,-1
 37 -11 l 1,19,-1
 91 -10 l 1,20,21
 92 -4 92 -4 92 -1 c 2,22,-1
 92 304 l 2,23,24
 92 342 92 342 113 360 c 1,25,26
 92 379 92 379 92 416 c 2,27,-1
 92 710 l 2,0,1
EndSplineSet
EndChar

StartChar: bracketleft
Encoding: 91 91 113
Width: 187
Flags: HMW
HStem: -40 21G<79 149 79 79> 720 20G<99 149 99 99>
LayerCount: 2
Fore
SplineSet
149 -40 m 1,0,-1
 79 -40 l 1,1,-1
 79 740 l 1,2,-1
 149 740 l 1,3,-1
 149 720 l 1,4,-1
 99 720 l 1,5,-1
 99 -20 l 1,6,-1
 149 -20 l 1,7,-1
 149 -40 l 1,0,-1
EndSplineSet
EndChar

StartChar: bracketright
Encoding: 93 93 114
Width: 187
Flags: HMW
HStem: -40 21G<38 108 38 38> 720 20G<38 88 38 108>
LayerCount: 2
Fore
SplineSet
108 -40 m 1,0,-1
 38 -40 l 1,1,-1
 38 -20 l 1,2,-1
 88 -20 l 1,3,-1
 88 720 l 1,4,-1
 38 720 l 1,5,-1
 38 740 l 1,6,-1
 108 740 l 1,7,-1
 108 -40 l 1,0,-1
EndSplineSet
EndChar

StartChar: breve
Encoding: 728 728 115
Width: 243
Flags: HMW
HStem: 586 21G<103 141> 635 20G<53 73 73 73 171 191 191 191>
LayerCount: 2
Fore
SplineSet
122 606 m 128,-1,1
 142 606 142 606 156.5 620.5 c 128,-1,2
 171 635 171 635 171 655 c 1,3,-1
 191 655 l 1,4,5
 191 626 191 626 170.5 606 c 128,-1,6
 150 586 150 586 122 586 c 128,-1,7
 94 586 94 586 73.5 606 c 128,-1,8
 53 626 53 626 53 655 c 1,9,-1
 73 655 l 1,10,11
 73 635 73 635 87.5 620.5 c 128,-1,0
 102 606 102 606 122 606 c 128,-1,1
EndSplineSet
EndChar

StartChar: bullet
Encoding: 8226 8226 116
Width: 398
Flags: HMW
HStem: 239 21G<159.5 239> 507 20G<159.5 239>
LayerCount: 2
Fore
SplineSet
301 484.5 m 128,-1,1
 343 442 343 442 343 382.5 c 128,-1,2
 343 323 343 323 301 281 c 128,-1,3
 259 239 259 239 199.5 239 c 128,-1,4
 140 239 140 239 97.5 281 c 128,-1,5
 55 323 55 323 55 382.5 c 128,-1,6
 55 442 55 442 97.5 484.5 c 128,-1,7
 140 527 140 527 199.5 527 c 128,-1,0
 259 527 259 527 301 484.5 c 128,-1,1
EndSplineSet
EndChar

StartChar: c
Encoding: 99 99 117
Width: 525
Flags: HMW
HStem: -10 21G<217.5 328> 507 20G<211 320>
LayerCount: 2
Fore
SplineSet
112.5 72 m 128,-1,1
 40 154 40 154 40 260 c 128,-1,2
 40 366 40 366 108.5 446.5 c 128,-1,3
 177 527 177 527 281 527 c 0,4,5
 426 527 426 527 484 411 c 1,6,-1
 465 404 l 1,7,8
 409 507 409 507 281 507 c 0,9,10
 182 507 182 507 121 430.5 c 128,-1,11
 60 354 60 354 60 256.5 c 128,-1,12
 60 159 60 159 127.5 84.5 c 128,-1,13
 195 10 195 10 290 10 c 0,14,15
 344 10 344 10 402 41.5 c 128,-1,16
 460 73 460 73 472 119 c 1,17,-1
 492 113 l 1,18,19
 473 56 473 56 413 23 c 128,-1,20
 353 -10 353 -10 290 -10 c 0,21,0
 185 -10 185 -10 112.5 72 c 128,-1,1
EndSplineSet
Substitution2: "'smcp' Lowercase to Small Capitals in Latin lookup 2 subtable" C.sc
Substitution2: "'aalt' Access All Alternates in Latin lookup 0 subtable" C.sc
EndChar

StartChar: caron
Encoding: 711 711 118
Width: 266
Flags: HMW
HStem: 587 21G<125 141 125 125> 707 20G<48 48 218 218>
LayerCount: 2
Fore
SplineSet
32 715 m 1,0,-1
 48 727 l 1,1,-1
 133 610 l 1,2,-1
 218 727 l 1,3,-1
 234 715 l 1,4,-1
 141 587 l 1,5,-1
 125 587 l 1,6,-1
 32 715 l 1,0,-1
EndSplineSet
EndChar

StartChar: cedilla
Encoding: 184 184 120
Width: 204
Flags: HMW
HStem: -157 21G<106 117> -20 20G<64 86 86 86>
LayerCount: 2
Fore
SplineSet
106 -157 m 1,0,-1
 106 -137 l 1,1,2
 132 -134 132 -134 145 -112 c 1,3,4
 148.0625 -103.25 148.0625 -103.25 148.0625 -94.34375 c 0,5,6
 148.0625 -85.4375 148.0625 -85.4375 143 -77 c 0,7,8
 134 -60 134 -60 112 -60 c 0,9,10
 90 -60 90 -60 74.5 -65 c 0,11,12
 59 -70 59 -70 15 -87 c 1,13,-1
 64 0 l 1,14,-1
 86 0 l 1,15,-1
 60 -48 l 1,16,17
 88 -40 88 -40 114 -41 c 0,18,19
 140 -42 140 -42 155 -59 c 1,20,21
 167.6 -77.6 167.6 -77.6 167.6 -93.1 c 0,22,23
 167.6 -108.6 167.6 -108.6 161.3 -122.8 c 0,24,25
 155 -137 155 -137 139 -147 c 128,-1,26
 123 -157 123 -157 106 -157 c 1,0,-1
EndSplineSet
EndChar

StartChar: cent
Encoding: 162 162 121
Width: 556
Flags: HMW
HStem: -120 21G<284 304 284 284> -10 21G<284 342> 625 20G<284 304 304 304>
VStem: 54 250<194.5 325.5>
LayerCount: 2
Fore
SplineSet
304 -120 m 1,0,-1
 284 -120 l 1,1,-1
 284 -9 l 1,2,3
 186 -1 186 -1 120 79 c 128,-1,4
 54 159 54 159 54 260.5 c 0,5,6
 54 362 54 362 119.5 442 c 128,-1,7
 185 522 185 522 284 527 c 1,8,-1
 284 645 l 1,9,-1
 304 645 l 1,10,-1
 304 527 l 1,11,12
 442 523 442 523 498 411 c 1,13,-1
 479 404 l 1,14,15
 425 502 425 502 304 507 c 1,16,-1
 304 10 l 1,17,18
 358 10 358 10 416 41.5 c 128,-1,19
 474 73 474 73 486 119 c 1,20,-1
 506 113 l 1,21,22
 487 56 487 56 427 23 c 128,-1,23
 367 -10 367 -10 304 -10 c 1,24,-1
 304 -120 l 1,0,-1
74 258 m 128,-1,26
 74 165 74 165 135 92 c 128,-1,27
 196 19 196 19 284 11 c 1,28,-1
 284 507 l 1,29,30
 189 502 189 502 131.5 426.5 c 128,-1,25
 74 351 74 351 74 258 c 128,-1,26
EndSplineSet
EndChar

StartChar: circumflex
Encoding: 710 710 122
Width: 271
Flags: HMW
HStem: 587 21G<50 50 220 220> 707 20G<127 143 143 143>
LayerCount: 2
Fore
SplineSet
50 587 m 1,0,-1
 34 599 l 1,1,-1
 127 727 l 1,2,-1
 143 727 l 1,3,-1
 236 599 l 1,4,-1
 220 587 l 1,5,-1
 135 704 l 1,6,-1
 50 587 l 1,0,-1
EndSplineSet
EndChar

StartChar: colon
Encoding: 58 58 123
Width: 144
Flags: HMW
HStem: 0 21G<62 82 62 62> 497 20G<62 82 82 82>
LayerCount: 2
Fore
SplineSet
82 453 m 1,0,-1
 62 453 l 1,1,-1
 62 517 l 1,2,-1
 82 517 l 1,3,-1
 82 453 l 1,0,-1
82 0 m 1,4,-1
 62 0 l 1,5,-1
 62 64 l 1,6,-1
 82 64 l 1,7,-1
 82 0 l 1,4,-1
EndSplineSet
EndChar

StartChar: comma
Encoding: 44 44 124
Width: 161
Flags: HMW
HStem: -33 21G<60 63.5> -13 21G<60 62> 44 20G<73 93 93 93>
LayerCount: 2
Fore
SplineSet
60 -13 m 1,0,1
 73 -13 73 -13 73 0 c 2,2,-1
 73 64 l 1,3,-1
 93 64 l 1,4,-1
 93 0 l 2,5,6
 93 -19 93 -19 78 -29 c 1,7,8
 68 -33 68 -33 60 -33 c 1,9,-1
 60 -13 l 1,0,1
EndSplineSet
EndChar

StartChar: copyright
Encoding: 169 169 125
Width: 830
Flags: HMW
HStem: -7 154<375.5 449.5 375.5 518.5> 566 149<347.5 467>
VStem: 54 169<289 404.5 289 458>
LayerCount: 2
Fore
SplineSet
565 480 m 1,0,1
 522 566 522 566 410 566 c 0,2,3
 323 566 323 566 273 501.5 c 128,-1,4
 223 437 223 437 223 349.5 c 128,-1,5
 223 262 223 262 285 204.5 c 128,-1,6
 347 147 347 147 418 147 c 0,7,8
 462 147 462 147 500.5 166.5 c 128,-1,9
 539 186 539 186 555 206.5 c 128,-1,10
 571 227 571 227 575 238 c 1,11,-1
 594 233 l 1,12,13
 584 199 584 199 534.5 163 c 128,-1,14
 485 127 485 127 411.5 127 c 128,-1,15
 338 127 338 127 270.5 190.5 c 128,-1,16
 203 254 203 254 203 357 c 1,17,18
 206 446 206 446 259.5 516 c 128,-1,19
 313 586 313 586 410 586 c 0,20,21
 453.909090909 586 453.909090909 586 478.454545455 577 c 128,-1,22
 503 568 503 568 516.5 561 c 128,-1,23
 530 554 530 554 539.5 545.5 c 128,-1,24
 549 537 549 537 556.5 529 c 128,-1,25
 564 521 564 521 569 513.5 c 0,26,27
 576 503 576 503 584 487 c 1,28,-1
 565 480 l 1,0,1
415 715 m 128,-1,30
 570 715 570 715 673 612.5 c 128,-1,31
 776 510 776 510 776 355 c 128,-1,32
 776 200 776 200 673 96.5 c 128,-1,33
 570 -7 570 -7 415 -7 c 128,-1,34
 260 -7 260 -7 157 96.5 c 128,-1,35
 54 200 54 200 54 355 c 128,-1,36
 54 510 54 510 157 612.5 c 128,-1,29
 260 715 260 715 415 715 c 128,-1,30
171 110.5 m 128,-1,38
 268 13 268 13 414.5 13 c 128,-1,39
 561 13 561 13 658.5 108 c 128,-1,40
 756 203 756 203 756 352 c 128,-1,41
 756 501 756 501 659 598 c 128,-1,42
 562 695 562 695 415.5 695 c 128,-1,43
 269 695 269 695 171.5 598 c 128,-1,44
 74 501 74 501 74 354.5 c 128,-1,37
 74 208 74 208 171 110.5 c 128,-1,38
EndSplineSet
EndChar

StartChar: d
Encoding: 100 100 126
Width: 587
Flags: HMW
HStem: -10 21G<216.5 328.5> 507 20G<212.5 322> 710 20G<492 512 512 512>
LayerCount: 2
Fore
SplineSet
528 20 m 1,0,-1
 528 0 l 1,1,2
 511 1 511 1 501.5 12.5 c 128,-1,3
 492 24 492 24 492 40 c 2,4,-1
 492 108 l 1,5,6
 459 56 459 56 403 23 c 128,-1,7
 347 -10 347 -10 289 -10 c 0,8,9
 184 -10 184 -10 111.5 72 c 128,-1,10
 39 154 39 154 39 260.5 c 0,11,12
 39 367 39 367 108.5 447 c 128,-1,13
 178 527 178 527 280 527 c 0,14,15
 402 527 402 527 492 398 c 1,16,-1
 492 730 l 1,17,-1
 512 730 l 1,18,-1
 512 40 l 1,19,20
 514 20 514 20 528 20 c 1,0,-1
492 169 m 1,21,-1
 492 356 l 1,22,23
 471 418 471 418 407.5 462.5 c 128,-1,24
 344 507 344 507 280 507 c 0,25,26
 183 507 183 507 121 431.5 c 128,-1,27
 59 356 59 356 59 257.5 c 0,28,29
 59 159 59 159 126.5 84.5 c 128,-1,30
 194 10 194 10 289 10 c 0,31,32
 330 10 330 10 376.5 31.5 c 128,-1,33
 423 53 423 53 457 91 c 128,-1,34
 491 129 491 129 492 169 c 1,21,-1
EndSplineSet
Substitution2: "'salt' Stylistic Alternatives in Latin lookup 5 subtable" d.alt
Substitution2: "'smcp' Lowercase to Small Capitals in Latin lookup 2 subtable" D.sc
AlternateSubs2: "'aalt' Access All Alternates in Latin lookup 1 subtable" D.sc d.alt
EndChar

StartChar: d.alt
Encoding: 65568 -1 127
Width: 586
Flags: HMW
HStem: -10 21G<216.5 328.5> 0 21G<492 512 492 492> 507 20G<212.5 322> 710 20G<492 512 512 512>
LayerCount: 2
Fore
SplineSet
512 0 m 1,0,-1
 492 0 l 1,1,-1
 492 108 l 1,2,3
 459 56 459 56 403 23 c 128,-1,4
 347 -10 347 -10 289 -10 c 0,5,6
 184 -10 184 -10 111.5 72 c 128,-1,7
 39 154 39 154 39 260.5 c 0,8,9
 39 367 39 367 108.5 447 c 128,-1,10
 178 527 178 527 280 527 c 0,11,12
 402 527 402 527 492 398 c 1,13,-1
 492 730 l 1,14,-1
 512 730 l 1,15,-1
 512 0 l 1,0,-1
492 169 m 1,16,-1
 492 356 l 1,17,18
 471 418 471 418 407.5 462.5 c 128,-1,19
 344 507 344 507 280 507 c 0,20,21
 183 507 183 507 121 431.5 c 128,-1,22
 59 356 59 356 59 257.5 c 0,23,24
 59 159 59 159 126.5 84.5 c 128,-1,25
 194 10 194 10 289 10 c 0,26,27
 330 10 330 10 376.5 31.5 c 128,-1,28
 423 53 423 53 457 91 c 128,-1,29
 491 129 491 129 492 169 c 1,16,-1
EndSplineSet
EndChar

StartChar: dagger
Encoding: 8224 8224 128
Width: 373
Flags: HMW
HStem: -130 21G<177 197 177 177> 755 20G<177 197 197 197>
LayerCount: 2
Fore
SplineSet
197 -130 m 1,0,-1
 177 -130 l 1,1,-1
 177 261 l 1,2,-1
 45 261 l 1,3,-1
 45 281 l 1,4,-1
 177 281 l 1,5,-1
 177 775 l 1,6,-1
 197 775 l 1,7,-1
 197 281 l 1,8,-1
 328 281 l 1,9,-1
 328 261 l 1,10,-1
 197 261 l 1,11,-1
 197 -130 l 1,0,-1
EndSplineSet
EndChar

StartChar: daggerdbl
Encoding: 8225 8225 129
Width: 387
Flags: HMW
HStem: -130 21G<184 204 184 184> 201 150<52 184 52 184 52 204 204 335> 755 20G<184 204 204 204>
LayerCount: 2
Fore
SplineSet
204 -130 m 1,0,-1
 184 -130 l 1,1,-1
 184 201 l 1,2,-1
 52 201 l 1,3,-1
 52 221 l 1,4,-1
 184 221 l 1,5,-1
 184 331 l 1,6,-1
 52 331 l 1,7,-1
 52 351 l 1,8,-1
 184 351 l 1,9,-1
 184 775 l 1,10,-1
 204 775 l 1,11,-1
 204 351 l 1,12,-1
 335 351 l 1,13,-1
 335 331 l 1,14,-1
 204 331 l 1,15,-1
 204 221 l 1,16,-1
 335 221 l 1,17,-1
 335 201 l 1,18,-1
 204 201 l 1,19,-1
 204 -130 l 1,0,-1
EndSplineSet
EndChar

StartChar: degree
Encoding: 176 176 130
Width: 236
Flags: HMW
HStem: 586 138<99 137>
VStem: 49 138<636 674>
LayerCount: 2
Fore
SplineSet
49 655 m 128,-1,1
 49 684 49 684 69.5 704 c 128,-1,2
 90 724 90 724 118 724 c 128,-1,3
 146 724 146 724 166.5 704 c 128,-1,4
 187 684 187 684 187 655 c 128,-1,5
 187 626 187 626 166.5 606 c 128,-1,6
 146 586 146 586 118 586 c 128,-1,7
 90 586 90 586 69.5 606 c 128,-1,0
 49 626 49 626 49 655 c 128,-1,1
83 690 m 128,-1,9
 69 676 69 676 69 654.5 c 0,10,11
 69 633 69 633 83 621 c 1,12,13
 98 606 98 606 118 606 c 128,-1,14
 138 606 138 606 152.5 620.5 c 0,15,16
 167 635 167 635 167 654.5 c 0,17,18
 167 674 167 674 153 690 c 1,19,20
 139 704 139 704 118 704 c 128,-1,8
 97 704 97 704 83 690 c 128,-1,9
EndSplineSet
EndChar

StartChar: dieresis
Encoding: 168 168 131
Width: 336
Flags: HMW
HStem: 611 21G<81 101 81 81 237 237 237 257> 674 20G<81 101 101 101 237 257 257 257>
LayerCount: 2
Fore
SplineSet
101 611 m 1,0,-1
 81 611 l 1,1,-1
 81 694 l 1,2,-1
 101 694 l 1,3,-1
 101 611 l 1,0,-1
257 611 m 1,4,-1
 237 611 l 1,5,-1
 237 694 l 1,6,-1
 257 694 l 1,7,-1
 257 611 l 1,4,-1
EndSplineSet
EndChar

StartChar: dollar
Encoding: 36 36 132
Width: 624
Flags: HMW
HStem: -129 21G<299 319 299 299> 795 20G<299 319 319 319>
LayerCount: 2
Fore
SplineSet
319 -129 m 1,0,-1
 299 -129 l 1,1,-1
 299 -4 l 1,2,3
 162 -3 162 -3 52 105 c 1,4,-1
 67 118 l 1,5,6
 182 21 182 21 299 15 c 1,7,-1
 299 345 l 1,8,9
 194 348 194 348 128 391.5 c 128,-1,10
 62 435 62 435 62 529.5 c 128,-1,11
 62 624 62 624 132 667.5 c 128,-1,12
 202 711 202 711 299 715 c 1,13,-1
 299 815 l 1,14,-1
 319 815 l 1,15,-1
 319 715 l 1,16,17
 466 710 466 710 529 616 c 1,18,-1
 510 608 l 1,19,20
 456 689 456 689 319 695 c 1,21,-1
 319 365 l 1,22,23
 462.436528497 358.169689119 462.436528497 358.169689119 523.5 307.5 c 0,24,25
 578 262.276595745 578 262.276595745 578 183 c 0,26,27
 578 133 578 133 553.5 95.5 c 128,-1,28
 529 58 529 58 489.5 37 c 0,29,30
 414.491441193 -2.8779679735 414.491441193 -2.8779679735 319 -5 c 1,31,-1
 319 -129 l 1,0,-1
536.5 105.5 m 128,-1,33
 558 139 558 139 558 184.5 c 128,-1,34
 558 230 558 230 536 263.5 c 128,-1,35
 514 297 514 297 476.5 313.5 c 0,36,37
 409.588235294 342.941176471 409.588235294 342.941176471 319 345 c 1,38,-1
 319 15 l 1,39,40
 408.113890718 17.0724160632 408.113890718 17.0724160632 479 53.5 c 0,41,32
 515 72 515 72 536.5 105.5 c 128,-1,33
82 532 m 1,42,43
 89 439 89 439 146 403 c 128,-1,44
 203 367 203 367 299 365 c 1,45,-1
 299 695 l 1,46,47
 239 693 239 693 193.5 678 c 128,-1,48
 148 663 148 663 115.5 626 c 128,-1,49
 83 589 83 589 82 532 c 1,42,43
EndSplineSet
EndChar

StartChar: dotaccent
Encoding: 729 729 133
Width: 168
Flags: HMW
HStem: 646 21G<81 101 81 81> 690 20G<81 101 101 101>
LayerCount: 2
Fore
SplineSet
101 646 m 1,0,-1
 81 646 l 1,1,-1
 81 710 l 1,2,-1
 101 710 l 1,3,-1
 101 646 l 1,0,-1
EndSplineSet
EndChar

StartChar: dotlessi
Encoding: 305 305 134
Width: 176
Flags: HMW
HStem: 0 21G<78 98 78 78> 497 20G<78 98 98 98>
LayerCount: 2
Fore
SplineSet
98 0 m 1,0,-1
 78 0 l 1,1,-1
 78 517 l 1,2,-1
 98 517 l 1,3,-1
 98 0 l 1,0,-1
EndSplineSet
EndChar

StartChar: e
Encoding: 101 101 135
Width: 562
Flags: HMW
HStem: -10 21G<216.5 328> 507 20G<211.5 346.5>
LayerCount: 2
Fore
SplineSet
39 258 m 1,0,1
 42 367 42 367 108.5 447 c 128,-1,2
 175 527 175 527 283 527 c 0,3,4
 391 527 391 527 461.5 448 c 128,-1,5
 532 369 532 369 534 259 c 1,6,-1
 534 248 l 1,7,-1
 59 248 l 1,8,9
 66 151 66 151 131 80.5 c 128,-1,10
 196 10 196 10 289 10 c 0,11,12
 348 10 348 10 400.5 39.5 c 128,-1,13
 453 69 453 69 476 119 c 1,14,-1
 495 114 l 1,15,16
 472 56 472 56 412 23 c 128,-1,17
 352 -10 352 -10 289 -10 c 0,18,19
 184 -10 184 -10 111.5 72 c 128,-1,20
 39 154 39 154 39 258 c 1,0,1
59 268 m 1,21,-1
 513 268 l 1,22,23
 506 371 506 371 442 439 c 128,-1,24
 378 507 378 507 280 507 c 0,25,26
 215 507 215 507 164 470.5 c 128,-1,27
 113 434 113 434 87.5 380.5 c 128,-1,28
 62 327 62 327 59 268 c 1,21,-1
EndSplineSet
Substitution2: "'smcp' Lowercase to Small Capitals in Latin lookup 2 subtable" E.sc
Substitution2: "'aalt' Access All Alternates in Latin lookup 0 subtable" E.sc
EndChar

StartChar: ecircumflex
Encoding: 234 234 137
Width: 562
Flags: HMW
HStem: -10 21G<216.5 328> 507 20G<211.5 346.5> 707 20G<276 292 292 292>
LayerCount: 2
Fore
SplineSet
39 258 m 1,0,1
 42 367 42 367 108.5 447 c 128,-1,2
 175 527 175 527 283 527 c 0,3,4
 391 527 391 527 461.5 448 c 128,-1,5
 532 369 532 369 534 259 c 1,6,-1
 534 248 l 1,7,-1
 59 248 l 1,8,9
 66 151 66 151 131 80.5 c 128,-1,10
 196 10 196 10 289 10 c 0,11,12
 348 10 348 10 400.5 39.5 c 128,-1,13
 453 69 453 69 476 119 c 1,14,-1
 495 114 l 1,15,16
 472 56 472 56 412 23 c 128,-1,17
 352 -10 352 -10 289 -10 c 0,18,19
 184 -10 184 -10 111.5 72 c 128,-1,20
 39 154 39 154 39 258 c 1,0,1
59 268 m 1,21,-1
 513 268 l 1,22,23
 506 371 506 371 442 439 c 128,-1,24
 378 507 378 507 280 507 c 0,25,26
 215 507 215 507 164 470.5 c 128,-1,27
 113 434 113 434 87.5 380.5 c 128,-1,28
 62 327 62 327 59 268 c 1,21,-1
199 587 m 1,29,-1
 183 599 l 1,30,-1
 276 727 l 1,31,-1
 292 727 l 1,32,-1
 385 599 l 1,33,-1
 369 587 l 1,34,-1
 284 704 l 1,35,-1
 199 587 l 1,29,-1
EndSplineSet
EndChar

StartChar: egrave
Encoding: 232 232 139
Width: 562
Flags: HMW
HStem: -10 21G<216.5 328> 507 20G<211.5 346.5> 684 20G<208 241 241 241>
LayerCount: 2
Fore
SplineSet
39 258 m 1,0,1
 42 367 42 367 108.5 447 c 128,-1,2
 175 527 175 527 283 527 c 0,3,4
 391 527 391 527 461.5 448 c 128,-1,5
 532 369 532 369 534 259 c 1,6,-1
 534 248 l 1,7,-1
 59 248 l 1,8,9
 66 151 66 151 131 80.5 c 128,-1,10
 196 10 196 10 289 10 c 0,11,12
 348 10 348 10 400.5 39.5 c 128,-1,13
 453 69 453 69 476 119 c 1,14,-1
 495 114 l 1,15,16
 472 56 472 56 412 23 c 128,-1,17
 352 -10 352 -10 289 -10 c 0,18,19
 184 -10 184 -10 111.5 72 c 128,-1,20
 39 154 39 154 39 258 c 1,0,1
59 268 m 1,21,-1
 513 268 l 1,22,23
 506 371 506 371 442 439 c 128,-1,24
 378 507 378 507 280 507 c 0,25,26
 215 507 215 507 164 470.5 c 128,-1,27
 113 434 113 434 87.5 380.5 c 128,-1,28
 62 327 62 327 59 268 c 1,21,-1
290 599 m 1,29,-1
 208 704 l 1,30,-1
 241 704 l 1,31,-1
 306 611 l 1,32,-1
 290 599 l 1,29,-1
EndSplineSet
EndChar

StartChar: eight
Encoding: 56 56 140
Width: 577
Flags: HMW
HStem: -10 21G<230 288 288 304> 690 20G<244 329>
LayerCount: 2
Fore
SplineSet
526 190 m 1,0,1
 520 102 520 102 455 49 c 128,-1,2
 390 -4 390 -4 304 -10 c 1,3,-1
 288 -10 l 2,4,5
 196 -10 196 -10 123.5 47 c 128,-1,6
 51 104 51 104 51 190 c 0,7,8
 51 260 51 260 100 311.5 c 128,-1,9
 149 363 149 363 215 381 c 1,10,11
 155 402 155 402 116 443.5 c 128,-1,12
 77 485 77 485 77 540 c 0,13,14
 77 617 77 617 143.5 663.5 c 128,-1,15
 210 710 210 710 289 710 c 128,-1,16
 368 710 368 710 434 662.5 c 128,-1,17
 500 615 500 615 500 540 c 0,18,19
 500 483 500 483 459 441.5 c 128,-1,20
 418 400 418 400 361 381 c 1,21,22
 432 361 432 361 479 309 c 128,-1,23
 526 257 526 257 526 190 c 1,0,1
439 60.5 m 128,-1,25
 506 111 506 111 506 191 c 128,-1,26
 506 271 506 271 437.5 321 c 128,-1,27
 369 371 369 371 287 371 c 128,-1,28
 205 371 205 371 138 319.5 c 128,-1,29
 71 268 71 268 71 188.5 c 128,-1,30
 71 109 71 109 139 59.5 c 128,-1,31
 207 10 207 10 289.5 10 c 128,-1,24
 372 10 372 10 439 60.5 c 128,-1,25
97 540 m 1,32,33
 101 471 101 471 159 431 c 128,-1,34
 217 391 217 391 288 391 c 128,-1,35
 359 391 359 391 419.5 432.5 c 128,-1,36
 480 474 480 474 480 541 c 128,-1,37
 480 608 480 608 419 649 c 128,-1,38
 358 690 358 690 287 690 c 128,-1,39
 216 690 216 690 156.5 648 c 128,-1,40
 97 606 97 606 97 540 c 1,32,33
EndSplineSet
Substitution2: "'salt' Stylistic Alternatives in Latin lookup 5 subtable" eight.alt
Substitution2: "'lnum' Lining Figures in Latin lookup 3 subtable" eight.alt
Substitution2: "'aalt' Access All Alternates in Latin lookup 0 subtable" eight.alt
EndChar

StartChar: eight.alt
Encoding: 65569 -1 141
Width: 577
Flags: HMW
HStem: -10 21G<230 288 288 304> 690 20G<244 329>
LayerCount: 2
Fore
SplineSet
526 190 m 1,0,1
 520 102 520 102 455 49 c 128,-1,2
 390 -4 390 -4 304 -10 c 1,3,-1
 288 -10 l 2,4,5
 196 -10 196 -10 123.5 47 c 128,-1,6
 51 104 51 104 51 190 c 0,7,8
 51 260 51 260 100 311.5 c 128,-1,9
 149 363 149 363 215 381 c 1,10,11
 155 402 155 402 116 443.5 c 128,-1,12
 77 485 77 485 77 540 c 0,13,14
 77 617 77 617 143.5 663.5 c 128,-1,15
 210 710 210 710 289 710 c 128,-1,16
 368 710 368 710 434 662.5 c 128,-1,17
 500 615 500 615 500 540 c 0,18,19
 500 483 500 483 459 441.5 c 128,-1,20
 418 400 418 400 361 381 c 1,21,22
 432 361 432 361 479 309 c 128,-1,23
 526 257 526 257 526 190 c 1,0,1
439 60.5 m 128,-1,25
 506 111 506 111 506 191 c 128,-1,26
 506 271 506 271 437.5 321 c 128,-1,27
 369 371 369 371 287 371 c 128,-1,28
 205 371 205 371 138 319.5 c 128,-1,29
 71 268 71 268 71 188.5 c 128,-1,30
 71 109 71 109 139 59.5 c 128,-1,31
 207 10 207 10 289.5 10 c 128,-1,24
 372 10 372 10 439 60.5 c 128,-1,25
97 540 m 1,32,33
 101 471 101 471 159 431 c 128,-1,34
 217 391 217 391 288 391 c 128,-1,35
 359 391 359 391 419.5 432.5 c 128,-1,36
 480 474 480 474 480 541 c 128,-1,37
 480 608 480 608 419 649 c 128,-1,38
 358 690 358 690 287 690 c 128,-1,39
 216 690 216 690 156.5 648 c 128,-1,40
 97 606 97 606 97 540 c 1,32,33
EndSplineSet
Substitution2: "'onum' Oldstyle Figures in Latin lookup 4 subtable" eight
EndChar

StartChar: ellipsis
Encoding: 8230 8230 142
Width: 334
Flags: HMW
HStem: 0 21G<62 82 62 62 157 157 157 177 252 252 252 272> 44 20G<62 82 82 82 157 177 177 177 252 272 272 272>
LayerCount: 2
Fore
SplineSet
82 0 m 1,0,-1
 62 0 l 1,1,-1
 62 64 l 1,2,-1
 82 64 l 1,3,-1
 82 0 l 1,0,-1
177 0 m 1,4,-1
 157 0 l 1,5,-1
 157 64 l 1,6,-1
 177 64 l 1,7,-1
 177 0 l 1,4,-1
272 0 m 1,8,-1
 252 0 l 1,9,-1
 252 64 l 1,10,-1
 272 64 l 1,11,-1
 272 0 l 1,8,-1
EndSplineSet
EndChar

StartChar: emdash
Encoding: 8212 8212 143
Width: 863
Flags: HMW
HStem: 261 20G<62 801 62 801> 261 21G<62 801 62 62>
LayerCount: 2
Fore
SplineSet
801 261 m 1,0,-1
 62 261 l 1,1,-1
 62 281 l 1,2,-1
 801 281 l 1,3,-1
 801 261 l 1,0,-1
EndSplineSet
EndChar

StartChar: endash
Encoding: 8211 8211 144
Width: 527
Flags: HMW
HStem: 261 20G<62 465 62 465> 261 21G<62 465 62 62>
LayerCount: 2
Fore
SplineSet
465 261 m 1,0,-1
 62 261 l 1,1,-1
 62 281 l 1,2,-1
 465 281 l 1,3,-1
 465 261 l 1,0,-1
EndSplineSet
EndChar

StartChar: equal
Encoding: 61 61 145
Width: 433
Flags: HMW
HStem: 231 90<70 363 70 363>
LayerCount: 2
Fore
SplineSet
363 231 m 1,0,-1
 70 231 l 1,1,-1
 70 251 l 1,2,-1
 363 251 l 1,3,-1
 363 231 l 1,0,-1
363 301 m 1,4,-1
 70 301 l 1,5,-1
 70 321 l 1,6,-1
 363 321 l 1,7,-1
 363 301 l 1,4,-1
EndSplineSet
EndChar

StartChar: exclam
Encoding: 33 33 146
Width: 186
Flags: HMW
HStem: 0 21G<83 103 83 83> 697 20G<83 103 103 103>
LayerCount: 2
Fore
SplineSet
103 200 m 1,0,-1
 83 200 l 1,1,-1
 83 717 l 1,2,-1
 103 717 l 1,3,-1
 103 200 l 1,0,-1
103 0 m 1,4,-1
 83 0 l 1,5,-1
 83 84 l 1,6,-1
 103 84 l 1,7,-1
 103 0 l 1,4,-1
EndSplineSet
EndChar

StartChar: exclamdown
Encoding: 161 161 147
Width: 186
Flags: HMW
HStem: 0 21G<83 103 83 83> 697 20G<83 103 103 103>
LayerCount: 2
Fore
SplineSet
83 517 m 1,0,-1
 103 517 l 1,1,-1
 103 0 l 1,2,-1
 83 0 l 1,3,-1
 83 517 l 1,0,-1
83 717 m 1,4,-1
 103 717 l 1,5,-1
 103 633 l 1,6,-1
 83 633 l 1,7,-1
 83 717 l 1,4,-1
EndSplineSet
EndChar

StartChar: f
Encoding: 102 102 148
Width: 301
Flags: HMW
HStem: 0 21G<99 119 99 99> 720 20G<183.5 245.5>
LayerCount: 2
Fore
SplineSet
119 0 m 1,0,-1
 99 0 l 1,1,-1
 99 438 l 1,2,-1
 24 438 l 1,3,-1
 24 458 l 1,4,-1
 99 458 l 1,5,-1
 99 540 l 2,6,7
 99 590 99 590 110 632.5 c 128,-1,8
 121 675 121 675 152.5 707.5 c 128,-1,9
 184 740 184 740 230 740 c 128,-1,10
 276 740 276 740 303.5 726 c 128,-1,11
 331 712 331 712 331 706 c 1,12,-1
 315 694 l 1,13,14
 288 720 288 720 231 720 c 0,15,16
 197 720 197 720 173.5 701.5 c 128,-1,17
 150 683 150 683 139 653.5 c 0,18,19
 119 599.863636364 119 599.863636364 119 540 c 2,20,-1
 119 458 l 1,21,-1
 274 458 l 1,22,-1
 274 438 l 1,23,-1
 119 438 l 1,24,-1
 119 0 l 1,0,-1
EndSplineSet
Substitution2: "'smcp' Lowercase to Small Capitals in Latin lookup 2 subtable" F.sc
Substitution2: "'aalt' Access All Alternates in Latin lookup 0 subtable" F.sc
EndChar

StartChar: five
Encoding: 53 53 149
Width: 533
Flags: HMW
HStem: -149 21G<211 323.5> -3 21G<37 59 59 59> 551 20G<145 465 145 145>
LayerCount: 2
Fore
SplineSet
463 203 m 1,0,1
 496 149 496 149 496 82 c 0,2,3
 496 -20 496 -20 427 -84.5 c 128,-1,4
 358 -149 358 -149 261 -149 c 0,5,6
 187 -149 187 -149 127 -109 c 128,-1,7
 67 -69 67 -69 37 -3 c 1,8,-1
 59 -3 l 1,9,10
 86 -60 86 -60 140.5 -94.5 c 128,-1,11
 195 -129 195 -129 261 -129 c 0,12,13
 352 -129 352 -129 414 -69.5 c 128,-1,14
 476 -10 476 -10 476 80 c 0,15,16
 476 170 476 170 415.5 228 c 128,-1,17
 355 286 355 286 266 286 c 0,18,19
 209 286 209 286 158 260.5 c 128,-1,20
 107 235 107 235 74 188 c 1,21,-1
 50 188 l 1,22,-1
 128 571 l 1,23,-1
 465 571 l 1,24,-1
 465 551 l 1,25,-1
 145 551 l 1,26,-1
 80 226 l 1,27,28
 154 306 154 306 266 306 c 0,29,30
 328 306 328 306 380.5 278 c 128,-1,31
 433 250 433 250 463 203 c 1,0,1
EndSplineSet
Substitution2: "'salt' Stylistic Alternatives in Latin lookup 5 subtable" five.alt
Substitution2: "'lnum' Lining Figures in Latin lookup 3 subtable" five.alt
Substitution2: "'aalt' Access All Alternates in Latin lookup 0 subtable" five.alt
EndChar

StartChar: five.alt
Encoding: 65570 -1 150
Width: 545
Flags: HMW
HStem: -10 21G<217 329.5> 690 20G<151 471 151 151>
LayerCount: 2
Fore
SplineSet
469 342 m 1,0,1
 502 288 502 288 502 221 c 0,2,3
 502 119 502 119 433 54.5 c 128,-1,4
 364 -10 364 -10 267 -10 c 0,5,6
 193 -10 193 -10 133 30 c 128,-1,7
 73 70 73 70 43 136 c 1,8,-1
 65 136 l 1,9,10
 92 79 92 79 146.5 44.5 c 128,-1,11
 201 10 201 10 267 10 c 0,12,13
 358 10 358 10 420 69.5 c 128,-1,14
 482 129 482 129 482 219 c 0,15,16
 482 309 482 309 421.5 367 c 128,-1,17
 361 425 361 425 272 425 c 0,18,19
 215 425 215 425 164 399.5 c 128,-1,20
 113 374 113 374 80 327 c 1,21,-1
 56 327 l 1,22,-1
 134 710 l 1,23,-1
 471 710 l 1,24,-1
 471 690 l 1,25,-1
 151 690 l 1,26,-1
 86 365 l 1,27,28
 160 445 160 445 272 445 c 0,29,30
 334 445 334 445 386.5 417 c 128,-1,31
 439 389 439 389 469 342 c 1,0,1
EndSplineSet
Substitution2: "'onum' Oldstyle Figures in Latin lookup 4 subtable" five
EndChar

StartChar: fl
Encoding: 64258 64258 151
Width: 528
Flags: HMW
HStem: -5 21G<429 471.5> 0 21G<99 119 99 99> 720 20G<203.5 295.5>
LayerCount: 2
Fore
SplineSet
411.5 33.5 m 128,-1,1
 428 14 428 14 454 14 c 128,-1,2
 480 14 480 14 516 23 c 1,3,-1
 525 4 l 1,4,5
 521.935483871 0.935483870968 521.935483871 0.935483870968 495.967741935 -2.03225806452 c 128,-1,6
 470 -5 470 -5 454 -5 c 0,7,8
 418 -5 418 -5 396.5 19 c 128,-1,9
 375 43 375 43 375 77 c 2,10,-1
 375 613 l 2,11,12
 375 657 375 657 344 688.5 c 128,-1,13
 313 720 313 720 249 720 c 128,-1,14
 185 720 185 720 152 666 c 128,-1,15
 119 612 119 612 119 540 c 2,16,-1
 119 458 l 1,17,-1
 244 458 l 1,18,-1
 244 438 l 1,19,-1
 119 438 l 1,20,-1
 119 0 l 1,21,-1
 99 0 l 1,22,-1
 99 438 l 1,23,-1
 24 438 l 1,24,-1
 24 458 l 1,25,-1
 99 458 l 1,26,-1
 99 540 l 2,27,28
 99 629 99 629 136 684.5 c 128,-1,29
 173 740 173 740 245.5 740 c 128,-1,30
 318 740 318 740 356.5 704 c 128,-1,31
 395 668 395 668 395 614 c 2,32,-1
 395 77 l 2,33,0
 395 53 395 53 411.5 33.5 c 128,-1,1
EndSplineSet
Ligature2: "'liga' Standard Ligatures in Latin lookup 6 subtable" f l
EndChar

StartChar: four
Encoding: 52 52 152
Width: 510
Flags: HMW
HStem: -127 21G<377 397 377 377> 551 20G<383 397 397 397>
LayerCount: 2
Fore
SplineSet
397 -127 m 1,0,-1
 377 -127 l 1,1,-1
 377 72 l 1,2,-1
 12 72 l 1,3,-1
 12 89 l 1,4,-1
 383 571 l 1,5,-1
 397 571 l 1,6,-1
 397 92 l 1,7,-1
 485 92 l 1,8,-1
 485 72 l 1,9,-1
 397 72 l 1,10,-1
 397 -127 l 1,0,-1
377 534 m 1,11,-1
 40 92 l 1,12,-1
 377 92 l 1,13,-1
 377 534 l 1,11,-1
EndSplineSet
Substitution2: "'salt' Stylistic Alternatives in Latin lookup 5 subtable" four.alt
Substitution2: "'lnum' Lining Figures in Latin lookup 3 subtable" four.alt
Substitution2: "'aalt' Access All Alternates in Latin lookup 0 subtable" four.alt
EndChar

StartChar: four.alt
Encoding: 65571 -1 153
Width: 537
Flags: HMW
HStem: 0 21G<400 420 400 400> 690 20G<406 420 420 420>
LayerCount: 2
Fore
SplineSet
420 0 m 1,0,-1
 400 0 l 1,1,-1
 400 211 l 1,2,-1
 15 211 l 1,3,-1
 15 228 l 1,4,-1
 406 710 l 1,5,-1
 420 710 l 1,6,-1
 420 231 l 1,7,-1
 508 231 l 1,8,-1
 508 211 l 1,9,-1
 420 211 l 1,10,-1
 420 0 l 1,0,-1
400 673 m 1,11,-1
 43 231 l 1,12,-1
 400 231 l 1,13,-1
 400 673 l 1,11,-1
EndSplineSet
Substitution2: "'onum' Oldstyle Figures in Latin lookup 4 subtable" four
EndChar

StartChar: g
Encoding: 103 103 154
Width: 586
Flags: HMW
HStem: -223 21G<221.5 342> -10 21G<216.5 328.5> 507 20G<210 324.5>
LayerCount: 2
Fore
SplineSet
492 517 m 1,0,-1
 512 517 l 1,1,-1
 512 -22 l 2,2,3
 512 -119 512 -119 445.5 -171 c 128,-1,4
 379 -223 379 -223 283 -223 c 0,5,6
 123 -223 123 -223 58 -99 c 1,7,-1
 77 -93 l 1,8,9
 107 -149 107 -149 161.5 -176 c 128,-1,10
 216 -203 216 -203 283 -203 c 0,11,12
 373 -203 373 -203 432.5 -155.5 c 128,-1,13
 492 -108 492 -108 492 -22 c 2,14,-1
 492 108 l 1,15,16
 459 56 459 56 403 23 c 128,-1,17
 347 -10 347 -10 289 -10 c 0,18,19
 184 -10 184 -10 111.5 72 c 128,-1,20
 39 154 39 154 39 260 c 0,21,22
 39 366 39 366 107.5 446.5 c 128,-1,23
 176 527 176 527 280 527 c 0,24,25
 401 527 401 527 492 398 c 1,26,-1
 492 517 l 1,0,-1
475 119 m 0,27,28
 492 147 492 147 492 169 c 2,29,-1
 492 356 l 1,30,31
 467 421 467 421 407 464 c 128,-1,32
 347 507 347 507 280 507 c 0,33,34
 181 507 181 507 120 430.5 c 128,-1,35
 59 354 59 354 59 256.5 c 0,36,37
 59 159 59 159 126.5 84.5 c 128,-1,38
 194 10 194 10 289 10 c 0,39,40
 344 10 344 10 395 41 c 128,-1,41
 446 72 446 72 475 119 c 0,27,28
EndSplineSet
Substitution2: "'smcp' Lowercase to Small Capitals in Latin lookup 2 subtable" G.sc
Substitution2: "'aalt' Access All Alternates in Latin lookup 0 subtable" G.sc
EndChar

StartChar: germandbls
Encoding: 223 223 155
Width: 530
Flags: HMW
HStem: -6 21G<220 287.5> 0 21G<74 94 74 74> 694 20G<195.5 285>
LayerCount: 2
Fore
SplineSet
220 -6 m 1,0,-1
 220 14 l 1,1,2
 470 18 470 18 470 211 c 0,3,4
 470 295 470 295 406.5 344 c 128,-1,5
 343 393 343 393 258 393 c 2,6,-1
 248 393 l 1,7,-1
 248 413 l 1,8,-1
 257 413 l 1,9,10
 325 415 325 415 371.5 451 c 128,-1,11
 418 487 418 487 418 552.5 c 128,-1,12
 418 618 418 618 365 656 c 128,-1,13
 312 694 312 694 243 694 c 128,-1,14
 174 694 174 694 134 647 c 128,-1,15
 94 600 94 600 94 529 c 2,16,-1
 94 0 l 1,17,-1
 74 0 l 1,18,-1
 74 529 l 2,19,20
 74 610 74 610 121 662 c 128,-1,21
 168 714 168 714 245 714 c 128,-1,22
 322 714 322 714 380 669 c 128,-1,23
 438 624 438 624 438 551 c 0,24,25
 438 498 438 498 407 458.5 c 128,-1,26
 376 419 376 419 327 403 c 1,27,28
 404 381 404 381 447 332 c 128,-1,29
 490 283 490 283 490 216.5 c 128,-1,30
 490 150 490 150 467.5 106 c 128,-1,31
 445 62 445 62 405 38.5 c 0,32,33
 329.255319149 -6 329.255319149 -6 220 -6 c 1,0,-1
EndSplineSet
EndChar

StartChar: grave
Encoding: 96 96 156
Width: 123
Flags: HMW
HStem: 599 21G<87 87> 684 20G<5 38 38 38>
LayerCount: 2
Fore
SplineSet
87 599 m 1,0,-1
 5 704 l 1,1,-1
 38 704 l 1,2,-1
 103 611 l 1,3,-1
 87 599 l 1,0,-1
EndSplineSet
EndChar

StartChar: greater
Encoding: 62 62 157
Width: 514
Flags: HMW
HStem: 0 21G<55 55> 497 20G<55 55>
LayerCount: 2
Fore
SplineSet
472 268 m 1,0,-1
 472 250 l 1,1,-1
 55 0 l 1,2,-1
 55 22 l 1,3,-1
 443 259 l 1,4,-1
 55 495 l 1,5,-1
 55 517 l 1,6,-1
 472 268 l 1,0,-1
EndSplineSet
EndChar

StartChar: h
Encoding: 104 104 158
Width: 546
Flags: HMW
HStem: 0 21G<74 94 74 74 457 477 457 457> 507 20G<268.5 372> 712 20G<74 94 94 94>
LayerCount: 2
Fore
SplineSet
477 289 m 2,0,-1
 477 0 l 1,1,-1
 457 0 l 1,2,-1
 457 289 l 2,3,4
 457 507 457 507 311 507 c 0,5,6
 236 507 236 507 174.5 453 c 128,-1,7
 113 399 113 399 94 328 c 1,8,-1
 94 0 l 1,9,-1
 74 0 l 1,10,-1
 74 732 l 1,11,-1
 94 732 l 1,12,-1
 94 385 l 1,13,14
 127 450 127 450 186.5 488.5 c 128,-1,15
 246 527 246 527 311 527 c 0,16,17
 477 527 477 527 477 289 c 2,0,-1
EndSplineSet
Substitution2: "'smcp' Lowercase to Small Capitals in Latin lookup 2 subtable" H.sc
Substitution2: "'aalt' Access All Alternates in Latin lookup 0 subtable" H.sc
EndChar

StartChar: hyphen
Encoding: 45 45 159
Width: 407
Flags: HMW
HStem: 261 20G<62 345 62 345> 261 21G<62 345 62 62>
LayerCount: 2
Fore
SplineSet
345 261 m 1,0,-1
 62 261 l 1,1,-1
 62 281 l 1,2,-1
 345 281 l 1,3,-1
 345 261 l 1,0,-1
EndSplineSet
EndChar

StartChar: i
Encoding: 105 105 160
Width: 176
Flags: HMW
HStem: 0 21G<78 98 78 78> 697 20G<78 98 98 98>
LayerCount: 2
Fore
SplineSet
98 0 m 1,0,-1
 78 0 l 1,1,-1
 78 517 l 1,2,-1
 98 517 l 1,3,-1
 98 0 l 1,0,-1
98 653 m 1,4,-1
 78 653 l 1,5,-1
 78 717 l 1,6,-1
 98 717 l 1,7,-1
 98 653 l 1,4,-1
EndSplineSet
Substitution2: "'smcp' Lowercase to Small Capitals in Latin lookup 2 subtable" I.sc
Substitution2: "'aalt' Access All Alternates in Latin lookup 0 subtable" I.sc
EndChar

StartChar: icircumflex
Encoding: 238 238 162
Width: 176
Flags: HMW
HStem: 0 21G<78 98 78 78> 707 20G<79 95 95 95>
LayerCount: 2
Fore
SplineSet
98 0 m 1,0,-1
 78 0 l 1,1,-1
 78 517 l 1,2,-1
 98 517 l 1,3,-1
 98 0 l 1,0,-1
2 587 m 1,4,-1
 -14 599 l 1,5,-1
 79 727 l 1,6,-1
 95 727 l 1,7,-1
 188 599 l 1,8,-1
 172 587 l 1,9,-1
 87 704 l 1,10,-1
 2 587 l 1,4,-1
EndSplineSet
EndChar

StartChar: igrave
Encoding: 236 236 164
Width: 176
Flags: HMW
HStem: 0 21G<78 98 78 78> 684 20G<11 44 44 44>
LayerCount: 2
Fore
SplineSet
98 0 m 1,0,-1
 78 0 l 1,1,-1
 78 517 l 1,2,-1
 98 517 l 1,3,-1
 98 0 l 1,0,-1
93 599 m 1,4,-1
 11 704 l 1,5,-1
 44 704 l 1,6,-1
 109 611 l 1,7,-1
 93 599 l 1,4,-1
EndSplineSet
EndChar

StartChar: j
Encoding: 106 106 165
Width: 176
Flags: HMW
HStem: -170 21G<-35 -4> 697 20G<78 98 98 98>
LayerCount: 2
Fore
SplineSet
-35 -170 m 1,0,1
 -103 -168 -103 -168 -135 -136 c 1,2,-1
 -119 -124 l 1,3,4
 -89 -150 -89 -150 -41 -150 c 0,5,6
 7 -150 7 -150 42.5 -116.5 c 128,-1,7
 78 -83 78 -83 78 -36 c 2,8,-1
 78 517 l 1,9,-1
 98 517 l 1,10,-1
 98 -36 l 2,11,12
 98 -92 98 -92 56 -131 c 128,-1,13
 14 -170 14 -170 -35 -170 c 1,0,1
98 653 m 1,14,-1
 78 653 l 1,15,-1
 78 717 l 1,16,-1
 98 717 l 1,17,-1
 98 653 l 1,14,-1
EndSplineSet
Substitution2: "'salt' Stylistic Alternatives in Latin lookup 5 subtable" j.alt
Substitution2: "'smcp' Lowercase to Small Capitals in Latin lookup 2 subtable" J.sc
AlternateSubs2: "'aalt' Access All Alternates in Latin lookup 1 subtable" J.sc j.alt
EndChar

StartChar: j.alt
Encoding: 65572 -1 166
Width: 176
Flags: HMW
HStem: -213 21G<78 98 78 78> 697 20G<78 98 98 98>
LayerCount: 2
Fore
SplineSet
98 -213 m 1,0,-1
 78 -213 l 1,1,-1
 78 517 l 1,2,-1
 98 517 l 1,3,-1
 98 -213 l 1,0,-1
98 653 m 1,4,-1
 78 653 l 1,5,-1
 78 717 l 1,6,-1
 98 717 l 1,7,-1
 98 653 l 1,4,-1
EndSplineSet
EndChar

StartChar: k
Encoding: 107 107 167
Width: 489
Flags: HMW
HStem: 0 21G<74 94 74 74 456 480 456 456> 710 20G<74 94 94 94>
LayerCount: 2
Fore
SplineSet
480 0 m 1,0,-1
 456 0 l 1,1,-1
 235 297 l 1,2,-1
 94 169 l 1,3,-1
 94 0 l 1,4,-1
 74 0 l 1,5,-1
 74 730 l 1,6,-1
 94 730 l 1,7,-1
 94 196 l 1,8,-1
 448 517 l 1,9,-1
 475 517 l 1,10,-1
 250 311 l 1,11,-1
 480 0 l 1,0,-1
EndSplineSet
Substitution2: "'smcp' Lowercase to Small Capitals in Latin lookup 2 subtable" K.sc
Substitution2: "'aalt' Access All Alternates in Latin lookup 0 subtable" K.sc
EndChar

StartChar: l
Encoding: 108 108 168
Width: 233
Flags: HMW
HStem: -5 21G<134 176.5> 710 20G<80 100 100 100>
LayerCount: 2
Fore
SplineSet
116.5 33.5 m 128,-1,1
 133 14 133 14 159 14 c 128,-1,2
 185 14 185 14 221 23 c 1,3,-1
 230 4 l 1,4,5
 226.935483871 0.935483870968 226.935483871 0.935483870968 200.967741935 -2.03225806452 c 128,-1,6
 175 -5 175 -5 159 -5 c 0,7,8
 123 -5 123 -5 101.5 19 c 128,-1,9
 80 43 80 43 80 77 c 2,10,-1
 80 730 l 1,11,-1
 100 730 l 1,12,-1
 100 77 l 2,13,0
 100 53 100 53 116.5 33.5 c 128,-1,1
EndSplineSet
Substitution2: "'salt' Stylistic Alternatives in Latin lookup 5 subtable" l.alt
Substitution2: "'smcp' Lowercase to Small Capitals in Latin lookup 2 subtable" L.sc
AlternateSubs2: "'aalt' Access All Alternates in Latin lookup 1 subtable" L.sc l.alt
EndChar

StartChar: l.alt
Encoding: 65573 -1 169
Width: 168
Flags: HMW
HStem: 0 21G<74 77.5 74 94> 710 20G<74 94 94 94>
LayerCount: 2
Fore
SplineSet
74 0 m 1,0,-1
 74 730 l 1,1,-1
 94 730 l 1,2,-1
 94 0 l 1,3,-1
 74 0 l 1,0,-1
EndSplineSet
EndChar

StartChar: less
Encoding: 60 60 170
Width: 514
Flags: HMW
HStem: 0 21G<459 459> 497 20G<459 459>
LayerCount: 2
Fore
SplineSet
42 250 m 1,0,-1
 42 268 l 1,1,-1
 459 517 l 1,2,-1
 459 495 l 1,3,-1
 71 259 l 1,4,-1
 459 22 l 1,5,-1
 459 0 l 1,6,-1
 42 250 l 1,0,-1
EndSplineSet
EndChar

StartChar: m
Encoding: 109 109 171
Width: 889
Flags: HMW
HStem: 0 21G<74 94 74 74 437 457 437 437 800 820 800 800> 499 20G<74 94 94 94> 507 20G<253.5 344.5 253.5 353 625.5 721>
LayerCount: 2
Fore
SplineSet
820 289 m 2,0,-1
 820 0 l 1,1,-1
 800 0 l 1,2,-1
 800 289 l 2,3,4
 800 379.185185185 800 379.185185185 776.5 437.5 c 0,5,6
 748.492537313 507 748.492537313 507 656.246268657 507 c 128,-1,7
 564 507 564 507 501 422 c 0,8,9
 474.769230769 386.230769231 474.769230769 386.230769231 460 337 c 2,10,-1
 457 327 l 1,11,-1
 457 0 l 1,12,-1
 437 0 l 1,13,-1
 437 289 l 2,14,15
 437 396 437 396 406.5 451.5 c 128,-1,16
 376 507 376 507 299 507 c 128,-1,17
 222 507 222 507 168 454.5 c 128,-1,18
 114 402 114 402 94 328 c 1,19,-1
 94 0 l 1,20,-1
 74 0 l 1,21,-1
 74 519 l 1,22,-1
 94 519 l 1,23,-1
 94 385 l 1,24,25
 127 452 127 452 180 489.5 c 128,-1,26
 233 527 233 527 299 527 c 128,-1,27
 365 527 365 527 406 483.5 c 128,-1,28
 447 440 447 440 453 376 c 1,29,30
 530 527 530 527 659 527 c 0,31,32
 701 527 701 527 731.5 512 c 128,-1,33
 762 497 762 497 778.5 474.5 c 128,-1,34
 795 452 795 452 805 418 c 0,35,36
 820 367 820 367 820 289 c 2,0,-1
EndSplineSet
Substitution2: "'smcp' Lowercase to Small Capitals in Latin lookup 2 subtable" M.sc
Substitution2: "'aalt' Access All Alternates in Latin lookup 0 subtable" M.sc
EndChar

StartChar: n
Encoding: 110 110 172
Width: 546
Flags: HMW
HStem: 0 21G<74 94 74 74 457 477 457 457> 499 20G<74 94 94 94> 507 20G<276.5 383>
LayerCount: 2
Fore
SplineSet
477 289 m 2,0,-1
 477 0 l 1,1,-1
 457 0 l 1,2,-1
 457 289 l 2,3,4
 457 414.5 457 414.5 422 462 c 0,5,6
 388.842105263 507 388.842105263 507 316.921052632 507 c 128,-1,7
 245 507 245 507 179.5 453.5 c 128,-1,8
 114 400 114 400 94 328 c 1,9,-1
 94 0 l 1,10,-1
 74 0 l 1,11,-1
 74 519 l 1,12,-1
 94 519 l 1,13,-1
 94 385 l 1,14,15
 126 448 126 448 190 487.5 c 128,-1,16
 254 527 254 527 322 527 c 0,17,18
 364 527 364 527 394 511.5 c 128,-1,19
 424 496 424 496 440 474 c 128,-1,20
 456 452 456 452 464.5 417 c 0,21,22
 477 365.529411765 477 365.529411765 477 289 c 2,0,-1
EndSplineSet
Substitution2: "'smcp' Lowercase to Small Capitals in Latin lookup 2 subtable" N.sc
Substitution2: "'aalt' Access All Alternates in Latin lookup 0 subtable" N.sc
EndChar

StartChar: nine
Encoding: 57 57 173
Width: 574
Flags: HMW
HStem: -154 21G<230.5 279 279 286> 551 20G<279 337.5>
LayerCount: 2
Fore
SplineSet
34 329 m 1,0,1
 40 429 40 429 104.5 497 c 128,-1,2
 169 565 169 565 263 571 c 1,3,-1
 279 571 l 2,4,5
 375 571 375 571 445 505 c 128,-1,6
 515 439 515 439 523 348 c 0,7,8
 523 345.5 523 345.5 524.5 331.25 c 128,-1,9
 526 317 526 317 526.5 305 c 0,10,11
 528 269 528 269 528 224 c 128,-1,12
 528 179 528 179 516.5 115 c 128,-1,13
 505 51 505 51 479.5 -12.5 c 128,-1,14
 454 -76 454 -76 404 -115 c 128,-1,15
 354 -154 354 -154 286 -154 c 2,16,-1
 279 -154 l 2,17,18
 207 -154 207 -154 150.5 -113 c 128,-1,19
 94 -72 94 -72 73 -6 c 1,20,-1
 92 1 l 1,21,22
 113 -62 113 -62 164.5 -98 c 128,-1,23
 216 -134 216 -134 279 -134 c 2,24,-1
 286 -134 l 2,25,26
 338 -134 338 -134 379 -106.5 c 128,-1,27
 420 -79 420 -79 443.5 -38.5 c 128,-1,28
 467 2 467 2 482.5 55.5 c 0,29,30
 508 143.516129032 508 143.516129032 508 243 c 1,31,32
 480 172 480 172 417 129 c 128,-1,33
 354 86 354 86 279 86 c 0,34,35
 177 86 177 86 106.5 158 c 128,-1,36
 36 230 36 230 34 329 c 1,0,1
279 551 m 1,37,38
 185 547 185 547 119.5 483.5 c 128,-1,39
 54 420 54 420 54 328 c 128,-1,40
 54 236 54 236 121.5 171 c 128,-1,41
 189 106 189 106 280.5 106 c 128,-1,42
 372 106 372 106 438 172.5 c 128,-1,43
 504 239 504 239 504 330 c 128,-1,44
 504 421 504 421 436 486 c 128,-1,45
 368 551 368 551 279 551 c 1,37,38
EndSplineSet
Substitution2: "'salt' Stylistic Alternatives in Latin lookup 5 subtable" nine.alt
Substitution2: "'lnum' Lining Figures in Latin lookup 3 subtable" nine.alt
Substitution2: "'aalt' Access All Alternates in Latin lookup 0 subtable" nine.alt
EndChar

StartChar: nine.alt
Encoding: 65574 -1 174
Width: 590
Flags: HMW
HStem: -10 21G<236.5 285 285 292> 695 20G<285 343.5>
LayerCount: 2
Fore
SplineSet
40 473 m 1,0,1
 46 573 46 573 110.5 641 c 128,-1,2
 175 709 175 709 269 715 c 1,3,-1
 285 715 l 2,4,5
 381 715 381 715 451 649 c 128,-1,6
 521 583 521 583 529 492 c 0,7,8
 529 489.5 529 489.5 530.5 475.25 c 128,-1,9
 532 461 532 461 532.5 449 c 0,10,11
 534 413 534 413 534 368 c 128,-1,12
 534 323 534 323 522.5 259 c 128,-1,13
 511 195 511 195 485.5 131.5 c 128,-1,14
 460 68 460 68 410 29 c 128,-1,15
 360 -10 360 -10 292 -10 c 2,16,-1
 285 -10 l 2,17,18
 213 -10 213 -10 156.5 31 c 128,-1,19
 100 72 100 72 79 138 c 1,20,-1
 98 145 l 1,21,22
 119 82 119 82 170.5 46 c 128,-1,23
 222 10 222 10 285 10 c 2,24,-1
 292 10 l 2,25,26
 344 10 344 10 385 37.5 c 128,-1,27
 426 65 426 65 449.5 105.5 c 128,-1,28
 473 146 473 146 488.5 199.5 c 0,29,30
 514 287.516129032 514 287.516129032 514 387 c 1,31,32
 486 316 486 316 423 273 c 128,-1,33
 360 230 360 230 285 230 c 0,34,35
 183 230 183 230 112.5 302 c 128,-1,36
 42 374 42 374 40 473 c 1,0,1
285 695 m 1,37,38
 191 691 191 691 125.5 627.5 c 128,-1,39
 60 564 60 564 60 472 c 128,-1,40
 60 380 60 380 127.5 315 c 128,-1,41
 195 250 195 250 286.5 250 c 128,-1,42
 378 250 378 250 444 316.5 c 128,-1,43
 510 383 510 383 510 474 c 128,-1,44
 510 565 510 565 442 630 c 128,-1,45
 374 695 374 695 285 695 c 1,37,38
EndSplineSet
Substitution2: "'onum' Oldstyle Figures in Latin lookup 4 subtable" nine
EndChar

StartChar: numbersign
Encoding: 35 35 176
Width: 671
Flags: HMW
HStem: 0 21G<108 129 108 108 368 389 368 368> 690 20G<281 302 302 302 541 562 562 562>
LayerCount: 2
Fore
SplineSet
623 501 m 1,0,-1
 623 481 l 1,1,-1
 505 481 l 1,2,-1
 447 241 l 1,3,-1
 583 241 l 1,4,-1
 583 221 l 1,5,-1
 442 221 l 1,6,-1
 389 0 l 1,7,-1
 368 0 l 1,8,-1
 422 221 l 1,9,-1
 182 221 l 1,10,-1
 129 0 l 1,11,-1
 108 0 l 1,12,-1
 162 221 l 1,13,-1
 49 221 l 1,14,-1
 49 241 l 1,15,-1
 167 241 l 1,16,-1
 225 481 l 1,17,-1
 89 481 l 1,18,-1
 89 501 l 1,19,-1
 230 501 l 1,20,-1
 281 710 l 1,21,-1
 302 710 l 1,22,-1
 250 501 l 1,23,-1
 490 501 l 1,24,-1
 541 710 l 1,25,-1
 562 710 l 1,26,-1
 510 501 l 1,27,-1
 623 501 l 1,0,-1
187 241 m 1,28,-1
 427 241 l 1,29,-1
 485 481 l 1,30,-1
 245 481 l 1,31,-1
 187 241 l 1,28,-1
EndSplineSet
EndChar

StartChar: o
Encoding: 111 111 177
Width: 573
Flags: HMW
HStem: -10 21G 507 20G<219 351>
LayerCount: 2
Fore
SplineSet
287 -10 m 1,0,1
 181 -8 181 -8 110.5 72.5 c 128,-1,2
 40 153 40 153 40 260 c 0,3,4
 40 367 40 367 112.5 447 c 128,-1,5
 185 527 185 527 289.5 527 c 0,6,7
 394 527 394 527 464 444 c 128,-1,8
 534 361 534 361 534 255.5 c 0,9,10
 534 150 534 150 462 71 c 128,-1,11
 390 -8 390 -8 287 -10 c 1,0,1
60 258 m 1,12,13
 64 157 64 157 127.5 83.5 c 128,-1,14
 191 10 191 10 288 10 c 0,15,16
 385 10 385 10 449.5 87 c 128,-1,17
 514 164 514 164 514 260.5 c 0,18,19
 514 357 514 357 447.5 432 c 128,-1,20
 381 507 381 507 285 507 c 0,21,22
 189 507 189 507 124.5 429.5 c 128,-1,23
 60 352 60 352 60 258 c 1,12,13
EndSplineSet
Substitution2: "'smcp' Lowercase to Small Capitals in Latin lookup 2 subtable" O.sc
Substitution2: "'aalt' Access All Alternates in Latin lookup 0 subtable" O.sc
EndChar

StartChar: ocircumflex
Encoding: 244 244 179
Width: 573
Flags: HMW
HStem: -10 21G 507 20G<219 351> 707 20G<289 305 305 305>
LayerCount: 2
Fore
SplineSet
287 -10 m 1,0,1
 181 -8 181 -8 110.5 72.5 c 128,-1,2
 40 153 40 153 40 260 c 0,3,4
 40 367 40 367 112.5 447 c 128,-1,5
 185 527 185 527 289.5 527 c 0,6,7
 394 527 394 527 464 444 c 128,-1,8
 534 361 534 361 534 255.5 c 0,9,10
 534 150 534 150 462 71 c 128,-1,11
 390 -8 390 -8 287 -10 c 1,0,1
60 258 m 1,12,13
 64 157 64 157 127.5 83.5 c 128,-1,14
 191 10 191 10 288 10 c 0,15,16
 385 10 385 10 449.5 87 c 128,-1,17
 514 164 514 164 514 260.5 c 0,18,19
 514 357 514 357 447.5 432 c 128,-1,20
 381 507 381 507 285 507 c 0,21,22
 189 507 189 507 124.5 429.5 c 128,-1,23
 60 352 60 352 60 258 c 1,12,13
212 587 m 1,24,-1
 196 599 l 1,25,-1
 289 727 l 1,26,-1
 305 727 l 1,27,-1
 398 599 l 1,28,-1
 382 587 l 1,29,-1
 297 704 l 1,30,-1
 212 587 l 1,24,-1
EndSplineSet
EndChar

StartChar: oe
Encoding: 339 339 181
Width: 1037
Flags: HMW
HStem: -10 21G<705 803> 507 20G<219 347.5 219 353.5 695.5 821.5>
LayerCount: 2
Fore
SplineSet
1009 259 m 1,0,-1
 1009 248 l 1,1,-1
 534 248 l 1,2,3
 541 151 541 151 606 80.5 c 128,-1,4
 671 10 671 10 764 10 c 0,5,6
 823 10 823 10 875.5 39.5 c 128,-1,7
 928 69 928 69 951 119 c 1,8,-1
 970 114 l 1,9,10
 947 56 947 56 887 23 c 128,-1,11
 827 -10 827 -10 764 -10 c 0,12,13
 679 -10 679 -10 613.5 46.5 c 128,-1,14
 548 103 548 103 524 185 c 1,15,16
 502 102 502 102 436.5 46.5 c 128,-1,17
 371 -9 371 -9 287 -10 c 1,18,19
 181 -8 181 -8 110.5 72.5 c 128,-1,20
 40 153 40 153 40 260 c 128,-1,21
 40 367 40 367 112.5 447 c 128,-1,22
 185 527 185 527 279.5 527 c 128,-1,23
 374 527 374 527 438 470 c 128,-1,24
 502 413 502 413 524 330 c 1,25,26
 546 416 546 416 607.5 471.5 c 128,-1,27
 669 527 669 527 755 527 c 0,28,29
 866 527 866 527 936.5 448 c 128,-1,30
 1007 369 1007 369 1009 259 c 1,0,-1
127.5 83.5 m 128,-1,32
 191 10 191 10 287.5 10 c 128,-1,33
 384 10 384 10 448 84.5 c 128,-1,34
 512 159 512 159 514 252 c 1,35,36
 514 354 514 354 449 430.5 c 128,-1,37
 384 507 384 507 286.5 507 c 128,-1,38
 189 507 189 507 124.5 429.5 c 128,-1,39
 60 352 60 352 60 258 c 1,40,31
 64 157 64 157 127.5 83.5 c 128,-1,32
534 268 m 1,41,-1
 988 268 l 1,42,43
 981 371 981 371 917 439 c 128,-1,44
 853 507 853 507 755 507 c 0,45,46
 690 507 690 507 639 470.5 c 128,-1,47
 588 434 588 434 562.5 380.5 c 128,-1,48
 537 327 537 327 534 268 c 1,41,-1
EndSplineSet
EndChar

StartChar: ograve
Encoding: 242 242 182
Width: 573
Flags: HMW
HStem: -10 21G 507 20G<219 351> 684 20G<211 244 244 244>
LayerCount: 2
Fore
SplineSet
287 -10 m 1,0,1
 181 -8 181 -8 110.5 72.5 c 128,-1,2
 40 153 40 153 40 260 c 0,3,4
 40 367 40 367 112.5 447 c 128,-1,5
 185 527 185 527 289.5 527 c 0,6,7
 394 527 394 527 464 444 c 128,-1,8
 534 361 534 361 534 255.5 c 0,9,10
 534 150 534 150 462 71 c 128,-1,11
 390 -8 390 -8 287 -10 c 1,0,1
60 258 m 1,12,13
 64 157 64 157 127.5 83.5 c 128,-1,14
 191 10 191 10 288 10 c 0,15,16
 385 10 385 10 449.5 87 c 128,-1,17
 514 164 514 164 514 260.5 c 0,18,19
 514 357 514 357 447.5 432 c 128,-1,20
 381 507 381 507 285 507 c 0,21,22
 189 507 189 507 124.5 429.5 c 128,-1,23
 60 352 60 352 60 258 c 1,12,13
293 599 m 1,24,-1
 211 704 l 1,25,-1
 244 704 l 1,26,-1
 309 611 l 1,27,-1
 293 599 l 1,24,-1
EndSplineSet
EndChar

StartChar: one
Encoding: 49 49 183
Width: 363
Flags: HMW
HStem: 0 21G<62 351 62 62> 551 20G<204 224 224 224>
LayerCount: 2
Fore
SplineSet
224 20 m 1,0,-1
 351 20 l 1,1,-1
 351 0 l 1,2,-1
 62 0 l 1,3,-1
 62 20 l 1,4,-1
 204 20 l 1,5,-1
 204 538 l 1,6,7
 186 512 186 512 131.5 482 c 128,-1,8
 77 452 77 452 39 452 c 1,9,-1
 39 476 l 1,10,11
 71 476 71 476 112 499.5 c 128,-1,12
 153 523 153 523 177.5 544.5 c 128,-1,13
 202 566 202 566 204 571 c 1,14,-1
 224 571 l 1,15,-1
 224 20 l 1,0,-1
EndSplineSet
Substitution2: "'salt' Stylistic Alternatives in Latin lookup 5 subtable" one.alt
Substitution2: "'lnum' Lining Figures in Latin lookup 3 subtable" one.alt
Substitution2: "'aalt' Access All Alternates in Latin lookup 0 subtable" one.alt
EndChar

StartChar: one.alt
Encoding: 65575 -1 184
Width: 343
Flags: HMW
HStem: 0 21G<55 334 55 55> 700 20G<187 207 207 207>
LayerCount: 2
Fore
SplineSet
207 20 m 1,0,-1
 334 20 l 1,1,-1
 334 0 l 1,2,-1
 55 0 l 1,3,-1
 55 20 l 1,4,-1
 187 20 l 1,5,-1
 187 687 l 1,6,7
 168 661 168 661 118.5 631 c 128,-1,8
 69 601 69 601 32 601 c 1,9,-1
 32 621 l 1,10,11
 63 621 63 621 101.5 645.5 c 128,-1,12
 140 670 140 670 162 692.5 c 128,-1,13
 184 715 184 715 187 720 c 1,14,-1
 207 720 l 1,15,-1
 207 20 l 1,0,-1
EndSplineSet
Substitution2: "'onum' Oldstyle Figures in Latin lookup 4 subtable" one
EndChar

StartChar: oslash
Encoding: 248 248 185
Width: 574
Flags: HMW
HStem: -10 21G 0 21G<117 142 117 117> 499 20G<434 460 460 460> 507 20G<220 309.5>
LayerCount: 2
Fore
SplineSet
433 475 m 1,0,1
 481 436 481 436 508 377.5 c 128,-1,2
 535 319 535 319 535 258 c 0,3,4
 535 150 535 150 463 71 c 128,-1,5
 391 -8 391 -8 288 -10 c 1,6,7
 219 -9 219 -9 160 30 c 1,8,-1
 142 0 l 1,9,-1
 117 0 l 1,10,-1
 143 43 l 1,11,12
 96 81 96 81 68.5 138.5 c 128,-1,13
 41 196 41 196 41 258 c 0,14,15
 41 367 41 367 113.5 447 c 128,-1,16
 186 527 186 527 288 527 c 0,17,18
 358 527 358 527 416 488 c 1,19,-1
 434 519 l 1,20,-1
 460 519 l 1,21,-1
 433 475 l 1,0,1
61 258 m 1,22,23
 66 133 66 133 153 60 c 1,24,-1
 405 471 l 1,25,26
 349 507 349 507 288 507 c 0,27,28
 190 507 190 507 125.5 429.5 c 128,-1,29
 61 352 61 352 61 258 c 1,22,23
288 10 m 0,30,31
 386 10 386 10 450.5 87 c 128,-1,32
 515 164 515 164 515 258 c 0,33,34
 515 316 515 316 490 368.5 c 128,-1,35
 465 421 465 421 422 457 c 1,36,-1
 170 47 l 1,37,38
 225 10 225 10 288 10 c 0,30,31
EndSplineSet
EndChar

StartChar: p
Encoding: 112 112 187
Width: 586
Flags: HMW
HStem: -213 21G<74 94 74 74> -10 21G<260 378.5> 499 20G<74 94 94 94> 507 20G<257.5 361>
LayerCount: 2
Fore
SplineSet
547 258 m 1,0,1
 540 146 540 146 475 68 c 128,-1,2
 410 -10 410 -10 306 -10 c 0,3,4
 241 -10 241 -10 185.5 26 c 128,-1,5
 130 62 130 62 94 119 c 1,6,-1
 94 -213 l 1,7,-1
 74 -213 l 1,8,-1
 74 519 l 1,9,-1
 94 519 l 1,10,-1
 94 409 l 1,11,12
 127 461 127 461 183 494 c 128,-1,13
 239 527 239 527 297 527 c 0,14,15
 403 527 403 527 475 444.5 c 128,-1,16
 547 362 547 362 547 258 c 1,0,1
527 258 m 1,17,18
 527 357 527 357 459.5 432 c 128,-1,19
 392 507 392 507 297 507 c 0,20,21
 233 507 233 507 163.5 457 c 128,-1,22
 94 407 94 407 94 348 c 2,23,-1
 94 161 l 1,24,25
 123 96 123 96 181 53 c 128,-1,26
 239 10 239 10 306 10 c 0,27,28
 403 10 403 10 464 85 c 128,-1,29
 525 160 525 160 527 258 c 1,17,18
EndSplineSet
Substitution2: "'smcp' Lowercase to Small Capitals in Latin lookup 2 subtable" P.sc
Substitution2: "'aalt' Access All Alternates in Latin lookup 0 subtable" P.sc
EndChar

StartChar: paragraph
Encoding: 182 182 188
Width: 576
Flags: HMW
HStem: -80 21G<327 347 327 327 438 458 438 438> 690 20G<327 528 347 347 347 438 458 528 458 458>
VStem: 327 131<-80 248 248 248 268 690 -80 690 -80 710>
LayerCount: 2
Fore
SplineSet
45 479 m 128,-1,1
 45 586 45 586 119.5 646.5 c 128,-1,2
 194 707 194 707 327 710 c 1,3,-1
 528 710 l 1,4,-1
 528 690 l 1,5,-1
 458 690 l 1,6,-1
 458 -80 l 1,7,-1
 438 -80 l 1,8,-1
 438 248 l 1,9,-1
 347 248 l 1,10,-1
 347 -80 l 1,11,-1
 327 -80 l 1,12,-1
 327 248 l 1,13,14
 195 250 195 250 120 311 c 128,-1,0
 45 372 45 372 45 479 c 128,-1,1
84 388 m 0,15,16
 137 273 137 273 327 268 c 1,17,-1
 327 690 l 1,18,19
 201 685 201 685 133 631.5 c 128,-1,20
 65 578 65 578 65 479 c 0,21,22
 65 429 65 429 84 388 c 0,15,16
438 268 m 1,23,-1
 438 690 l 1,24,-1
 347 690 l 1,25,-1
 347 268 l 1,26,-1
 438 268 l 1,23,-1
EndSplineSet
EndChar

StartChar: parenleft
Encoding: 40 40 189
Width: 212
Flags: HMW
HStem: -26 21G<175 175> 706 20G<175 175>
LayerCount: 2
Fore
SplineSet
41 342 m 0,0,1
 41 450 41 450 118 623 c 0,2,3
 141.333333333 675.5 141.333333333 675.5 175 726 c 1,4,-1
 191 714 l 1,5,6
 159 668 159 668 136 615 c 0,7,8
 61 446 61 446 61 342 c 0,9,10
 61 264 61 264 95.5 168.5 c 128,-1,11
 130 73 130 73 191 -14 c 1,12,-1
 175 -26 l 1,13,14
 112 64 112 64 76.5 163 c 128,-1,15
 41 262 41 262 41 342 c 0,0,1
EndSplineSet
EndChar

StartChar: parenright
Encoding: 41 41 190
Width: 212
Flags: HMW
HStem: -26 21G<37 37> 706 20G<37 37>
LayerCount: 2
Fore
SplineSet
171 342 m 0,0,1
 171 262 171 262 135.5 163 c 128,-1,2
 100 64 100 64 37 -26 c 1,3,-1
 21 -14 l 1,4,5
 82 73 82 73 116.5 168.5 c 128,-1,6
 151 264 151 264 151 342 c 0,7,8
 151 446 151 446 76 615 c 0,9,10
 60 651 60 651 38 688 c 1,11,12
 32 701 32 701 21 714 c 1,13,-1
 37 726 l 1,14,15
 70.6666666667 675.5 70.6666666667 675.5 94 623 c 0,16,17
 171 450 171 450 171 342 c 0,0,1
EndSplineSet
EndChar

StartChar: percent
Encoding: 37 37 191
Width: 682
Flags: HMW
HStem: -10 21G<454 530> 690 20G<157 221>
LayerCount: 2
Fore
SplineSet
394.5 30 m 128,-1,1
 354 70 354 70 354 127.5 c 128,-1,2
 354 185 354 185 394.5 225.5 c 128,-1,3
 435 266 435 266 492 266 c 128,-1,4
 549 266 549 266 589.5 225.5 c 128,-1,5
 630 185 630 185 630 127.5 c 128,-1,6
 630 70 630 70 589.5 30 c 128,-1,7
 549 -10 549 -10 492 -10 c 128,-1,0
 435 -10 435 -10 394.5 30 c 128,-1,1
52 572 m 128,-1,9
 52 629 52 629 92.5 669.5 c 128,-1,10
 133 710 133 710 190 710 c 128,-1,11
 247 710 247 710 287.5 669.5 c 128,-1,12
 328 629 328 629 328 572 c 128,-1,13
 328 515 328 515 287.5 474.5 c 128,-1,14
 247 434 247 434 190 434 c 128,-1,15
 133 434 133 434 92.5 474.5 c 128,-1,8
 52 515 52 515 52 572 c 128,-1,9
408.5 210.5 m 128,-1,17
 374 175 374 175 375 126.5 c 128,-1,18
 376 78 376 78 410 44 c 128,-1,19
 444 10 444 10 492.5 10 c 128,-1,20
 541 10 541 10 575.5 45 c 128,-1,21
 610 80 610 80 610 128 c 128,-1,22
 610 176 610 176 574.5 211 c 128,-1,23
 539 246 539 246 491 246 c 128,-1,16
 443 246 443 246 408.5 210.5 c 128,-1,17
106.5 654.5 m 128,-1,25
 72 619 72 619 73 570.5 c 128,-1,26
 74 522 74 522 108 488 c 128,-1,27
 142 454 142 454 190.5 454 c 128,-1,28
 239 454 239 454 273.5 489.5 c 128,-1,29
 308 525 308 525 308 573 c 128,-1,30
 308 621 308 621 272.5 655.5 c 128,-1,31
 237 690 237 690 189 690 c 128,-1,24
 141 690 141 690 106.5 654.5 c 128,-1,25
70 -6 m 1,32,-1
 54 6 l 1,33,-1
 612 706 l 1,34,-1
 628 694 l 1,35,-1
 70 -6 l 1,32,-1
EndSplineSet
EndChar

StartChar: period
Encoding: 46 46 192
Width: 144
Flags: HMW
HStem: 0 21G<62 82 62 62> 44 20G<62 82 82 82>
LayerCount: 2
Fore
SplineSet
82 0 m 1,0,-1
 62 0 l 1,1,-1
 62 64 l 1,2,-1
 82 64 l 1,3,-1
 82 0 l 1,0,-1
EndSplineSet
EndChar

StartChar: periodcentered
Encoding: 183 183 193
Width: 140
Flags: HMW
HStem: 611 21G<60 80 60 60> 674 20G<60 80 80 80>
LayerCount: 2
Fore
SplineSet
80 611 m 1,0,-1
 60 611 l 1,1,-1
 60 694 l 1,2,-1
 80 694 l 1,3,-1
 80 611 l 1,0,-1
EndSplineSet
EndChar

StartChar: plus
Encoding: 43 43 194
Width: 410
Flags: HMW
HStem: 195 21G<195 215 195 195> 495 20G<195 215 215 215>
LayerCount: 2
Fore
SplineSet
215 365 m 1,0,-1
 355 365 l 1,1,-1
 355 345 l 1,2,-1
 215 345 l 1,3,-1
 215 195 l 1,4,-1
 195 195 l 1,5,-1
 195 345 l 1,6,-1
 55 345 l 1,7,-1
 55 365 l 1,8,-1
 195 365 l 1,9,-1
 195 515 l 1,10,-1
 215 515 l 1,11,-1
 215 365 l 1,0,-1
EndSplineSet
EndChar

StartChar: q
Encoding: 113 113 195
Width: 586
Flags: HMW
HStem: -213 21G<528 528> -10 21G<207 320.5> 499 20G<492 512 512 512> 507 20G<221.5 325.5>
LayerCount: 2
Fore
SplineSet
528 -193 m 1,0,-1
 528 -213 l 1,1,2
 511 -212 511 -212 501.5 -200.5 c 128,-1,3
 492 -189 492 -189 492 -173 c 2,4,-1
 492 119 l 1,5,6
 403 -10 403 -10 280 -10 c 0,7,8
 175 -10 175 -10 107 71 c 128,-1,9
 39 152 39 152 39 258.5 c 0,10,11
 39 365 39 365 112.5 446 c 128,-1,12
 186 527 186 527 289 527 c 0,13,14
 349 527 349 527 404.5 493.5 c 128,-1,15
 460 460 460 460 492 409 c 1,16,-1
 492 519 l 1,17,-1
 512 519 l 1,18,-1
 512 -173 l 1,19,20
 515 -193 515 -193 528 -193 c 1,0,-1
492 161 m 1,21,-1
 492 348 l 2,22,23
 492 370 492 370 475 398 c 0,24,25
 445 446 445 446 394 476.5 c 128,-1,26
 343 507 343 507 289 507 c 0,27,28
 191 507 191 507 125 430.5 c 128,-1,29
 59 354 59 354 59 256 c 0,30,31
 59 158 59 158 122.5 84 c 128,-1,32
 186 10 186 10 280 10 c 0,33,34
 349 10 349 10 404 53 c 128,-1,35
 459 96 459 96 492 161 c 1,21,-1
EndSplineSet
Substitution2: "'salt' Stylistic Alternatives in Latin lookup 5 subtable" q.alt
Substitution2: "'smcp' Lowercase to Small Capitals in Latin lookup 2 subtable" Q.sc
AlternateSubs2: "'aalt' Access All Alternates in Latin lookup 1 subtable" Q.sc q.alt
EndChar

StartChar: q.alt
Encoding: 65576 -1 196
Width: 586
Flags: HMW
HStem: -213 21G<492 512 492 492> -10 21G<207 320.5> 499 20G<492 512 512 512> 507 20G<221.5 325.5>
LayerCount: 2
Fore
SplineSet
512 -213 m 1,0,-1
 492 -213 l 1,1,-1
 492 119 l 1,2,3
 403 -10 403 -10 280 -10 c 0,4,5
 175 -10 175 -10 107 71 c 128,-1,6
 39 152 39 152 39 258.5 c 0,7,8
 39 365 39 365 112.5 446 c 128,-1,9
 186 527 186 527 289 527 c 0,10,11
 349 527 349 527 404.5 493.5 c 128,-1,12
 460 460 460 460 492 409 c 1,13,-1
 492 519 l 1,14,-1
 512 519 l 1,15,-1
 512 -213 l 1,0,-1
492 161 m 1,16,-1
 492 348 l 2,17,18
 492 370 492 370 475 398 c 0,19,20
 445 446 445 446 394 476.5 c 128,-1,21
 343 507 343 507 289 507 c 0,22,23
 191 507 191 507 125 430.5 c 128,-1,24
 59 354 59 354 59 256 c 0,25,26
 59 158 59 158 122.5 84 c 128,-1,27
 186 10 186 10 280 10 c 0,28,29
 349 10 349 10 404 53 c 128,-1,30
 459 96 459 96 492 161 c 1,16,-1
EndSplineSet
EndChar

StartChar: question
Encoding: 63 63 197
Width: 488
Flags: HMW
HStem: 0 21G<187 207 187 187> 699 20G<212.5 300>
LayerCount: 2
Fore
SplineSet
207 179 m 1,0,-1
 187 179 l 1,1,2
 187 252.765694454 187 252.765694454 196.156868261 280.403064142 c 0,3,4
 213.537849478 332.862550265 213.537849478 332.862550265 272 364 c 1,5,6
 301 378.5 l 2,7,8
 361 408.5 361 408.5 376 426 c 0,9,10
 382 433 382 433 393 446 c 128,-1,11
 404 459 404 459 408 472 c 0,12,13
 419 507.75 419 507.75 419 544 c 1,14,15
 417 612 417 612 370.5 655.5 c 128,-1,16
 324 699 324 699 258 699 c 128,-1,17
 192 699 192 699 139.5 667 c 128,-1,18
 87 635 87 635 62 582 c 1,19,-1
 44 590 l 1,20,21
 70 649 70 649 127.5 684 c 128,-1,22
 185 719 185 719 257 719 c 128,-1,23
 329 719 329 719 384 669.5 c 128,-1,24
 439 620 439 620 439 527 c 128,-1,25
 439 434 439 434 350 381 c 0,26,27
 336 373 336 373 309 359.5 c 128,-1,28
 282 346 282 346 268 337.5 c 128,-1,29
 254 329 254 329 237.5 313 c 0,30,31
 207 283.424242424 207 283.424242424 207 214 c 2,32,-1
 207 179 l 1,0,-1
207 0 m 1,33,-1
 187 0 l 1,34,-1
 187 84 l 1,35,-1
 207 84 l 1,36,-1
 207 0 l 1,33,-1
EndSplineSet
EndChar

StartChar: questiondown
Encoding: 191 191 198
Width: 489
Flags: HMW
HStem: -9 21G<188.5 281> 690 20G<282 302 302 302>
LayerCount: 2
Fore
SplineSet
282 531 m 1,0,-1
 302 531 l 1,1,2
 302 457.234305546 302 457.234305546 292.843131739 429.596935858 c 0,3,4
 275.462150522 377.137449735 275.462150522 377.137449735 217 346 c 1,5,6
 188 331.5 l 2,7,8
 128 301.5 128 301.5 113 284 c 0,9,10
 107 277 107 277 96 264 c 128,-1,11
 85 251 85 251 81 238 c 0,12,13
 70 202.25 70 202.25 70 166 c 1,14,15
 72 98 72 98 118.5 54.5 c 128,-1,16
 165 11 165 11 231 11 c 128,-1,17
 297 11 297 11 349.5 43 c 128,-1,18
 402 75 402 75 427 128 c 1,19,-1
 445 120 l 1,20,21
 419 61 419 61 361.5 26 c 128,-1,22
 304 -9 304 -9 232 -9 c 128,-1,23
 160 -9 160 -9 105 40.5 c 128,-1,24
 50 90 50 90 50 183 c 128,-1,25
 50 276 50 276 139 329 c 0,26,27
 153 337 153 337 180 350.5 c 128,-1,28
 207 364 207 364 221 372.5 c 128,-1,29
 235 381 235 381 251.5 397 c 0,30,31
 282 426.575757576 282 426.575757576 282 496 c 2,32,-1
 282 531 l 1,0,-1
282 710 m 1,33,-1
 302 710 l 1,34,-1
 302 626 l 1,35,-1
 282 626 l 1,36,-1
 282 710 l 1,33,-1
EndSplineSet
EndChar

StartChar: quotedbl
Encoding: 34 34 199
Width: 188
Flags: HMW
HStem: 626 21G<59 79 59 59 109 109 109 129> 690 20G<59 79 79 79 109 129 129 129>
LayerCount: 2
Fore
SplineSet
79 626 m 1,0,-1
 59 626 l 1,1,-1
 59 710 l 1,2,-1
 79 710 l 1,3,-1
 79 626 l 1,0,-1
129 626 m 1,4,-1
 109 626 l 1,5,-1
 109 710 l 1,6,-1
 129 710 l 1,7,-1
 129 626 l 1,4,-1
EndSplineSet
EndChar

StartChar: quotedblleft
Encoding: 8220 8220 200
Width: 201
Flags: HMW
HStem: 632 21G<57 77 57 57 117 117 117 137> 694 20G<88 90 148 150>
LayerCount: 2
Fore
SplineSet
90 694 m 1,0,1
 77 694 77 694 77 681 c 2,2,-1
 77 632 l 1,3,-1
 57 632 l 1,4,-1
 57 681 l 2,5,6
 57 700 57 700 72 710 c 1,7,8
 82 714 82 714 90 714 c 1,9,-1
 90 694 l 1,0,1
150 694 m 1,10,11
 137 694 137 694 137 681 c 2,12,-1
 137 632 l 1,13,-1
 117 632 l 1,14,-1
 117 681 l 2,15,16
 117 700 117 700 132 710 c 1,17,18
 142 714 142 714 150 714 c 1,19,-1
 150 694 l 1,10,11
EndSplineSet
EndChar

StartChar: quotedblright
Encoding: 8221 8221 201
Width: 202
Flags: HMW
HStem: 627 21G<55 58.5 115 118.5> 689 20G<68 88 88 88 128 148 148 148>
LayerCount: 2
Fore
SplineSet
55 647 m 1,0,1
 68 647 68 647 68 660 c 2,2,-1
 68 709 l 1,3,-1
 88 709 l 1,4,-1
 88 660 l 2,5,6
 88 641 88 641 73 631 c 1,7,8
 63 627 63 627 55 627 c 1,9,-1
 55 647 l 1,0,1
115 647 m 1,10,11
 128 647 128 647 128 660 c 2,12,-1
 128 709 l 1,13,-1
 148 709 l 1,14,-1
 148 660 l 2,15,16
 148 641 148 641 133 631 c 1,17,18
 123 627 123 627 115 627 c 1,19,-1
 115 647 l 1,10,11
EndSplineSet
EndChar

StartChar: quoteleft
Encoding: 8216 8216 202
Width: 141
Flags: HMW
HStem: 632 21G<57 77 57 57> 694 20G<88 90>
LayerCount: 2
Fore
SplineSet
90 694 m 1,0,1
 77 694 77 694 77 681 c 2,2,-1
 77 632 l 1,3,-1
 57 632 l 1,4,-1
 57 681 l 2,5,6
 57 700 57 700 72 710 c 1,7,8
 82 714 82 714 90 714 c 1,9,-1
 90 694 l 1,0,1
EndSplineSet
EndChar

StartChar: quoteright
Encoding: 8217 8217 203
Width: 142
Flags: HMW
HStem: 627 21G<55 58.5> 689 20G<68 88 88 88>
LayerCount: 2
Fore
SplineSet
55 647 m 1,0,1
 68 647 68 647 68 660 c 2,2,-1
 68 709 l 1,3,-1
 88 709 l 1,4,-1
 88 660 l 2,5,6
 88 641 88 641 73 631 c 1,7,8
 63 627 63 627 55 627 c 1,9,-1
 55 647 l 1,0,1
EndSplineSet
EndChar

StartChar: quotesingle
Encoding: 39 39 204
Width: 120
Flags: HMW
HStem: 646 21G<50 70 50 50> 690 20G<50 70 70 70>
LayerCount: 2
Fore
SplineSet
70 646 m 1,0,-1
 50 646 l 1,1,-1
 50 710 l 1,2,-1
 70 710 l 1,3,-1
 70 646 l 1,0,-1
EndSplineSet
EndChar

StartChar: r
Encoding: 114 114 205
Width: 323
Flags: HMW
HStem: 0 21G<74 94 74 74> 499 20G<296 296>
LayerCount: 2
Fore
SplineSet
296 519 m 1,0,-1
 296 499 l 1,1,2
 219 496 219 496 166.5 449 c 128,-1,3
 114 402 114 402 94 328 c 1,4,-1
 94 0 l 1,5,-1
 74 0 l 1,6,-1
 74 519 l 1,7,-1
 94 519 l 1,8,-1
 94 385 l 1,9,10
 163 519 163 519 296 519 c 1,0,-1
EndSplineSet
Substitution2: "'smcp' Lowercase to Small Capitals in Latin lookup 2 subtable" R.sc
Substitution2: "'aalt' Access All Alternates in Latin lookup 0 subtable" R.sc
EndChar

StartChar: ring
Encoding: 730 730 206
Width: 250
Flags: HMW
HStem: 586 138<106 144>
VStem: 56 138<636 674>
LayerCount: 2
Fore
SplineSet
56 655 m 128,-1,1
 56 684 56 684 76 704 c 128,-1,2
 96 724 96 724 125 724 c 128,-1,3
 154 724 154 724 174 704 c 128,-1,4
 194 684 194 684 194 655 c 128,-1,5
 194 626 194 626 174 606 c 128,-1,6
 154 586 154 586 125 586 c 128,-1,7
 96 586 96 586 76 606 c 128,-1,0
 56 626 56 626 56 655 c 128,-1,1
90 690 m 128,-1,9
 76 676 76 676 76 654.5 c 0,10,11
 76 633 76 633 90 621 c 1,12,13
 105 606 105 606 125 606 c 128,-1,14
 145 606 145 606 159.5 620.5 c 0,15,16
 174 635 174 635 174 654.5 c 0,17,18
 174 674 174 674 160 690 c 1,19,20
 146 704 146 704 125 704 c 128,-1,8
 104 704 104 704 90 690 c 128,-1,9
EndSplineSet
EndChar

StartChar: s
Encoding: 115 115 207
Width: 461
Flags: HMW
HStem: -10 21G<192 277.5> 507 20G<190 254.5>
LayerCount: 2
Fore
SplineSet
38 72 m 1,0,-1
 53 85 l 1,1,2
 134 10 134 10 235 10 c 0,3,4
 304 10 304 10 357.5 40.5 c 128,-1,5
 411 71 411 71 411 132 c 0,6,7
 411 166 411 166 394 190.5 c 128,-1,8
 377 215 377 215 348.5 226.5 c 0,9,10
 295.217391304 248 295.217391304 248 222.108695652 248 c 128,-1,11
 149 248 149 248 97 281.5 c 128,-1,12
 45 315 45 315 45 389 c 0,13,14
 45 437 45 437 74.5 469.5 c 0,15,16
 126.692307692 527 126.692307692 527 229 527 c 0,17,18
 292 527 292 527 330 508.5 c 128,-1,19
 368 490 368 490 394 452 c 1,20,-1
 376 444 l 1,21,22
 344 507 344 507 229 507 c 0,23,24
 162 507 162 507 113.5 478 c 128,-1,25
 65 449 65 449 65 389 c 0,26,27
 65 344 65 344 91.5 315.5 c 128,-1,28
 118 287 118 287 152.5 277.5 c 128,-1,29
 187 268 187 268 228 268 c 128,-1,30
 269 268 269 268 302.5 261 c 128,-1,31
 336 254 336 254 366 239.5 c 0,32,33
 431 208.083333333 431 208.083333333 431 132 c 0,34,35
 431 95 431 95 412.5 66 c 128,-1,36
 394 37 394 37 364.5 21 c 0,37,38
 307.34375 -10 307.34375 -10 235 -10 c 0,39,40
 120 -10 120 -10 38 72 c 1,0,-1
EndSplineSet
Substitution2: "'smcp' Lowercase to Small Capitals in Latin lookup 2 subtable" S.sc
Substitution2: "'aalt' Access All Alternates in Latin lookup 0 subtable" S.sc
EndChar

StartChar: section
Encoding: 167 167 209
Width: 500
Flags: HMW
HStem: -88 21G<219 304.5> 695 20G<200 264.5>
LayerCount: 2
Fore
SplineSet
394 181 m 1,0,1
 448 151 448 151 448 75.5 c 128,-1,2
 448 0 448 0 390 -44 c 128,-1,3
 332 -88 332 -88 262 -88 c 0,4,5
 157 -88 157 -88 75 -6 c 1,6,-1
 90 7 l 1,7,8
 171 -68 171 -68 262 -68 c 0,9,10
 326 -68 326 -68 377 -28.5 c 128,-1,11
 428 11 428 11 428 74 c 0,12,13
 428 143.04 428 143.04 376 168 c 0,14,15
 334.355795148 187.989218329 334.355795148 187.989218329 260.677897574 189.994609164 c 128,-1,16
 187 192 187 192 134.5 229.5 c 128,-1,17
 82 267 82 267 82 333.5 c 128,-1,18
 82 400 82 400 114 435 c 1,19,20
 87 452 87 452 71 484.5 c 128,-1,21
 55 517 55 517 55 557 c 0,22,23
 55 628 55 628 112.5 671.5 c 128,-1,24
 170 715 170 715 236 715 c 128,-1,25
 302 715 302 715 340 696.5 c 128,-1,26
 378 678 378 678 404 640 c 1,27,-1
 386 632 l 1,28,29
 354 695 354 695 239 695 c 0,30,31
 176 695 176 695 125.5 656.5 c 128,-1,32
 75 618 75 618 75 557 c 0,33,34
 75 426 75 426 241 426 c 0,35,36
 320 426 320 426 375.5 389.5 c 128,-1,37
 431 353 431 353 431 284.5 c 128,-1,38
 431 216 431 216 394 181 c 1,0,1
133 425 m 1,39,40
 102 396 102 396 102 340.5 c 128,-1,41
 102 285 102 285 134 254.5 c 128,-1,42
 166 224 166 224 205 218 c 128,-1,43
 244 212 244 212 297.5 205.5 c 128,-1,44
 351 199 351 199 374 190 c 1,45,46
 411 221 411 221 411 273 c 128,-1,47
 411 325 411 325 383 355 c 0,48,49
 335.4 406 335.4 406 241 406 c 0,50,51
 178 406 178 406 133 425 c 1,39,40
EndSplineSet
EndChar

StartChar: semicolon
Encoding: 59 59 210
Width: 163
Flags: HMW
HStem: -33 21G<62 71> 497 20G<75 95 95 95>
LayerCount: 2
Fore
SplineSet
62 -33 m 1,0,-1
 62 -13 l 1,1,2
 75 -11 75 -11 75 0 c 2,3,-1
 75 64 l 1,4,-1
 95 64 l 1,5,-1
 95 0 l 2,6,7
 95 -15 95 -15 85.5 -24 c 128,-1,8
 76 -33 76 -33 62 -33 c 1,0,-1
95 453 m 1,9,-1
 75 453 l 1,10,-1
 75 517 l 1,11,-1
 95 517 l 1,12,-1
 95 453 l 1,9,-1
EndSplineSet
EndChar

StartChar: seven
Encoding: 55 55 211
Width: 511
Flags: HMW
HStem: -127 21G<114 114 114 137> 563 20G<41 468 41 501>
LayerCount: 2
Fore
SplineSet
114 -127 m 1,0,-1
 468 563 l 1,1,-1
 41 563 l 1,2,-1
 41 583 l 1,3,-1
 501 583 l 1,4,-1
 137 -127 l 1,5,-1
 114 -127 l 1,0,-1
EndSplineSet
Substitution2: "'salt' Stylistic Alternatives in Latin lookup 5 subtable" seven.alt
Substitution2: "'lnum' Lining Figures in Latin lookup 3 subtable" seven.alt
Substitution2: "'aalt' Access All Alternates in Latin lookup 0 subtable" seven.alt
EndChar

StartChar: seven.alt
Encoding: 65577 -1 212
Width: 471
Flags: HMW
HStem: 0 21G<92 92 92 115> 690 20G<19 446 19 479>
LayerCount: 2
Fore
SplineSet
92 0 m 1,0,-1
 446 690 l 1,1,-1
 19 690 l 1,2,-1
 19 710 l 1,3,-1
 479 710 l 1,4,-1
 115 0 l 1,5,-1
 92 0 l 1,0,-1
EndSplineSet
Substitution2: "'onum' Oldstyle Figures in Latin lookup 4 subtable" seven
EndChar

StartChar: six
Encoding: 54 54 213
Width: 590
Flags: HMW
HStem: -10 21G<239.5 305 305 321> 695 20G<206.5 305 298 305>
LayerCount: 2
Fore
SplineSet
550 232 m 1,0,1
 544 132 544 132 479.5 64 c 128,-1,2
 415 -4 415 -4 321 -10 c 1,3,-1
 305 -10 l 2,4,5
 209 -10 209 -10 139 56 c 128,-1,6
 69 122 69 122 61 213 c 0,7,8
 61 214 61 214 60.5 219.5 c 128,-1,9
 60 225 60 225 59.5 234.5 c 128,-1,10
 59 244 59 244 58 256 c 0,11,12
 56 280 56 280 56 331 c 128,-1,13
 56 382 56 382 67.5 446 c 128,-1,14
 79 510 79 510 104.5 573.5 c 128,-1,15
 130 637 130 637 180 676 c 128,-1,16
 230 715 230 715 298 715 c 2,17,-1
 305 715 l 2,18,19
 377 715 377 715 433.5 674 c 128,-1,20
 490 633 490 633 511 567 c 1,21,-1
 492 560 l 1,22,23
 471 623 471 623 419.5 659 c 128,-1,24
 368 695 368 695 305 695 c 2,25,-1
 298 695 l 2,26,27
 246 695 246 695 205 667.5 c 128,-1,28
 164 640 164 640 140.5 599.5 c 128,-1,29
 117 559 117 559 101.5 505.5 c 0,30,31
 76 417.483870968 76 417.483870968 76 318 c 1,32,33
 104 389 104 389 167 432 c 128,-1,34
 230 475 230 475 305 475 c 0,35,36
 407 475 407 475 477.5 403 c 128,-1,37
 548 331 548 331 550 232 c 1,0,1
305 10 m 1,38,39
 399 14 399 14 464.5 77.5 c 128,-1,40
 530 141 530 141 530 233 c 128,-1,41
 530 325 530 325 462.5 390 c 128,-1,42
 395 455 395 455 303.5 455 c 128,-1,43
 212 455 212 455 146 388.5 c 128,-1,44
 80 322 80 322 80 231 c 128,-1,45
 80 140 80 140 148 75 c 128,-1,46
 216 10 216 10 305 10 c 1,38,39
EndSplineSet
Substitution2: "'salt' Stylistic Alternatives in Latin lookup 5 subtable" six.alt
Substitution2: "'lnum' Lining Figures in Latin lookup 3 subtable" six.alt
Substitution2: "'aalt' Access All Alternates in Latin lookup 0 subtable" six.alt
EndChar

StartChar: six.alt
Encoding: 65578 -1 214
Width: 590
Flags: HMW
HStem: -10 21G<239.5 305 305 321> 695 20G<206.5 305 298 305>
LayerCount: 2
Fore
SplineSet
550 232 m 1,0,1
 544 132 544 132 479.5 64 c 128,-1,2
 415 -4 415 -4 321 -10 c 1,3,-1
 305 -10 l 2,4,5
 209 -10 209 -10 139 56 c 128,-1,6
 69 122 69 122 61 213 c 0,7,8
 61 214 61 214 60.5 219.5 c 128,-1,9
 60 225 60 225 59.5 234.5 c 128,-1,10
 59 244 59 244 58 256 c 0,11,12
 56 280 56 280 56 331 c 128,-1,13
 56 382 56 382 67.5 446 c 128,-1,14
 79 510 79 510 104.5 573.5 c 128,-1,15
 130 637 130 637 180 676 c 128,-1,16
 230 715 230 715 298 715 c 2,17,-1
 305 715 l 2,18,19
 377 715 377 715 433.5 674 c 128,-1,20
 490 633 490 633 511 567 c 1,21,-1
 492 560 l 1,22,23
 471 623 471 623 419.5 659 c 128,-1,24
 368 695 368 695 305 695 c 2,25,-1
 298 695 l 2,26,27
 246 695 246 695 205 667.5 c 128,-1,28
 164 640 164 640 140.5 599.5 c 128,-1,29
 117 559 117 559 101.5 505.5 c 0,30,31
 76 417.483870968 76 417.483870968 76 318 c 1,32,33
 104 389 104 389 167 432 c 128,-1,34
 230 475 230 475 305 475 c 0,35,36
 407 475 407 475 477.5 403 c 128,-1,37
 548 331 548 331 550 232 c 1,0,1
305 10 m 1,38,39
 399 14 399 14 464.5 77.5 c 128,-1,40
 530 141 530 141 530 233 c 128,-1,41
 530 325 530 325 462.5 390 c 128,-1,42
 395 455 395 455 303.5 455 c 128,-1,43
 212 455 212 455 146 388.5 c 128,-1,44
 80 322 80 322 80 231 c 128,-1,45
 80 140 80 140 148 75 c 128,-1,46
 216 10 216 10 305 10 c 1,38,39
EndSplineSet
Substitution2: "'onum' Oldstyle Figures in Latin lookup 4 subtable" six
EndChar

StartChar: slash
Encoding: 47 47 215
Width: 526
Flags: HMW
HStem: 0 21G<34 59 34 34> 690 20G<469 495 495 495>
LayerCount: 2
Fore
SplineSet
469 710 m 1,0,-1
 495 710 l 1,1,-1
 59 0 l 1,2,-1
 34 0 l 1,3,-1
 469 710 l 1,0,-1
EndSplineSet
EndChar

StartChar: A.sc
Encoding: 65579 -1 216
Width: 495
Flags: HMW
HStem: 0 21G<12 35 12 12 460 460 460 483> 499 20G<238 257 257 257>
LayerCount: 2
Fore
SplineSet
35 0 m 1,0,-1
 12 0 l 1,1,-1
 238 519 l 1,2,-1
 257 519 l 1,3,-1
 483 0 l 1,4,-1
 460 0 l 1,5,-1
 383 179 l 1,6,-1
 112 179 l 1,7,-1
 35 0 l 1,0,-1
248 490 m 1,8,-1
 121 199 l 1,9,-1
 374 199 l 1,10,-1
 248 490 l 1,8,-1
EndSplineSet
EndChar

StartChar: sterling
Encoding: 163 163 217
Width: 479
Flags: HMW
HStem: -15 21G<300 340.5> 695 20G<190 269>
LayerCount: 2
Fore
SplineSet
420 21 m 1,0,-1
 426 2 l 1,1,2
 370 -15 370 -15 335 -15 c 128,-1,3
 300 -15 300 -15 260 -5 c 128,-1,4
 220 5 220 5 189.5 5 c 128,-1,5
 159 5 159 5 108 -9 c 1,6,-1
 98 8 l 1,7,8
 210 116 210 116 217 214 c 1,9,10
 217 294 217 294 177 346 c 1,11,-1
 54 346 l 1,12,-1
 54 366 l 1,13,-1
 161 366 l 1,14,15
 156 371 156 371 140.5 389.5 c 128,-1,16
 125 408 125 408 119 415 c 128,-1,17
 113 422 113 422 100.5 438 c 128,-1,18
 88 454 88 454 82.5 464.5 c 128,-1,19
 77 475 77 475 70 489.5 c 0,20,21
 57 516.428571429 57 516.428571429 57 547 c 0,22,23
 57 615 57 615 109 665 c 128,-1,24
 161 715 161 715 235 715 c 0,25,26
 290 715 290 715 341 686 c 128,-1,27
 392 657 392 657 425 610 c 1,28,-1
 408 598 l 1,29,30
 378 642 378 642 331.5 668.5 c 128,-1,31
 285 695 285 695 227 695 c 128,-1,32
 169 695 169 695 123 651 c 128,-1,33
 77 607 77 607 77 547 c 0,34,35
 77 505.285714286 77 505.285714286 111.5 456 c 0,36,37
 122 441 122 441 149.5 409 c 128,-1,38
 177 377 177 377 186 366 c 1,39,-1
 360 366 l 1,40,-1
 360 346 l 1,41,-1
 202 346 l 1,42,43
 237 297 237 297 237 231 c 128,-1,44
 237 165 237 165 210 117.5 c 128,-1,45
 183 70 183 70 136 18 c 1,46,47
 171 25 171 25 199.5 25 c 128,-1,48
 228 25 228 25 266.5 15 c 128,-1,49
 305 5 305 5 334 5 c 128,-1,50
 363 5 363 5 420 21 c 1,0,-1
EndSplineSet
EndChar

StartChar: t
Encoding: 116 116 218
Width: 277
Flags: HMW
HStem: -5 21G<158 209.5> 499 20G<17 92 17 92 112 237> 680 20G<92 112 112 112>
LayerCount: 2
Fore
SplineSet
266 40 m 1,0,-1
 277 24 l 1,1,2
 267.21875 14.21875 267.21875 14.21875 237.109375 4.609375 c 128,-1,3
 207 -5 207 -5 176 -5 c 128,-1,4
 145 -5 145 -5 118.5 17.5 c 128,-1,5
 92 40 92 40 92 75 c 2,6,-1
 92 499 l 1,7,-1
 17 499 l 1,8,-1
 17 519 l 1,9,-1
 92 519 l 1,10,-1
 92 700 l 1,11,-1
 112 700 l 1,12,-1
 112 519 l 1,13,-1
 237 519 l 1,14,-1
 237 499 l 1,15,-1
 112 499 l 1,16,-1
 112 75 l 1,17,18
 114 47 114 47 134 31 c 128,-1,19
 154 15 154 15 185 15 c 128,-1,20
 216 15 216 15 266 40 c 1,0,-1
EndSplineSet
Substitution2: "'salt' Stylistic Alternatives in Latin lookup 5 subtable" t.alt
Substitution2: "'smcp' Lowercase to Small Capitals in Latin lookup 2 subtable" T.sc
AlternateSubs2: "'aalt' Access All Alternates in Latin lookup 1 subtable" T.sc t.alt
EndChar

StartChar: t.alt
Encoding: 65580 -1 219
Width: 247
Flags: HMW
HStem: 0 21G<93 113 93 93> 499 20G<18 93 18 93 113 238> 712 20G<93 113 113 113>
LayerCount: 2
Fore
SplineSet
113 0 m 1,0,-1
 93 0 l 1,1,-1
 93 499 l 1,2,-1
 18 499 l 1,3,-1
 18 519 l 1,4,-1
 93 519 l 1,5,-1
 93 732 l 1,6,-1
 113 732 l 1,7,-1
 113 519 l 1,8,-1
 238 519 l 1,9,-1
 238 499 l 1,10,-1
 113 499 l 1,11,-1
 113 0 l 1,0,-1
EndSplineSet
EndChar

StartChar: thorn
Encoding: 254 254 220
Width: 586
Flags: HMW
HStem: -213 21G<74 94 74 74> -10 21G<256 367.5> 507 20G<260.5 371.5> 690 20G<74 94 94 94>
LayerCount: 2
Fore
SplineSet
547 258 m 1,0,1
 544 150 544 150 472 70 c 128,-1,2
 400 -10 400 -10 297 -10 c 0,3,4
 237 -10 237 -10 181.5 23.5 c 128,-1,5
 126 57 126 57 94 108 c 1,6,-1
 94 -213 l 1,7,-1
 74 -213 l 1,8,-1
 74 710 l 1,9,-1
 94 710 l 1,10,-1
 94 398 l 1,11,12
 185 527 185 527 306 527 c 0,13,14
 414 527 414 527 480.5 444.5 c 128,-1,15
 547 362 547 362 547 258 c 1,0,1
460.5 86 m 128,-1,17
 527 162 527 162 527 259.5 c 128,-1,18
 527 357 527 357 464 432 c 128,-1,19
 401 507 401 507 306 507 c 0,20,21
 236 507 236 507 181 464 c 128,-1,22
 126 421 126 421 94 356 c 1,23,-1
 94 169 l 2,24,25
 94 109 94 109 163 59.5 c 128,-1,26
 232 10 232 10 297 10 c 0,27,16
 394 10 394 10 460.5 86 c 128,-1,17
EndSplineSet
EndChar

StartChar: three
Encoding: 51 51 221
Width: 514
Flags: HMW
HStem: -147 21G<226 301> 556 20G<208 294.5>
LayerCount: 2
Fore
SplineSet
123 -115 m 1,0,1
 61 -80 61 -80 40 -19 c 1,2,-1
 59 -12 l 1,3,4
 77 -66 77 -66 130 -96.5 c 128,-1,5
 183 -127 183 -127 255.5 -127 c 128,-1,6
 328 -127 328 -127 384 -81.5 c 128,-1,7
 440 -36 440 -36 440 47.5 c 128,-1,8
 440 131 440 131 382.5 180 c 128,-1,9
 325 229 325 229 223 229 c 1,10,-1
 223 249 l 1,11,12
 369.263157895 249 369.263157895 249 410 313.5 c 0,13,14
 428 342 428 342 428 384 c 0,15,16
 428 458 428 458 374 507 c 128,-1,17
 320 556 320 556 253.5 556 c 128,-1,18
 187 556 187 556 138 526 c 128,-1,19
 89 496 89 496 69 443 c 1,20,-1
 51 450 l 1,21,22
 72 508 72 508 127 542 c 128,-1,23
 182 576 182 576 246 576 c 0,24,25
 329 576 329 576 388.5 520 c 128,-1,26
 448 464 448 464 448 384 c 0,27,28
 448 325 448 325 413 287 c 128,-1,29
 378 249 378 249 319 237 c 1,30,31
 382 227 382 227 421 170 c 128,-1,32
 460 113 460 113 460 43 c 0,33,34
 460 -46 460 -46 397 -96.5 c 128,-1,35
 334 -147 334 -147 255.5 -147 c 128,-1,36
 177 -147 177 -147 123 -115 c 1,0,1
EndSplineSet
Substitution2: "'salt' Stylistic Alternatives in Latin lookup 5 subtable" three.alt
Substitution2: "'lnum' Lining Figures in Latin lookup 3 subtable" three.alt
Substitution2: "'aalt' Access All Alternates in Latin lookup 0 subtable" three.alt
EndChar

StartChar: three.alt
Encoding: 65581 -1 222
Width: 576
Flags: HMW
HStem: -9 21G<263 352> 699 20G<236.5 329>
LayerCount: 2
Fore
SplineSet
49 176 m 1,0,-1
 49 176 l 1,0,-1
259 350 m 2,1,-1
 224 350 l 1,2,-1
 224 370 l 1,3,-1
 259 370 l 2,4,5
 484 370 484 370 484 522 c 0,6,7
 484 603 484 603 422 651 c 128,-1,8
 360 699 360 699 286 699 c 128,-1,9
 212 699 212 699 157 669.5 c 128,-1,10
 102 640 102 640 79 584 c 1,11,-1
 61 592 l 1,12,13
 87 653 87 653 147 686 c 128,-1,14
 207 719 207 719 286 719 c 128,-1,15
 365 719 365 719 434.5 666.5 c 128,-1,16
 504 614 504 614 504 522 c 0,17,18
 504 396 504 396 360 359 c 1,19,20
 423 359 423 359 473.5 299.5 c 128,-1,21
 524 240 524 240 524 178 c 0,22,23
 524 96 524 96 455 43.5 c 128,-1,24
 386 -9 386 -9 297 -9 c 0,25,26
 146.779220779 -9 146.779220779 -9 77 90.5 c 0,27,28
 50 129 50 129 49 176 c 1,29,-1
 69 176 l 1,30,31
 72 103 72 103 138.5 57 c 128,-1,32
 205 11 205 11 289.5 11 c 128,-1,33
 374 11 374 11 439 55 c 128,-1,34
 504 99 504 99 504 180 c 128,-1,35
 504 261 504 261 433.5 305.5 c 128,-1,36
 363 350 363 350 259 350 c 2,1,-1
EndSplineSet
Substitution2: "'onum' Oldstyle Figures in Latin lookup 4 subtable" three
EndChar

StartChar: tilde
Encoding: 732 732 223
Width: 393
Flags: HMW
HStem: 601 81<69 160.5 103.5 296.5>
LayerCount: 2
Fore
SplineSet
296 609 m 0,0,1
 282 601 282 601 259 601 c 128,-1,2
 236 601 236 601 212 616.5 c 128,-1,3
 188 632 188 632 169.5 647 c 128,-1,4
 151 662 151 662 137 662 c 128,-1,5
 123 662 123 662 113.5 655.5 c 128,-1,6
 104 649 104 649 99.5 641.5 c 128,-1,7
 95 634 95 634 92.5 624 c 0,8,9
 89 610 89 610 89 602 c 1,10,-1
 69 601 l 1,11,-1
 69 602 l 2,12,13
 69 651.148148148 69 651.148148148 104.5 673.5 c 0,14,15
 118 682 118 682 139 682 c 128,-1,16
 160 682 160 682 198 651.5 c 128,-1,17
 236 621 236 621 260 621 c 128,-1,18
 284 621 284 621 296 634.5 c 0,19,20
 312 652.5 312 652.5 312 675 c 1,21,-1
 332 674 l 1,22,23
 332 629.571428571 332 629.571428571 296 609 c 0,0,1
EndSplineSet
EndChar

StartChar: two
Encoding: 50 50 224
Width: 494
Flags: HMW
HStem: 0 21G<53 443 53 53> 561 20G<197.5 305>
LayerCount: 2
Fore
SplineSet
53 0 m 1,0,-1
 51.3333333333 20.6666666667 l 2,1,2
 51.3333333333 29.3333333333 51.3333333333 29.3333333333 54.6666666667 45.1666666667 c 128,-1,3
 58 61 58 61 62.5 83 c 128,-1,4
 67 105 67 105 80.5 130.5 c 128,-1,5
 94 156 94 156 111.5 179.5 c 0,6,7
 151.920098847 233.778418451 151.920098847 233.778418451 224 263 c 0,8,9
 230 266 230 266 252.5 275 c 2,10,-1
 285 288 l 2,11,12
 321.363636364 302.545454545 321.363636364 302.545454545 339.181818182 315.272727273 c 128,-1,13
 357 328 357 328 371.5 341 c 128,-1,14
 386 354 386 354 393.5 366.5 c 0,15,16
 412 397.333333333 412 397.333333333 412 433 c 0,17,18
 412 484 412 484 369.5 522.5 c 128,-1,19
 327 561 327 561 250 561 c 0,20,21
 151.5 561 151.5 561 79 474 c 1,22,-1
 63 486 l 1,23,24
 63 490 63 490 84 511 c 128,-1,25
 105 532 105 532 151.5 556.5 c 128,-1,26
 198 581 198 581 250 581 c 0,27,28
 335 581 335 581 383.5 536.5 c 128,-1,29
 432 492 432 492 432 433 c 0,30,31
 432 380.785714286 432 380.785714286 405 348 c 0,32,33
 375.433566434 312.097902098 375.433566434 312.097902098 347.216783217 297.048951049 c 128,-1,34
 319 282 319 282 305 275.5 c 128,-1,35
 291 269 291 269 265.5 258.5 c 128,-1,36
 240 248 240 248 231 244 c 0,37,38
 183 224 183 224 148.5 191 c 128,-1,39
 114 158 114 158 99 123 c 0,40,41
 72 60 72 60 72 20 c 1,42,-1
 443 20 l 1,43,-1
 443 0 l 1,44,-1
 53 0 l 1,0,-1
EndSplineSet
Substitution2: "'salt' Stylistic Alternatives in Latin lookup 5 subtable" two.alt
Substitution2: "'lnum' Lining Figures in Latin lookup 3 subtable" two.alt
Substitution2: "'aalt' Access All Alternates in Latin lookup 0 subtable" two.alt
EndChar

StartChar: two.alt
Encoding: 65582 -1 225
Width: 553
Flags: HMW
HStem: 0 21G<48 501 48 48> 699 20G<213.5 353>
LayerCount: 2
Fore
SplineSet
48 0 m 1,0,1
 45 27 45 27 45 47.5 c 128,-1,2
 45 68 45 68 53 100.5 c 128,-1,3
 61 133 61 133 81 174 c 128,-1,4
 101 215 101 215 144.5 254 c 128,-1,5
 188 293 188 293 249 319 c 0,6,7
 264 325 264 325 298 338 c 128,-1,8
 332 351 332 351 351.5 359 c 128,-1,9
 371 367 371 367 399 383.5 c 128,-1,10
 427 400 427 400 442 417.5 c 0,11,12
 480 461.833333333 480 461.833333333 480 528.916666667 c 128,-1,13
 480 596 480 596 430.5 647.5 c 128,-1,14
 381 699 381 699 282 699 c 0,15,16
 192.571428571 699 192.571428571 699 128 642.5 c 0,17,18
 100.727272727 618.636363636 100.727272727 618.636363636 91.8636363636 606.818181818 c 2,19,-1
 74 583 l 1,20,-1
 57 593 l 1,21,22
 57 595 57 595 66 607.5 c 128,-1,23
 75 620 75 620 94.5 639 c 128,-1,24
 114 658 114 658 139.5 676 c 128,-1,25
 165 694 165 694 204 706.5 c 128,-1,26
 243 719 243 719 286 719 c 0,27,28
 389 719 389 719 444.5 661.5 c 128,-1,29
 500 604 500 604 500 525 c 0,30,31
 500 488 500 488 487.5 457 c 128,-1,32
 475 426 475 426 458.5 407 c 128,-1,33
 442 388 442 388 413 370 c 128,-1,34
 384 352 384 352 363 343 c 128,-1,35
 342 334 342 334 307 320.5 c 128,-1,36
 272 307 272 307 257 301 c 0,37,38
 199 276 199 276 158 239 c 128,-1,39
 117 202 117 202 98.5 164 c 0,40,41
 65 95.1891891892 65 95.1891891892 65 39 c 0,42,43
 65 25 65 25 66 20 c 1,44,-1
 501 20 l 1,45,-1
 501 0 l 1,46,-1
 48 0 l 1,0,1
74 583 m 1,47,-1
 74 583 l 1,47,-1
EndSplineSet
Substitution2: "'onum' Oldstyle Figures in Latin lookup 4 subtable" two
EndChar

StartChar: u
Encoding: 117 117 226
Width: 557
Flags: HMW
HStem: -10 21G<166.5 284.5> 499 20G<69 89 89 89 462 482 482 482>
LayerCount: 2
Fore
SplineSet
498 20 m 1,0,-1
 498 0 l 1,1,2
 481 1 481 1 471.5 12.5 c 128,-1,3
 462 24 462 24 462 40 c 2,4,-1
 462 132 l 1,5,6
 430 69 430 69 368.5 29.5 c 128,-1,7
 307 -10 307 -10 239 -10 c 0,8,9
 91.5806451613 -10 91.5806451613 -10 72.5 159 c 0,10,11
 69 190 69 190 69 228 c 2,12,-1
 69 519 l 1,13,-1
 89 519 l 1,14,-1
 89 228 l 2,15,16
 89 68.5245901639 89 68.5245901639 163.5 27 c 0,17,18
 194 10 194 10 239 10 c 0,19,20
 316 10 316 10 379 63.5 c 128,-1,21
 442 117 442 117 462 189 c 1,22,-1
 462 519 l 1,23,-1
 482 519 l 1,24,-1
 482 40 l 1,25,26
 484 20 484 20 498 20 c 1,0,-1
EndSplineSet
Substitution2: "'smcp' Lowercase to Small Capitals in Latin lookup 2 subtable" U.sc
Substitution2: "'aalt' Access All Alternates in Latin lookup 0 subtable" U.sc
EndChar

StartChar: u.alt
Encoding: 65583 -1 227
Width: 556
Flags: HMW
HStem: -10 21G<166.5 284.5> 0 21G<462 482 462 462> 499 20G<69 89 89 89 462 482 482 482>
LayerCount: 2
Fore
SplineSet
482 0 m 1,0,-1
 462 0 l 1,1,-1
 462 132 l 1,2,3
 430 69 430 69 368.5 29.5 c 128,-1,4
 307 -10 307 -10 239 -10 c 0,5,6
 91.5806451613 -10 91.5806451613 -10 72.5 159 c 0,7,8
 69 190 69 190 69 228 c 2,9,-1
 69 519 l 1,10,-1
 89 519 l 1,11,-1
 89 228 l 2,12,13
 89 68.5245901639 89 68.5245901639 163.5 27 c 0,14,15
 194 10 194 10 239 10 c 0,16,17
 316 10 316 10 379 63.5 c 128,-1,18
 442 117 442 117 462 189 c 1,19,-1
 462 519 l 1,20,-1
 482 519 l 1,21,-1
 482 0 l 1,0,-1
EndSplineSet
EndChar

StartChar: ucircumflex
Encoding: 251 251 229
Width: 557
Flags: HMW
HStem: -10 21G<166.5 284.5> 499 20G<69 89 89 89 462 482 482 482> 707 20G<269 285 285 285>
LayerCount: 2
Fore
SplineSet
498 20 m 1,0,-1
 498 0 l 1,1,2
 481 1 481 1 471.5 12.5 c 128,-1,3
 462 24 462 24 462 40 c 2,4,-1
 462 132 l 1,5,6
 430 69 430 69 368.5 29.5 c 128,-1,7
 307 -10 307 -10 239 -10 c 0,8,9
 91.5806451613 -10 91.5806451613 -10 72.5 159 c 0,10,11
 69 190 69 190 69 228 c 2,12,-1
 69 519 l 1,13,-1
 89 519 l 1,14,-1
 89 228 l 2,15,16
 89 68.5245901639 89 68.5245901639 163.5 27 c 0,17,18
 194 10 194 10 239 10 c 0,19,20
 316 10 316 10 379 63.5 c 128,-1,21
 442 117 442 117 462 189 c 1,22,-1
 462 519 l 1,23,-1
 482 519 l 1,24,-1
 482 40 l 1,25,26
 484 20 484 20 498 20 c 1,0,-1
192 587 m 1,27,-1
 176 599 l 1,28,-1
 269 727 l 1,29,-1
 285 727 l 1,30,-1
 378 599 l 1,31,-1
 362 587 l 1,32,-1
 277 704 l 1,33,-1
 192 587 l 1,27,-1
EndSplineSet
EndChar

StartChar: ugrave
Encoding: 249 249 231
Width: 557
Flags: HMW
HStem: -10 21G<166.5 284.5> 499 20G<69 89 89 89 462 482 482 482> 684 20G<201 234 234 234>
LayerCount: 2
Fore
SplineSet
498 20 m 1,0,-1
 498 0 l 1,1,2
 481 1 481 1 471.5 12.5 c 128,-1,3
 462 24 462 24 462 40 c 2,4,-1
 462 132 l 1,5,6
 430 69 430 69 368.5 29.5 c 128,-1,7
 307 -10 307 -10 239 -10 c 0,8,9
 91.5806451613 -10 91.5806451613 -10 72.5 159 c 0,10,11
 69 190 69 190 69 228 c 2,12,-1
 69 519 l 1,13,-1
 89 519 l 1,14,-1
 89 228 l 2,15,16
 89 68.5245901639 89 68.5245901639 163.5 27 c 0,17,18
 194 10 194 10 239 10 c 0,19,20
 316 10 316 10 379 63.5 c 128,-1,21
 442 117 442 117 462 189 c 1,22,-1
 462 519 l 1,23,-1
 482 519 l 1,24,-1
 482 40 l 1,25,26
 484 20 484 20 498 20 c 1,0,-1
283 599 m 1,27,-1
 201 704 l 1,28,-1
 234 704 l 1,29,-1
 299 611 l 1,30,-1
 283 599 l 1,27,-1
EndSplineSet
EndChar

StartChar: underscore
Encoding: 95 95 232
Width: 425
Flags: HMW
HStem: -20 20G<16 409 16 409> -20 21G<16 409 16 16>
LayerCount: 2
Fore
SplineSet
409 -20 m 1,0,-1
 16 -20 l 1,1,-1
 16 0 l 1,2,-1
 409 0 l 1,3,-1
 409 -20 l 1,0,-1
EndSplineSet
EndChar

StartChar: v
Encoding: 118 118 233
Width: 472
Flags: HMW
HStem: 0 21G<227 245 227 227> 499 20G<1 23 23 23 449 471 471 471>
LayerCount: 2
Fore
SplineSet
245 0 m 1,0,-1
 227 0 l 1,1,-1
 1 519 l 1,2,-1
 23 519 l 1,3,-1
 236 29 l 1,4,-1
 449 519 l 1,5,-1
 471 519 l 1,6,-1
 245 0 l 1,0,-1
EndSplineSet
Substitution2: "'smcp' Lowercase to Small Capitals in Latin lookup 2 subtable" V.sc
Substitution2: "'aalt' Access All Alternates in Latin lookup 0 subtable" V.sc
EndChar

StartChar: w
Encoding: 119 119 234
Width: 746
Flags: HMW
HStem: 0 21G<228 246 228 228 500 518 500 500> 499 20G<1 23 23 23 723 745 745 745>
LayerCount: 2
Fore
SplineSet
509 29 m 1,0,-1
 723 519 l 1,1,-1
 745 519 l 1,2,-1
 518 0 l 1,3,-1
 500 0 l 1,4,-1
 373 291 l 1,5,-1
 246 0 l 1,6,-1
 228 0 l 1,7,-1
 1 519 l 1,8,-1
 23 519 l 1,9,-1
 237 29 l 1,10,-1
 362 316 l 1,11,-1
 275 517 l 1,12,-1
 296 517 l 1,13,-1
 373 342 l 1,14,-1
 450 517 l 1,15,-1
 471 517 l 1,16,-1
 384 316 l 1,17,-1
 509 29 l 1,0,-1
EndSplineSet
Substitution2: "'salt' Stylistic Alternatives in Latin lookup 5 subtable" w.alt
Substitution2: "'smcp' Lowercase to Small Capitals in Latin lookup 2 subtable" W.sc
AlternateSubs2: "'aalt' Access All Alternates in Latin lookup 1 subtable" W.sc w.alt
EndChar

StartChar: w.alt
Encoding: 65584 -1 235
Width: 750
Flags: HMW
HStem: 0 21G<192 210 192 192 540 558 540 540> 499 20G<6 28 28 28 364 386 386 386 722 744 744 744>
LayerCount: 2
Fore
SplineSet
558 0 m 1,0,-1
 540 0 l 1,1,-1
 375 493 l 1,2,-1
 210 0 l 1,3,-1
 192 0 l 1,4,-1
 6 519 l 1,5,-1
 28 519 l 1,6,-1
 201 30 l 1,7,-1
 364 519 l 1,8,-1
 386 519 l 1,9,-1
 549 30 l 1,10,-1
 722 519 l 1,11,-1
 744 519 l 1,12,-1
 558 0 l 1,0,-1
EndSplineSet
EndChar

StartChar: x
Encoding: 120 120 236
Width: 466
Flags: HMW
HStem: 0 21G<14 40 14 14 426 452 426 426> 499 20G<12 38 38 38 428 454 454 454>
LayerCount: 2
Fore
SplineSet
12 519 m 1,0,-1
 38 519 l 1,1,-1
 233 275 l 1,2,-1
 428 519 l 1,3,-1
 454 519 l 1,4,-1
 246 258 l 1,5,-1
 452 0 l 1,6,-1
 426 0 l 1,7,-1
 233 242 l 1,8,-1
 40 0 l 1,9,-1
 14 0 l 1,10,-1
 220 258 l 1,11,-1
 12 519 l 1,0,-1
EndSplineSet
Substitution2: "'smcp' Lowercase to Small Capitals in Latin lookup 2 subtable" X.sc
Substitution2: "'aalt' Access All Alternates in Latin lookup 0 subtable" X.sc
EndChar

StartChar: y
Encoding: 121 121 237
Width: 489
Flags: HMW
HStem: -223 21G<106 124.5> 499 20G<-1 21 21 21 467 489 489 489>
LayerCount: 2
Fore
SplineSet
467 519 m 1,0,-1
 489 519 l 1,1,-1
 180 -186 l 1,2,-1
 173 -198 l 2,3,4
 158 -223 158 -223 106 -223 c 1,5,-1
 106 -203 l 1,6,7
 142 -203 142 -203 153 -192 c 0,8,9
 159 -185 159 -185 240 0 c 1,10,-1
 -1 519 l 1,11,-1
 21 519 l 1,12,-1
 250 25 l 1,13,-1
 467 519 l 1,0,-1
EndSplineSet
Substitution2: "'salt' Stylistic Alternatives in Latin lookup 5 subtable" y.alt
Substitution2: "'smcp' Lowercase to Small Capitals in Latin lookup 2 subtable" Y.sc
AlternateSubs2: "'aalt' Access All Alternates in Latin lookup 1 subtable" Y.sc y.alt
EndChar

StartChar: y.alt
Encoding: 65585 -1 238
Width: 490
Flags: HMW
HStem: -213 21G<152 170 152 152> 499 20G<-1 21 21 21 467 489 489 489>
LayerCount: 2
Fore
SplineSet
467 519 m 1,0,-1
 489 519 l 1,1,-1
 170 -213 l 1,2,-1
 152 -213 l 1,3,4
 169 -161 169 -161 240 0 c 1,5,-1
 -1 519 l 1,6,-1
 21 519 l 1,7,-1
 250 25 l 1,8,-1
 467 519 l 1,0,-1
EndSplineSet
EndChar

StartChar: ydieresis
Encoding: 255 255 240
Width: 489
Flags: HMW
HStem: -223 21G<106 124.5> 499 20G<-1 21 21 21 467 489 489 489> 674 20G<168 188 188 188 324 344 344 344>
LayerCount: 2
Fore
SplineSet
467 519 m 1,0,-1
 489 519 l 1,1,-1
 180 -186 l 1,2,-1
 173 -198 l 2,3,4
 158 -223 158 -223 106 -223 c 1,5,-1
 106 -203 l 1,6,7
 142 -203 142 -203 153 -192 c 0,8,9
 159 -185 159 -185 240 0 c 1,10,-1
 -1 519 l 1,11,-1
 21 519 l 1,12,-1
 250 25 l 1,13,-1
 467 519 l 1,0,-1
188 611 m 1,14,-1
 168 611 l 1,15,-1
 168 694 l 1,16,-1
 188 694 l 1,17,-1
 188 611 l 1,14,-1
344 611 m 1,18,-1
 324 611 l 1,19,-1
 324 694 l 1,20,-1
 344 694 l 1,21,-1
 344 611 l 1,18,-1
EndSplineSet
EndChar

StartChar: yen
Encoding: 165 165 241
Width: 661
Flags: HMW
HStem: 0 21G<320 340 320 320> 231 110<184 278 184 320 184 278 384 477 184 340> 690 20G<33 56 56 56 605 628 628 628>
LayerCount: 2
Fore
SplineSet
628 710 m 1,0,-1
 384 341 l 1,1,-1
 477 341 l 1,2,-1
 477 321 l 1,3,-1
 371 321 l 1,4,-1
 340 275 l 1,5,-1
 340 251 l 1,6,-1
 477 251 l 1,7,-1
 477 231 l 1,8,-1
 340 231 l 1,9,-1
 340 0 l 1,10,-1
 320 0 l 1,11,-1
 320 231 l 1,12,-1
 184 231 l 1,13,-1
 184 251 l 1,14,-1
 320 251 l 1,15,-1
 320 277 l 1,16,-1
 291 321 l 1,17,-1
 184 321 l 1,18,-1
 184 341 l 1,19,-1
 278 341 l 1,20,-1
 33 710 l 1,21,-1
 56 710 l 1,22,-1
 330 298 l 1,23,-1
 605 710 l 1,24,-1
 628 710 l 1,0,-1
EndSplineSet
EndChar

StartChar: z
Encoding: 122 122 242
Width: 468
Flags: HMW
HStem: 0 21G<23 440 23 23> 499 20G<28 419 28 444 28 444>
LayerCount: 2
Fore
SplineSet
440 0 m 1,0,-1
 23 0 l 1,1,-1
 23 20 l 1,2,-1
 419 499 l 1,3,-1
 28 499 l 1,4,-1
 28 519 l 1,5,-1
 444 519 l 1,6,-1
 444 499 l 1,7,-1
 49 20 l 1,8,-1
 440 20 l 1,9,-1
 440 0 l 1,0,-1
EndSplineSet
Substitution2: "'smcp' Lowercase to Small Capitals in Latin lookup 2 subtable" Z.sc
Substitution2: "'aalt' Access All Alternates in Latin lookup 0 subtable" Z.sc
EndChar

StartChar: zero
Encoding: 48 48 244
Width: 588
Flags: HMW
HStem: -10 21G 577 20G<226 358>
LayerCount: 2
Fore
SplineSet
294 -10 m 1,0,1
 188 -8 188 -8 122.5 79.5 c 128,-1,2
 57 167 57 167 57 290.5 c 0,3,4
 57 414 57 414 125.5 505.5 c 128,-1,5
 194 597 194 597 294 597 c 0,6,7
 365 597 365 597 420.5 550.5 c 128,-1,8
 476 504 476 504 503.5 434 c 128,-1,9
 531 364 531 364 531 288 c 0,10,11
 531 165 531 165 464 78.5 c 128,-1,12
 397 -8 397 -8 294 -10 c 1,0,1
77 288 m 1,13,14
 81 171 81 171 140 90.5 c 128,-1,15
 199 10 199 10 295.5 10 c 0,16,17
 392 10 392 10 451.5 94 c 128,-1,18
 511 178 511 178 511 291 c 0,19,20
 511 404 511 404 449 490.5 c 128,-1,21
 387 577 387 577 292 577 c 0,22,23
 197 577 197 577 137 488.5 c 128,-1,24
 77 400 77 400 77 288 c 1,13,14
EndSplineSet
Substitution2: "'salt' Stylistic Alternatives in Latin lookup 5 subtable" zero.alt
Substitution2: "'lnum' Lining Figures in Latin lookup 3 subtable" zero.alt
Substitution2: "'aalt' Access All Alternates in Latin lookup 0 subtable" zero.alt
EndChar

StartChar: zero.alt
Encoding: 65586 -1 245
Width: 666
Flags: HMW
HStem: -10 21G 690 20G<246 414>
LayerCount: 2
Fore
SplineSet
333 -10 m 1,0,1
 245 -7 245 -7 178.5 50.5 c 128,-1,2
 112 108 112 108 81.5 187 c 128,-1,3
 51 266 51 266 51 351.5 c 128,-1,4
 51 437 51 437 84.5 518.5 c 128,-1,5
 118 600 118 600 184 655 c 128,-1,6
 250 710 250 710 325 710 c 128,-1,7
 400 710 400 710 455 676 c 128,-1,8
 510 642 510 642 544 588 c 0,9,10
 615 475.235294118 615 475.235294118 615 350 c 0,11,12
 615 262 615 262 581.5 181 c 128,-1,13
 548 100 548 100 482 45.5 c 128,-1,14
 416 -9 416 -9 333 -10 c 1,0,1
71 350 m 1,15,16
 75.1037037037 224.837037037 75.1037037037 224.837037037 141.5 120.5 c 0,17,18
 173 71 173 71 223 40.5 c 128,-1,19
 273 10 273 10 333 10 c 0,20,21
 415 10 415 10 477 66 c 128,-1,22
 539 122 539 122 567 198 c 128,-1,23
 595 274 595 274 595 353 c 128,-1,24
 595 432 595 432 564 508.5 c 128,-1,25
 533 585 533 585 471.5 637.5 c 128,-1,26
 410 690 410 690 330.5 690 c 128,-1,27
 251 690 251 690 189 633.5 c 128,-1,28
 127 577 127 577 99 501.5 c 128,-1,29
 71 426 71 426 71 350 c 1,15,16
EndSplineSet
Substitution2: "'onum' Oldstyle Figures in Latin lookup 4 subtable" zero
EndChar

StartChar: guilsinglleft
Encoding: 8249 8249 246
Width: 348
Flags: HMW
HStem: 80 21G<285 285> 417 20G<285 285>
LayerCount: 2
Fore
SplineSet
48 250 m 1,0,-1
 48 268 l 1,1,-1
 285 437 l 1,2,-1
 285 415 l 1,3,-1
 67 259 l 1,4,-1
 285 102 l 1,5,-1
 285 80 l 1,6,-1
 48 250 l 1,0,-1
EndSplineSet
EndChar

StartChar: guilsinglright
Encoding: 8250 8250 247
Width: 348
Flags: HMW
HStem: 80 21G<63 63> 417 20G<63 63>
LayerCount: 2
Fore
SplineSet
300 268 m 1,0,-1
 300 250 l 1,1,-1
 63 80 l 1,2,-1
 63 102 l 1,3,-1
 281 259 l 1,4,-1
 63 415 l 1,5,-1
 63 437 l 1,6,-1
 300 268 l 1,0,-1
EndSplineSet
EndChar

StartChar: trademark
Encoding: 8482 8482 248
Width: 662
Flags: HMW
HStem: 433 21G<162 182 162 162 323 323 323 343 556 556 556 576> 690 20G<323 344 344 344 554 576 576 576> 692 20G<67 162 67 277 182 277 182 182>
VStem: 162 181<433 672 433 692 433 692>
LayerCount: 2
Fore
SplineSet
277 712 m 1,0,-1
 277 692 l 1,1,-1
 182 692 l 1,2,-1
 182 433 l 1,3,-1
 162 433 l 1,4,-1
 162 692 l 1,5,-1
 67 692 l 1,6,-1
 67 712 l 1,7,-1
 277 712 l 1,0,-1
449 501 m 1,8,-1
 554 710 l 1,9,-1
 576 710 l 1,10,-1
 576 433 l 1,11,-1
 556 433 l 1,12,-1
 556 672 l 1,13,-1
 458 475 l 1,14,-1
 441 475 l 1,15,-1
 343 672 l 1,16,-1
 343 433 l 1,17,-1
 323 433 l 1,18,-1
 323 710 l 1,19,-1
 344 710 l 1,20,-1
 449 501 l 1,8,-1
EndSplineSet
EndChar

StartChar: guillemotleft
Encoding: 171 171 249
Width: 518
Flags: HMW
HStem: 80 21G<285 285 455 455> 417 20G<285 285 455 455>
LayerCount: 2
Fore
SplineSet
48 250 m 1,0,-1
 48 268 l 1,1,-1
 285 437 l 1,2,-1
 285 415 l 1,3,-1
 67 259 l 1,4,-1
 285 102 l 1,5,-1
 285 80 l 1,6,-1
 48 250 l 1,0,-1
218 250 m 1,7,-1
 218 268 l 1,8,-1
 455 437 l 1,9,-1
 455 415 l 1,10,-1
 237 259 l 1,11,-1
 455 102 l 1,12,-1
 455 80 l 1,13,-1
 218 250 l 1,7,-1
EndSplineSet
EndChar

StartChar: guillemotright
Encoding: 187 187 250
Width: 518
Flags: HMW
HStem: 80 21G<63 63 233 233> 417 20G<63 63 233 233>
LayerCount: 2
Fore
SplineSet
470 268 m 1,0,-1
 470 250 l 1,1,-1
 233 80 l 1,2,-1
 233 102 l 1,3,-1
 451 259 l 1,4,-1
 233 415 l 1,5,-1
 233 437 l 1,6,-1
 470 268 l 1,0,-1
300 268 m 1,7,-1
 300 250 l 1,8,-1
 63 80 l 1,9,-1
 63 102 l 1,10,-1
 281 259 l 1,11,-1
 63 415 l 1,12,-1
 63 437 l 1,13,-1
 300 268 l 1,7,-1
EndSplineSet
EndChar

StartChar: ffl
Encoding: 64260 64260 251
Width: 740
Flags: HMW
HStem: -5 21G<641 683.5> 0 21G<99 119 99 99 311 331 311 311> 720 20G<434 507.5>
VStem: 99 232<0 438 0 438 458 520 520 540 0 569.5>
LayerCount: 2
Fore
SplineSet
623.5 33.5 m 128,-1,1
 640 14 640 14 666 14 c 128,-1,2
 692 14 692 14 728 23 c 1,3,-1
 737 4 l 1,4,5
 733.935483871 0.935483870968 733.935483871 0.935483870968 707.967741935 -2.03225806452 c 128,-1,6
 682 -5 682 -5 666 -5 c 0,7,8
 630 -5 630 -5 608.5 19 c 128,-1,9
 587 43 587 43 587 77 c 2,10,-1
 587 613 l 2,11,12
 587 657 587 657 556 688.5 c 128,-1,13
 525 720 525 720 461 720 c 128,-1,14
 397 720 397 720 364 666 c 128,-1,15
 331 612 331 612 331 540 c 2,16,-1
 331 458 l 1,17,-1
 456 458 l 1,18,-1
 456 438 l 1,19,-1
 331 438 l 1,20,-1
 331 0 l 1,21,-1
 311 0 l 1,22,-1
 311 438 l 1,23,-1
 119 438 l 1,24,-1
 119 0 l 1,25,-1
 99 0 l 1,26,-1
 99 438 l 1,27,-1
 24 438 l 1,28,-1
 24 458 l 1,29,-1
 99 458 l 1,30,-1
 99 520 l 2,31,32
 99 598 99 598 138.5 649 c 128,-1,33
 178 700 178 700 251 700 c 0,34,35
 307 700 307 700 342 675 c 1,36,37
 381 740 381 740 463 740 c 0,38,39
 530 740 530 740 568.5 704 c 128,-1,40
 607 668 607 668 607 614 c 2,41,-1
 607 77 l 2,42,0
 607 53 607 53 623.5 33.5 c 128,-1,1
311 540 m 2,43,44
 311 611 311 611 332 657 c 1,45,46
 304 680 304 680 244.5 680 c 128,-1,47
 185 680 185 680 152 632 c 128,-1,48
 119 584 119 584 119 520 c 2,49,-1
 119 458 l 1,50,-1
 311 458 l 1,51,-1
 311 540 l 2,43,44
EndSplineSet
Ligature2: "'liga' Standard Ligatures in Latin lookup 6 subtable" f f l
EndChar

StartChar: st
Encoding: 64262 64262 252
Width: 752
Flags: HMW
HStem: -10 21G<192 277.5> -5 21G<633 684.5> 499 20G<492 567 492 567 587 712> 507 20G<190 256 187 257> 733 20G<407 513>
VStem: 411 176<87.5 180.5>
LayerCount: 2
Fore
SplineSet
587.75 584.375 m 2,0,-1
 587 536 l 1,1,-1
 587 519 l 1,2,-1
 712 519 l 1,3,-1
 712 499 l 1,4,-1
 587 499 l 1,5,-1
 587 75 l 1,6,7
 589 47 589 47 609 31 c 128,-1,8
 629 15 629 15 660 15 c 128,-1,9
 691 15 691 15 741 40 c 1,10,-1
 752 24 l 1,11,12
 742.21875 14.21875 742.21875 14.21875 712.109375 4.609375 c 128,-1,13
 682 -5 682 -5 651 -5 c 128,-1,14
 620 -5 620 -5 593.5 17.5 c 128,-1,15
 567 40 567 40 567 75 c 2,16,-1
 567 499 l 1,17,-1
 492 499 l 1,18,-1
 492 519 l 1,19,-1
 567 519 l 1,20,-1
 567 533 l 2,21,22
 567 542 567 542 567.5 563.5 c 128,-1,23
 568 585 568 585 567.5 594 c 128,-1,24
 567 603 567 603 566.5 621.5 c 128,-1,25
 566 640 566 640 563.5 648.5 c 128,-1,26
 561 657 561 657 557 671.5 c 128,-1,27
 553 686 553 686 547 693 c 128,-1,28
 541 700 541 700 531.5 709 c 128,-1,29
 522 718 522 718 510 722.5 c 0,30,31
 482 733 482 733 436.5 733 c 128,-1,32
 391 733 391 733 362.5 701 c 128,-1,33
 334 669 334 669 334 620 c 0,34,35
 334 594.666666667 334 594.666666667 338 579.333333333 c 128,-1,36
 342 564 342 564 343.5 557.5 c 128,-1,37
 345 551 345 551 350.5 538.5 c 128,-1,38
 356 526 356 526 357.5 522.5 c 128,-1,39
 359 519 359 519 366.5 504 c 2,40,-1
 375 487 l 2,41,42
 383.612853021 468.338818455 383.612853021 468.338818455 394 452 c 1,43,-1
 376 444 l 1,44,45
 335 507 335 507 229 507 c 0,46,47
 162 507 162 507 113.5 478 c 128,-1,48
 65 449 65 449 65 389 c 0,49,50
 65 344 65 344 91.5 315.5 c 128,-1,51
 118 287 118 287 152.5 277.5 c 128,-1,52
 187 268 187 268 228 268 c 128,-1,53
 269 268 269 268 302.5 261 c 128,-1,54
 336 254 336 254 366 239.5 c 0,55,56
 431 208.083333333 431 208.083333333 431 132 c 0,57,58
 431 95 431 95 412.5 66 c 128,-1,59
 394 37 394 37 364.5 21 c 0,60,61
 307.34375 -10 307.34375 -10 235 -10 c 0,62,63
 120 -10 120 -10 38 72 c 1,64,-1
 53 85 l 1,65,66
 134 10 134 10 235 10 c 0,67,68
 304 10 304 10 357.5 40.5 c 128,-1,69
 411 71 411 71 411 132 c 0,70,71
 411 166 411 166 394 190.5 c 128,-1,72
 377 215 377 215 348.5 226.5 c 0,73,74
 295.217391304 248 295.217391304 248 222.108695652 248 c 128,-1,75
 149 248 149 248 97 281.5 c 128,-1,76
 45 315 45 315 45 389 c 0,77,78
 45 437 45 437 74.5 469.5 c 0,79,80
 126.692307692 527 126.692307692 527 229 527 c 0,81,82
 306 527 306 527 352 497 c 1,83,84
 348 508 348 508 339 526.5 c 128,-1,85
 330 545 330 545 326 555.5 c 0,86,87
 314 587 314 587 314 620 c 0,88,89
 314 677 314 677 348.5 715 c 128,-1,90
 383 753 383 753 444 753 c 0,91,92
 501 753 501 753 522 739 c 128,-1,93
 543 725 543 725 553.5 716 c 128,-1,94
 564 707 564 707 570.5 690 c 128,-1,95
 577 673 577 673 581 661.5 c 0,96,97
 587.75 642.09375 587.75 642.09375 587.75 584.375 c 2,0,-1
EndSplineSet
Ligature2: "'dlig' Discretionary Ligatures in Latin lookup 7 subtable" s t
EndChar

StartChar: ffi
Encoding: 65587 -1 253
Width: 650
Flags: HMW
HStem: 0 21G<99 119 99 99 306 326 306 306 551 571 551 551> 720 20G<438 493.5>
VStem: 99 227<0 438 0 438 458 510 510 540 0 554.5>
LayerCount: 2
Fore
SplineSet
468 720 m 0,0,1
 397 720 397 720 361.5 665.5 c 128,-1,2
 326 611 326 611 326 540 c 2,3,-1
 326 458 l 1,4,-1
 571 458 l 1,5,-1
 571 0 l 1,6,-1
 551 0 l 1,7,-1
 551 438 l 1,8,-1
 326 438 l 1,9,-1
 326 0 l 1,10,-1
 306 0 l 1,11,-1
 306 438 l 1,12,-1
 119 438 l 1,13,-1
 119 0 l 1,14,-1
 99 0 l 1,15,-1
 99 438 l 1,16,-1
 24 438 l 1,17,-1
 24 458 l 1,18,-1
 99 458 l 1,19,-1
 99 510 l 2,20,21
 99 586 99 586 135 643 c 128,-1,22
 171 700 171 700 239.5 700 c 128,-1,23
 308 700 308 700 343 674 c 1,24,25
 386 740 386 740 468 740 c 0,26,27
 500 740 500 740 530 732 c 128,-1,28
 560 724 560 724 574 716 c 128,-1,29
 588 708 588 708 588 706 c 1,30,-1
 572 694 l 1,31,32
 562 704 562 704 533 712 c 128,-1,33
 504 720 504 720 468 720 c 0,0,1
306 540 m 2,34,35
 306 605 306 605 333 656 c 1,36,37
 304 680 304 680 241 680 c 0,38,39
 207 680 207 680 182 663 c 128,-1,40
 157 646 157 646 144 619 c 0,41,42
 119 567.076923077 119 567.076923077 119 510 c 2,43,-1
 119 458 l 1,44,-1
 306 458 l 1,45,-1
 306 540 l 2,34,35
EndSplineSet
Ligature2: "'liga' Standard Ligatures in Latin lookup 6 subtable" f f i
EndChar

StartChar: ct
Encoding: 65588 -1 254
Width: 813
Flags: HMW
HStem: -10 21G<217.5 328> -5 21G<694 745.5> 499 20G<553 628 553 628 648 773> 507 20G<211 314 210 320> 733 20G<468 561.5>
LayerCount: 2
Fore
SplineSet
649 590 m 1,0,-1
 648 536 l 1,1,-1
 648 519 l 1,2,-1
 773 519 l 1,3,-1
 773 499 l 1,4,-1
 648 499 l 1,5,-1
 648 75 l 1,6,7
 650 47 650 47 670 31 c 128,-1,8
 690 15 690 15 721 15 c 128,-1,9
 752 15 752 15 802 40 c 1,10,-1
 813 24 l 1,11,12
 803.21875 14.21875 803.21875 14.21875 773.109375 4.609375 c 128,-1,13
 743 -5 743 -5 712 -5 c 128,-1,14
 681 -5 681 -5 654.5 17.5 c 128,-1,15
 628 40 628 40 628 75 c 2,16,-1
 628 499 l 1,17,-1
 553 499 l 1,18,-1
 553 519 l 1,19,-1
 628 519 l 1,20,-1
 628 587 l 2,21,22
 628 622 628 622 624.5 644.5 c 128,-1,23
 621 667 621 667 609 689.5 c 0,24,25
 585.8 733 585.8 733 505 733 c 0,26,27
 452 733 452 733 423.5 701 c 128,-1,28
 395 669 395 669 395 628.5 c 128,-1,29
 395 588 395 588 413 545.5 c 128,-1,30
 431 503 431 503 456 460 c 128,-1,31
 481 417 481 417 484 411 c 1,32,-1
 465 404 l 1,33,34
 409 507 409 507 281 507 c 0,35,36
 182 507 182 507 121 430.5 c 128,-1,37
 60 354 60 354 60 256.5 c 128,-1,38
 60 159 60 159 127.5 84.5 c 128,-1,39
 195 10 195 10 290 10 c 0,40,41
 344 10 344 10 402 41.5 c 128,-1,42
 460 73 460 73 472 119 c 1,43,-1
 492 113 l 1,44,45
 473 56 473 56 413 23 c 128,-1,46
 353 -10 353 -10 290 -10 c 0,47,48
 185 -10 185 -10 112.5 72 c 128,-1,49
 40 154 40 154 40 260 c 128,-1,50
 40 366 40 366 108.5 446.5 c 128,-1,51
 177 527 177 527 275.5 527 c 128,-1,52
 374 527 374 527 430 481 c 1,53,54
 375 561 375 561 375 619 c 128,-1,55
 375 677 375 677 409.5 715 c 128,-1,56
 444 753 444 753 498 753 c 128,-1,57
 552 753 552 753 582.5 739.5 c 128,-1,58
 613 726 613 726 626.5 700 c 0,59,60
 649 656.666666667 649 656.666666667 649 590 c 1,0,-1
EndSplineSet
Ligature2: "'dlig' Discretionary Ligatures in Latin lookup 7 subtable" c t
EndChar

StartChar: ff
Encoding: 65589 -1 255
Width: 539
Flags: HMW
HStem: 0 21G<99 119 99 99 306 326 306 306> 720 20G<438 493.5>
VStem: 99 227<0 438 0 438 458 510 510 540 0 554.5>
LayerCount: 2
Fore
SplineSet
468 720 m 0,0,1
 397 720 397 720 361.5 665.5 c 128,-1,2
 326 611 326 611 326 540 c 2,3,-1
 326 458 l 1,4,-1
 511 458 l 1,5,-1
 511 438 l 1,6,-1
 326 438 l 1,7,-1
 326 0 l 1,8,-1
 306 0 l 1,9,-1
 306 438 l 1,10,-1
 119 438 l 1,11,-1
 119 0 l 1,12,-1
 99 0 l 1,13,-1
 99 438 l 1,14,-1
 24 438 l 1,15,-1
 24 458 l 1,16,-1
 99 458 l 1,17,-1
 99 510 l 2,18,19
 99 586 99 586 135 643 c 128,-1,20
 171 700 171 700 239.5 700 c 128,-1,21
 308 700 308 700 343 674 c 1,22,23
 386 740 386 740 468 740 c 0,24,25
 500 740 500 740 522.5 731.5 c 128,-1,26
 545 723 545 723 551.5 716 c 128,-1,27
 558 709 558 709 558 706 c 1,28,-1
 542 694 l 1,29,30
 533 703 533 703 528.5 706.5 c 0,31,32
 511.142857143 720 511.142857143 720 468 720 c 0,0,1
306 540 m 2,33,34
 306 605 306 605 333 656 c 1,35,36
 304 680 304 680 241 680 c 0,37,38
 207 680 207 680 182 663 c 128,-1,39
 157 646 157 646 144 619 c 0,40,41
 119 567.076923077 119 567.076923077 119 510 c 2,42,-1
 119 458 l 1,43,-1
 306 458 l 1,44,-1
 306 540 l 2,33,34
EndSplineSet
Ligature2: "'liga' Standard Ligatures in Latin lookup 6 subtable" f f
EndChar

StartChar: eth
Encoding: 240 240 256
Width: 587
Flags: HMW
HStem: -10 21G<270 286 270 270> 694 20G<194 194>
LayerCount: 2
Fore
SplineSet
383 624 m 1,0,1
 450 562 450 562 492.5 475.5 c 128,-1,2
 535 389 535 389 535 317 c 0,3,4
 535 280 535 280 533.5 262 c 128,-1,5
 532 244 532 244 531.5 234.5 c 128,-1,6
 531 225 531 225 530.5 219.5 c 128,-1,7
 530 214 530 214 530 213 c 0,8,9
 522 122 522 122 452 56 c 128,-1,10
 382 -10 382 -10 286 -10 c 2,11,-1
 270 -10 l 1,12,13
 176 -4 176 -4 111.5 64 c 128,-1,14
 47 132 47 132 41 232 c 1,15,16
 43 331 43 331 113.5 403 c 128,-1,17
 184 475 184 475 286 475 c 0,18,19
 361 475 361 475 424 432 c 128,-1,20
 487 389 487 389 515 318 c 1,21,22
 515 380 515 380 473.5 463 c 128,-1,23
 432 546 432 546 367 608 c 1,24,-1
 286 528 l 1,25,-1
 272 542 l 1,26,-1
 352 622 l 1,27,28
 274 690 274 690 194 694 c 1,29,-1
 194 714 l 1,30,31
 281 710 281 710 368 638 c 1,32,-1
 444 714 l 1,33,-1
 458 700 l 1,34,-1
 383 624 l 1,0,1
286 10 m 1,35,36
 375 10 375 10 443 75 c 128,-1,37
 511 140 511 140 511 231 c 128,-1,38
 511 322 511 322 445 388.5 c 128,-1,39
 379 455 379 455 287.5 455 c 128,-1,40
 196 455 196 455 128.5 390 c 128,-1,41
 61 325 61 325 61 233 c 128,-1,42
 61 141 61 141 126.5 77.5 c 128,-1,43
 192 14 192 14 286 10 c 1,35,36
EndSplineSet
EndChar

StartChar: Lslash
Encoding: 321 321 257
Width: 583
Flags: HMW
HStem: 0 21G<94 560 94 94> 690 20G<94 114 114 114>
LayerCount: 2
Fore
SplineSet
316 506 m 1,0,-1
 31 221 l 1,1,-1
 17 236 l 1,2,-1
 302 521 l 1,3,-1
 316 506 l 1,0,-1
560 0 m 1,4,-1
 94 0 l 1,5,-1
 94 710 l 1,6,-1
 114 710 l 1,7,-1
 114 20 l 1,8,-1
 560 20 l 1,9,-1
 560 0 l 1,4,-1
EndSplineSet
EndChar

StartChar: lslash
Encoding: 322 322 258
Width: 241
Flags: HMW
HStem: -5 21G<141 183.5> 710 20G<87 107 107 107>
LayerCount: 2
Fore
SplineSet
214 504 m 1,0,-1
 14 304 l 1,1,-1
 -1 318 l 1,2,-1
 199 518 l 1,3,-1
 214 504 l 1,0,-1
123.5 33.5 m 128,-1,5
 140 14 140 14 166 14 c 128,-1,6
 192 14 192 14 228 23 c 1,7,-1
 237 4 l 1,8,9
 233.935483871 0.935483870968 233.935483871 0.935483870968 207.967741935 -2.03225806452 c 128,-1,10
 182 -5 182 -5 166 -5 c 0,11,12
 130 -5 130 -5 108.5 19 c 128,-1,13
 87 43 87 43 87 77 c 2,14,-1
 87 730 l 1,15,-1
 107 730 l 1,16,-1
 107 77 l 2,17,4
 107 53 107 53 123.5 33.5 c 128,-1,5
EndSplineSet
EndChar

StartChar: minus
Encoding: 8722 8722 259
Width: 543
Flags: HMW
HStem: 261 20G<70 473 70 473> 261 21G<70 473 70 70>
LayerCount: 2
Fore
SplineSet
473 261 m 1,0,-1
 70 261 l 1,1,-1
 70 281 l 1,2,-1
 473 281 l 1,3,-1
 473 261 l 1,0,-1
EndSplineSet
EndChar

StartChar: multiply
Encoding: 215 215 260
Width: 438
Flags: HMW
HStem: 121 21G<84 84 354 354> 401 20G<355 355>
LayerCount: 2
Fore
SplineSet
233 270 m 1,0,-1
 369 135 l 1,1,-1
 354 121 l 1,2,-1
 219 256 l 1,3,-1
 84 121 l 1,4,-1
 70 136 l 1,5,-1
 204 270 l 1,6,-1
 69 406 l 1,7,-1
 84 420 l 1,8,-1
 219 285 l 1,9,-1
 355 421 l 1,10,-1
 369 406 l 1,11,-1
 233 270 l 1,0,-1
EndSplineSet
EndChar

StartChar: fi
Encoding: 64257 64257 261
Width: 443
Flags: HMW
HStem: 0 21G<99 119 99 99 344 364 344 344> 720 20G<209.5 286.5>
LayerCount: 2
Fore
SplineSet
364 0 m 1,0,-1
 344 0 l 1,1,-1
 344 438 l 1,2,-1
 119 438 l 1,3,-1
 119 0 l 1,4,-1
 99 0 l 1,5,-1
 99 438 l 1,6,-1
 24 438 l 1,7,-1
 24 458 l 1,8,-1
 99 458 l 1,9,-1
 99 540 l 2,10,11
 99 609.885714286 99 609.885714286 133.5 671 c 0,12,13
 151 702 151 702 184 721 c 128,-1,14
 217 740 217 740 255 740 c 128,-1,15
 293 740 293 740 323 732 c 128,-1,16
 353 724 353 724 367 716 c 128,-1,17
 381 708 381 708 381 706 c 1,18,-1
 365 694 l 1,19,20
 355 704 355 704 326 712 c 128,-1,21
 297 720 297 720 261 720 c 0,22,23
 190 720 190 720 154.5 665.5 c 128,-1,24
 119 611 119 611 119 540 c 2,25,-1
 119 458 l 1,26,-1
 364 458 l 1,27,-1
 364 0 l 1,0,-1
EndSplineSet
Ligature2: "'liga' Standard Ligatures in Latin lookup 6 subtable" f i
EndChar

